<svg width="79" height="62" viewBox="0 0 79 62" fill="none" xmlns="http://www.w3.org/2000/svg">
<path d="M48.1738 24.3657C48.1738 24.3657 45.4139 25.3541 44.8927 27.0618C44.3715 28.7694 47.1428 33.0908 47.1428 33.0908C47.1428 33.0908 45.906 33.8922 45.7925 34.2126C45.6789 34.5329 46.2973 35.044 46.2973 35.044C46.2973 35.044 46.2745 35.4254 46.7289 35.7183C47.1832 36.0112 47.799 35.7183 47.799 35.7183C48.106 35.8808 48.4518 35.9583 48.7998 35.9426C49.3904 35.9202 50.665 34.4818 50.8013 34.2574C50.9376 34.0331 48.1738 24.3657 48.1738 24.3657Z" fill="#737373"/>
<path d="M45.6812 25.9476C45.3653 26.2089 45.095 26.5196 44.8811 26.8674C44.7766 27.0446 44.6855 27.2292 44.6085 27.4196C44.5263 27.605 44.4674 27.7997 44.4331 27.9992C44.4167 28.1151 44.3977 28.2298 44.3851 28.347C44.3694 28.4502 44.3694 28.5553 44.3851 28.6586C44.3851 28.6673 44.399 28.6673 44.4028 28.6586C44.4258 28.6066 44.4428 28.5523 44.4533 28.4965C44.4697 28.4342 44.4911 28.3719 44.5113 28.3121C44.5492 28.1961 44.5946 28.084 44.6375 27.9705C44.7223 27.7333 44.8209 27.501 44.9328 27.275C45.0451 27.0532 45.1776 26.8425 45.3114 26.6306C45.4446 26.4147 45.5962 26.2104 45.7645 26.0199C45.7742 26.0089 45.7791 25.9947 45.7781 25.9802C45.7772 25.9657 45.7705 25.9522 45.7594 25.9426C45.7484 25.933 45.7339 25.9281 45.7192 25.9291C45.7046 25.93 45.6909 25.9367 45.6812 25.9476Z" fill="#737373"/>
<path d="M45.2383 26.9671C45.1694 27.0432 45.105 27.1231 45.0452 27.2064C44.993 27.2863 44.9462 27.3696 44.9051 27.4557C44.8175 27.6383 44.7543 27.8315 44.7171 28.0303C44.6316 28.4271 44.6385 28.838 44.7373 29.2318C44.7373 29.2368 44.7393 29.2416 44.7428 29.2451C44.7464 29.2486 44.7512 29.2505 44.7562 29.2505C44.7612 29.2505 44.7661 29.2486 44.7696 29.2451C44.7732 29.2416 44.7752 29.2368 44.7752 29.2318C44.8105 29.0449 44.8244 28.8579 44.8496 28.6635C44.8748 28.469 44.8988 28.2895 44.9379 28.0988C44.9775 27.9143 45.0272 27.7321 45.0869 27.5529C45.1458 27.3699 45.2258 27.1943 45.3254 27.0294C45.3299 27.0181 45.3305 27.0056 45.327 26.9939C45.3235 26.9822 45.3163 26.972 45.3063 26.9649C45.2963 26.9578 45.2842 26.9541 45.2719 26.9545C45.2596 26.9549 45.2478 26.9593 45.2383 26.9671Z" fill="#737373"/>
<g opacity="0.1">
<path opacity="0.1" d="M48.1736 24.3657C48.1736 24.3657 45.4136 25.3541 44.8924 27.0618C44.3712 28.7694 47.1425 33.0908 47.1425 33.0908C47.1425 33.0908 45.9058 33.8922 45.7922 34.2126C45.6786 34.5329 46.297 35.044 46.297 35.044C46.297 35.044 46.2743 35.4254 46.7286 35.7183C47.1829 36.0112 47.7988 35.7183 47.7988 35.7183C48.1058 35.8808 48.4516 35.9583 48.7995 35.9426C49.3902 35.9202 50.6648 34.4818 50.8011 34.2574C50.9373 34.0331 48.1736 24.3657 48.1736 24.3657Z" fill="black"/>
<path opacity="0.1" d="M45.6812 25.9474C45.3653 26.2087 45.095 26.5195 44.8811 26.8673C44.7766 27.0445 44.6855 27.2291 44.6085 27.4195C44.5263 27.6049 44.4674 27.7995 44.4331 27.9991C44.4167 28.115 44.3977 28.2297 44.3851 28.3468C44.3694 28.4501 44.3694 28.5552 44.3851 28.6584C44.3851 28.6672 44.399 28.6672 44.4028 28.6584C44.4258 28.6065 44.4428 28.5522 44.4533 28.4964C44.4697 28.4341 44.4911 28.3718 44.5113 28.3119C44.5492 28.196 44.5946 28.0838 44.6375 27.9704C44.7223 27.7331 44.8209 27.5009 44.9328 27.2749C45.0451 27.053 45.1776 26.8424 45.3114 26.6305C45.4446 26.4146 45.5962 26.2103 45.7645 26.0197C45.7742 26.0088 45.7791 25.9946 45.7781 25.9801C45.7772 25.9656 45.7705 25.952 45.7594 25.9425C45.7484 25.9329 45.7339 25.928 45.7192 25.9289C45.7046 25.9299 45.6909 25.9365 45.6812 25.9474Z" fill="black"/>
<path opacity="0.1" d="M45.2383 26.9671C45.1694 27.0432 45.105 27.1231 45.0452 27.2064C44.993 27.2863 44.9462 27.3696 44.9051 27.4557C44.8175 27.6383 44.7543 27.8315 44.7171 28.0303C44.6316 28.4271 44.6385 28.838 44.7373 29.2318C44.7373 29.2368 44.7393 29.2416 44.7428 29.2451C44.7464 29.2486 44.7512 29.2505 44.7562 29.2505C44.7612 29.2505 44.7661 29.2486 44.7696 29.2451C44.7732 29.2416 44.7752 29.2368 44.7752 29.2318C44.8105 29.0449 44.8244 28.8579 44.8496 28.6635C44.8748 28.469 44.8988 28.2895 44.9379 28.0988C44.9775 27.9143 45.0272 27.7321 45.0869 27.5529C45.1458 27.3699 45.2258 27.1943 45.3254 27.0294C45.3299 27.0181 45.3305 27.0056 45.327 26.9939C45.3235 26.9822 45.3163 26.972 45.3063 26.9649C45.2963 26.9578 45.2842 26.9541 45.2719 26.9545C45.2596 26.9549 45.2478 26.9593 45.2383 26.9671Z" fill="black"/>
</g>
<path d="M50.7974 34.2451C50.6611 34.4707 49.3865 35.9091 48.7958 35.9303C48.4474 35.9463 48.1012 35.8688 47.7938 35.7059C47.7938 35.7059 47.1792 35.9988 46.7262 35.7059C46.2731 35.413 46.2933 35.0316 46.2933 35.0316C46.2933 35.0316 45.6787 34.5156 45.7885 34.2015C45.8983 33.8874 47.1389 33.0797 47.1389 33.0797C47.8052 32.9675 48.5333 33.223 48.5333 33.223C48.2105 33.0678 47.8586 32.9804 47.4998 32.9663C48.0336 32.8956 48.5766 32.9851 49.0583 33.223C49.5832 33.4666 50.1408 33.6345 50.7141 33.7216C50.7847 34.0307 50.815 34.2127 50.7974 34.2451Z" fill="#FDFDFD"/>
<path d="M50.7973 34.245C50.6611 34.4706 49.3864 35.909 48.7958 35.9302C48.5743 35.9386 48.353 35.9104 48.1409 35.8467L49.4508 33.3987C49.8599 33.5478 50.2825 33.658 50.7128 33.7277C50.7847 34.0306 50.815 34.2126 50.7973 34.245Z" fill="#DBDBDB"/>
<path d="M46.9521 33.5309C46.8311 33.6158 46.7168 33.7095 46.6101 33.8113C46.4919 33.9146 46.3906 34.0353 46.3097 34.1691C46.1633 34.4371 46.2466 34.7512 46.2832 35.0416C46.2832 35.054 46.3034 35.0528 46.3022 35.0416C46.2552 34.7627 46.2994 34.4763 46.4284 34.2239C46.5786 33.98 46.7601 33.7563 46.9685 33.5583C46.9836 33.5409 46.9647 33.5222 46.9521 33.5309Z" fill="#263238"/>
<path d="M48.5989 34.0519C48.3303 34.242 48.0983 34.478 47.9137 34.7487C47.8327 34.8823 47.7799 35.0307 47.7584 35.1849C47.7439 35.3531 47.7627 35.5225 47.814 35.6835C47.814 35.6922 47.8304 35.6922 47.8316 35.6835C47.8543 35.5277 47.8682 35.3706 47.9023 35.2161C47.9366 35.0744 47.9896 34.9378 48.06 34.8097C48.1284 34.6785 48.2082 34.5533 48.2986 34.4358C48.397 34.3112 48.5068 34.1865 48.6103 34.0619C48.6166 34.0594 48.6077 34.0457 48.5989 34.0519Z" fill="#263238"/>
<path d="M44.5935 8.41141C44.1455 8.47124 43.2382 2.12064 44.7828 0.0328573C45.0049 -0.267534 49.7046 1.95736 49.774 2.12064C49.8434 2.28392 45.516 8.28677 44.5935 8.41141Z" fill="#737373"/>
<path opacity="0.2" d="M49.7738 2.11563C49.7965 2.16674 49.3889 2.78871 48.792 3.62133C47.7824 1.98476 44.871 0.212325 44.799 0.255951C44.7271 0.299576 44.2476 2.0396 44.1958 3.93294C44.1365 6.17653 44.6375 7.67973 44.8798 8.26929C44.7961 8.33615 44.6982 8.38344 44.5933 8.40765C44.1466 8.46748 43.2392 2.11688 44.7839 0.0278524C45.0047 -0.272539 49.7019 1.95235 49.7738 2.11563Z" fill="black"/>
<path d="M46.0435 7.77823C46.0037 7.58052 45.9535 7.38498 45.8933 7.1924C45.8357 7.00047 45.767 6.81195 45.6876 6.62776C45.5343 6.25945 45.331 5.91349 45.0831 5.59945C44.9598 5.44368 44.8207 5.30084 44.6679 5.17317C44.5934 5.10711 44.5114 5.04853 44.4306 4.99119C44.3499 4.93386 44.2628 4.884 44.1782 4.83913C44.0898 4.79261 43.9988 4.75099 43.9056 4.71448C43.811 4.68332 43.7176 4.64344 43.6192 4.621C43.4235 4.56583 43.2234 4.52747 43.021 4.50633C43.4352 4.49602 43.8462 4.58138 44.2211 4.75562C44.5983 4.93507 44.9283 5.19828 45.1853 5.52467C45.4412 5.8474 45.6423 6.209 45.781 6.59536C45.923 6.97589 46.0113 7.37391 46.0435 7.77823Z" fill="#263238"/>
<path d="M46.3148 7.62486C46.3063 7.33538 46.2781 7.0468 46.2303 6.76108C46.1856 6.47566 46.1241 6.19307 46.046 5.91475C45.8942 5.35827 45.6653 4.82516 45.3658 4.33052C45.2167 4.08416 45.0479 3.84992 44.861 3.63003C44.6705 3.41274 44.4633 3.21022 44.2414 3.02426C44.0191 2.8376 43.7805 2.67076 43.5284 2.52568C43.2762 2.37706 43.0139 2.24587 42.7434 2.13306C43.3075 2.31281 43.8354 2.5887 44.3032 2.94823C44.7681 3.31591 45.163 3.76246 45.4693 4.26696C45.7714 4.77153 45.996 5.31761 46.1356 5.88733C46.2797 6.45498 46.34 7.04018 46.3148 7.62486Z" fill="#263238"/>
<path d="M61.1595 9.47583C61.581 9.63288 63.9194 3.65123 62.8935 1.27054C62.7471 0.929013 57.6613 2.04582 57.554 2.19041C57.4467 2.33499 60.2887 9.15051 61.1595 9.47583Z" fill="#737373"/>
<path opacity="0.2" d="M57.5553 2.19046C57.5212 2.23409 57.7749 2.93085 58.1661 3.87565C59.5278 2.50456 62.766 1.43138 62.8266 1.48872C62.8872 1.54605 62.9528 3.34965 62.5742 5.20559C62.1186 7.40182 61.2845 8.75545 60.9147 9.27646C60.981 9.35959 61.065 9.42726 61.1608 9.47464C61.5836 9.63294 63.922 3.65129 62.896 1.27059C62.7458 0.932808 57.6613 2.04712 57.5553 2.19046Z" fill="black"/>
<path d="M61.2163 7.77816C61.2484 7.37279 61.3376 6.97382 61.4813 6.5928C61.62 6.20644 61.8211 5.84485 62.077 5.52211C62.3346 5.19629 62.6644 4.93319 63.0411 4.75305C63.4165 4.5788 63.8279 4.49344 64.2426 4.50377C64.0402 4.52477 63.84 4.56314 63.6444 4.61844C63.5459 4.64088 63.4526 4.68076 63.3566 4.71192C63.2639 4.74844 63.1733 4.79005 63.0853 4.83657C62.9957 4.88144 62.9137 4.93753 62.8329 4.98863C62.7522 5.03973 62.6701 5.10455 62.5969 5.17061C62.4437 5.29826 62.3042 5.4411 62.1805 5.59689C61.9326 5.91093 61.7292 6.25689 61.576 6.6252C61.4209 6.99666 61.3022 7.3819 61.2214 7.77566L61.2163 7.77816Z" fill="#263238"/>
<path d="M60.9438 7.6249C60.9175 7.04116 60.977 6.45673 61.1205 5.88986C61.2603 5.32038 61.4844 4.77438 61.7856 4.2695C62.0936 3.76508 62.4902 3.31894 62.9567 2.95201C63.4241 2.5925 63.9515 2.31661 64.5153 2.13684C64.2451 2.24966 63.9833 2.38085 63.7316 2.52947C63.4791 2.67454 63.24 2.84138 63.0173 3.02804C62.7954 3.2137 62.5887 3.41624 62.3989 3.63381C62.2117 3.8534 62.0428 4.08767 61.8941 4.33431C61.5936 4.82842 61.3646 5.36168 61.2139 5.91853C61.1346 6.19656 61.0731 6.47922 61.0296 6.76486C60.9816 7.04933 60.9529 7.33665 60.9438 7.6249Z" fill="#263238"/>
<path d="M43.0173 11.5088C43.0173 12.3314 44.056 14.6984 46.2026 16.3612C46.2026 16.3612 47.0128 26.8412 47.1907 27.6963C47.3687 28.5513 49.6314 35.0403 49.6238 35.13C49.6163 35.2198 48.6445 36.0025 48.5183 36.2643C48.424 36.4902 48.3649 36.7289 48.3429 36.9723C48.3429 37.0321 48.9133 37.6603 49.2465 37.6852C49.2465 37.6852 50.2321 38.3147 51.0234 37.9083C51.0234 37.9083 51.7579 38.0529 52.1592 37.9183C52.5605 37.7837 53.5158 36.8775 53.8591 36.5734C54.2023 36.2693 54.0875 35.666 54.0875 35.666L56.4689 35.8442C56.4689 35.8442 56.6165 36.8987 56.7604 37.2153C56.9043 37.5319 57.8558 38.1988 58.2306 38.271C58.6054 38.3433 59.2503 38.0629 59.2503 38.0629C59.2503 38.0629 59.9192 38.2623 60.3861 38.1875C60.853 38.1127 61.1723 37.4658 61.1723 37.4658C61.4293 37.3696 61.6702 37.2356 61.8866 37.0682C62.1314 36.8464 61.5585 35.9926 61.2241 35.7869C61.0362 35.6676 60.8244 35.5902 60.6032 35.56C60.6032 35.56 67.2463 35.3955 68.5348 35.2509C69.8233 35.1063 71.1244 34.8134 71.3111 34.4071C71.4979 34.0008 71.3818 25.94 70.9489 24.8257C70.5161 23.7114 68.2029 20.5654 67.3725 19.9023C66.5421 19.2392 62.115 15.0636 62.115 15.0636C62.115 15.0636 63.9941 12.6455 64.215 11.075C64.2819 10.5989 59.6289 3.43187 57.9757 2.37739C56.3225 1.3229 49.9886 1.84516 49.2213 2.29387C46.9838 3.59765 43.0173 11.0351 43.0173 11.5088Z" fill="#737373"/>
<path d="M47.236 26.7677C47.2574 26.5446 47.2839 26.3203 47.3193 26.0971C47.3215 26.0798 47.3172 26.0623 47.3072 26.0479C47.2972 26.0335 47.2822 26.0233 47.2651 26.0191C47.2479 26.015 47.2298 26.0172 47.2142 26.0254C47.1986 26.0336 47.1866 26.0471 47.1805 26.0635C47.1064 26.2808 47.049 26.5033 47.0088 26.7291C46.9718 26.9571 46.9511 27.1875 46.947 27.4184C46.9331 27.8546 46.9331 28.3395 47.1439 28.7358C47.1439 28.7421 47.1603 28.7358 47.1615 28.7358C47.2297 28.3058 47.1678 27.8633 47.183 27.4283C47.1943 27.2052 47.2183 26.9834 47.236 26.7677Z" fill="#737373"/>
<path d="M47.3244 25.6181C47.0424 25.9724 46.848 26.3868 46.7565 26.8284C46.7005 27.045 46.6675 27.2668 46.6581 27.4902C46.6517 27.6011 46.6517 27.7122 46.6581 27.823C46.6729 27.9329 46.6987 28.041 46.735 28.1459C46.735 28.1571 46.759 28.1583 46.7603 28.1459C46.7767 28.0412 46.8082 27.9377 46.8196 27.833C46.8309 27.7283 46.8398 27.6273 46.8549 27.5251C46.8877 27.3145 46.9218 27.1038 46.9811 26.8957C47.1036 26.4859 47.2554 26.0852 47.4354 25.6966C47.4594 25.633 47.3786 25.5558 47.3244 25.6181Z" fill="#737373"/>
<path d="M43.7743 10.0218C43.6141 10.2127 43.4661 10.4134 43.3314 10.6226C43.2008 10.8333 43.0881 11.0543 42.9944 11.2832C42.8928 11.5103 42.8109 11.7455 42.7496 11.9862C42.6993 12.2333 42.6635 12.483 42.6423 12.7341C42.6423 12.7628 42.6789 12.7752 42.6878 12.7453C42.7572 12.5122 42.8506 12.2854 42.9402 12.0598C43.0298 11.8342 43.108 11.6061 43.2039 11.383C43.2998 11.1598 43.4058 10.9405 43.5118 10.7211C43.6179 10.5017 43.7226 10.2836 43.845 10.0729C43.8728 10.0318 43.8072 9.98196 43.7743 10.0218Z" fill="#737373"/>
<path d="M43.5057 10.9865C43.3904 11.1855 43.2929 11.3941 43.2141 11.6097C43.1405 11.8231 43.086 12.0425 43.0513 12.2654C42.9889 12.711 43.009 13.1642 43.1107 13.6028C43.1115 13.6053 43.1131 13.6074 43.1152 13.609C43.1174 13.6105 43.12 13.6114 43.1226 13.6114C43.1253 13.6114 43.1279 13.6105 43.13 13.609C43.1322 13.6074 43.1338 13.6053 43.1346 13.6028C43.135 13.1631 43.1747 12.7243 43.2533 12.2915C43.2883 12.0779 43.3342 11.8662 43.3908 11.6571C43.4432 11.4434 43.5063 11.2325 43.5801 11.0251C43.5978 10.9728 43.5271 10.9466 43.5057 10.9865Z" fill="#737373"/>
<path d="M63.6268 9.96076C63.458 9.73819 63.2733 9.52784 63.074 9.33131C63.0614 9.3176 63.0362 9.33131 63.0475 9.3525C63.3385 9.74832 63.592 10.1697 63.8047 10.6114C63.912 10.8258 64.0168 11.0427 64.1064 11.2645C64.196 11.4864 64.278 11.7245 64.3588 11.9563C64.4534 12.2168 64.5241 12.4848 64.6011 12.7503C64.6018 12.7522 64.6031 12.7538 64.6048 12.755C64.6065 12.7562 64.6085 12.7568 64.6105 12.7568C64.6126 12.7568 64.6146 12.7562 64.6163 12.755C64.618 12.7538 64.6193 12.7522 64.62 12.7503C64.6301 11.7469 64.2288 10.7535 63.6268 9.96076Z" fill="#737373"/>
<path d="M64.1885 12.41C64.1874 12.3091 64.1806 12.2084 64.1683 12.1083C64.148 11.9031 64.1117 11.6997 64.0597 11.5001C63.943 11.1064 63.7927 10.7232 63.6105 10.3546C63.6004 10.3334 63.5638 10.3546 63.5713 10.372C63.6975 10.7522 63.7808 11.1511 63.873 11.5412C63.9184 11.7344 63.9676 11.9263 64.0181 12.1183C64.0433 12.2155 64.066 12.3152 64.0938 12.4112C64.1216 12.5072 64.1367 12.6094 64.1708 12.7029C64.1708 12.7103 64.1872 12.7116 64.1885 12.7029C64.1935 12.6053 64.1935 12.5075 64.1885 12.41Z" fill="#737373"/>
<path d="M69.7424 22.1671C69.5569 21.929 69.3765 21.6885 69.1872 21.4554C68.9962 21.2246 68.7891 21.0072 68.5675 20.8047C68.3454 20.6016 68.1208 20.4009 67.8823 20.2164C67.6438 20.032 67.3775 19.8699 67.1251 19.7016C66.9888 19.6094 66.8437 19.5296 66.7023 19.4436C66.561 19.3576 66.4057 19.2617 66.253 19.1769C66.2429 19.1707 66.2341 19.1856 66.2442 19.1931C66.4966 19.3676 66.7364 19.5433 66.9699 19.7365C67.2033 19.9297 67.4191 20.1192 67.6412 20.3136C67.8633 20.5081 68.093 20.6976 68.3126 20.8957C68.4262 20.9979 68.5372 21.1014 68.647 21.2073C68.7568 21.3133 68.8704 21.403 68.9802 21.5015C69.2326 21.7259 69.485 21.9427 69.7159 22.1846C69.7311 22.1958 69.7525 22.1796 69.7424 22.1671Z" fill="#737373"/>
<path d="M71.4776 25.4951C71.367 25.2315 71.2406 24.9747 71.099 24.7261C70.9627 24.4768 70.815 24.2275 70.6585 23.9782C70.5009 23.7429 70.3271 23.5184 70.1386 23.3064C69.9278 23.0633 69.7032 22.834 69.4861 22.5959C69.4786 22.5872 69.466 22.5959 69.4735 22.6096C69.8382 23.0446 70.1045 23.5457 70.4112 24.0231C70.5601 24.2599 70.7052 24.4992 70.8415 24.7435C70.9778 24.9878 71.0939 25.2421 71.2201 25.4914C71.3627 25.7718 71.5129 26.0498 71.6555 26.3302C71.6757 26.3689 71.7325 26.339 71.7224 26.3003C71.6603 26.0265 71.5785 25.7574 71.4776 25.4951Z" fill="#737373"/>
<path d="M71.6076 26.7652C71.5628 26.5476 71.4995 26.3341 71.4183 26.1271C71.34 25.9264 71.2492 25.7332 71.152 25.5412C71.0542 25.3379 70.9424 25.1413 70.8176 24.9529C70.8113 24.9454 70.7961 24.9529 70.7999 24.9604C70.8794 25.1611 70.9665 25.3593 71.0422 25.5612C71.1179 25.7631 71.1836 25.9713 71.2479 26.1844C71.3123 26.3975 71.3741 26.5982 71.4473 26.8076C71.5205 27.017 71.5735 27.2227 71.6454 27.4308C71.6473 27.4366 71.6513 27.4414 71.6565 27.4445C71.6617 27.4476 71.6679 27.4487 71.6739 27.4477C71.6799 27.4466 71.6853 27.4434 71.6891 27.4387C71.6929 27.434 71.6949 27.4281 71.6947 27.4221C71.6867 27.2009 71.6575 26.981 71.6076 26.7652Z" fill="#737373"/>
<path d="M47.3156 4.19092C46.9068 4.7032 46.4865 5.21175 46.113 5.74897C45.7394 6.28618 45.3861 6.84708 45.0655 7.41794C44.878 7.74389 44.7094 8.08015 44.5607 8.42507C44.559 8.42804 44.5586 8.43155 44.5596 8.43482C44.5605 8.4381 44.5628 8.44086 44.5658 8.44252C44.5688 8.44417 44.5723 8.44457 44.5756 8.44364C44.579 8.4427 44.5818 8.44051 44.5834 8.43753C44.962 7.90032 45.2977 7.33069 45.646 6.77354C45.9943 6.21638 46.3553 5.66919 46.7061 5.11453C46.903 4.80167 47.1099 4.49131 47.3232 4.19341C47.3194 4.19092 47.3169 4.18967 47.3156 4.19092Z" fill="#263238"/>
<path d="M62.1705 7.53892C61.802 6.97428 61.4436 6.40591 61.046 5.85997C60.6485 5.31403 60.2447 4.79551 59.8106 4.28821C59.8106 4.28821 59.7954 4.28821 59.7992 4.29693C60.1639 4.85658 60.5463 5.40377 60.935 5.94597C61.3237 6.48817 61.7477 7.01292 62.1503 7.55014C62.1518 7.55278 62.1543 7.55473 62.1573 7.55554C62.1602 7.55636 62.1634 7.55599 62.1661 7.5545C62.1688 7.55301 62.1707 7.55053 62.1716 7.54761C62.1724 7.54469 62.172 7.54156 62.1705 7.53892Z" fill="#263238"/>
<path d="M55.458 23.3262C54.6453 23.2676 53.9436 22.7204 53.6079 22.0885C53.4737 21.8376 53.3881 21.5641 53.3555 21.2821C53.4253 21.2577 53.4911 21.2237 53.5512 21.1811C53.7179 21.0465 53.848 20.873 53.9298 20.6763C54.0354 20.4621 54.0979 20.2297 54.114 19.992C54.1216 19.82 54.114 19.5358 53.9032 19.4548C53.6925 19.3738 53.5247 19.5657 53.4527 19.7041C53.3506 19.9133 53.2755 20.1344 53.2293 20.3622C53.1725 20.6149 53.15 20.8739 53.1625 21.1325C53.1085 21.138 53.0541 21.1355 53.0009 21.125C52.5618 21.044 52.3699 20.6414 52.3232 20.2874C52.2716 19.8725 52.2835 19.4523 52.3586 19.041C52.5109 18.1903 52.8349 17.3785 53.3114 16.654C53.3694 16.5643 53.425 16.4733 53.4881 16.3861C53.4944 16.3761 53.4767 16.3674 53.4704 16.3773C52.8911 17.1726 52.399 18.0176 52.1895 18.9525C52.0777 19.4054 52.049 19.8744 52.1049 20.3373C52.1655 20.7598 52.4027 21.201 52.9138 21.3032C53.0006 21.3212 53.0897 21.325 53.1776 21.3145C53.195 21.4653 53.2262 21.6142 53.271 21.7594C53.4065 22.1668 53.6525 22.5297 53.9823 22.8085C54.312 23.0874 54.7129 23.2716 55.1413 23.3412C55.2441 23.3558 55.3478 23.3641 55.4517 23.3661C55.4946 23.3761 55.4921 23.33 55.458 23.3262ZM53.3354 20.8757C53.3395 20.6659 53.3657 20.457 53.4136 20.2525C53.4388 20.1478 53.4691 20.0431 53.5045 19.9396C53.5313 19.8441 53.574 19.7535 53.6307 19.6717C53.6824 19.6068 53.7846 19.5096 53.8831 19.5695C53.9815 19.6293 53.9727 19.7502 53.9777 19.8325C53.9843 20.0506 53.9411 20.2674 53.8515 20.4669C53.7569 20.6875 53.5991 20.9779 53.3467 21.0901C53.3366 21.0203 53.3341 20.948 53.3354 20.8757Z" fill="#263238"/>
<path d="M54.7007 30.1268C54.1959 29.5559 52.3938 27.3048 51.9874 26.6729C51.1696 25.4028 50.4932 24.0417 49.7878 22.7179C49.3877 21.9701 48.9359 21.0776 48.5599 20.3161C48.5535 20.3048 48.5334 20.3098 48.5384 20.3223C49.1467 21.6934 49.6237 23.0208 50.2131 24.2685C50.8818 25.6371 51.7089 26.9245 52.6777 28.1051C53.2153 28.7769 54.0558 29.5397 54.6742 30.1517C54.6818 30.1579 54.712 30.1405 54.7007 30.1268Z" fill="#263238"/>
<path d="M54.2439 33.3401C54.2351 32.5299 54.1934 31.7197 54.148 30.912C54.1228 30.4521 54.0912 29.9909 54.0736 29.531C54.0736 29.5267 54.0718 29.5226 54.0687 29.5195C54.0657 29.5165 54.0615 29.5148 54.0571 29.5148C54.0528 29.5148 54.0486 29.5165 54.0455 29.5195C54.0425 29.5226 54.0407 29.5267 54.0407 29.531C54.0407 30.3412 54.0168 31.1513 54.0117 31.9628C54.0067 32.7742 54.0281 33.5831 54.066 34.3908C54.0887 34.8533 54.1303 35.3132 54.1682 35.7731C54.1692 35.7768 54.1715 35.7801 54.1745 35.7824C54.1776 35.7847 54.1814 35.786 54.1852 35.786C54.1891 35.786 54.1929 35.7847 54.196 35.7824C54.199 35.7801 54.2013 35.7768 54.2023 35.7731C54.2174 35.368 54.2414 34.963 54.2452 34.5566C54.249 34.1503 54.2477 33.7452 54.2439 33.3401Z" fill="#263238"/>
<path d="M56.4939 34.7336C56.4939 34.336 56.4876 33.9384 56.4725 33.5408C56.4438 32.7456 56.4047 31.9508 56.3551 31.1564C56.3273 30.7039 56.2895 30.2502 56.2604 29.7978C56.2604 29.7911 56.2578 29.7848 56.253 29.7801C56.2483 29.7755 56.2419 29.7728 56.2352 29.7728C56.2285 29.7728 56.2221 29.7755 56.2174 29.7801C56.2126 29.7848 56.21 29.7911 56.21 29.7978C56.2188 30.593 56.21 31.3882 56.2339 32.1834C56.2579 32.9787 56.2882 33.7739 56.3399 34.5679C56.3538 34.7922 56.369 35.0153 56.3879 35.2385C56.3967 35.3456 56.4068 35.4516 56.4157 35.5575C56.4245 35.6635 56.4434 35.7732 56.4497 35.8816C56.4505 35.8838 56.452 35.8857 56.4539 35.8871C56.4558 35.8884 56.4581 35.8891 56.4605 35.8891C56.4628 35.8891 56.4651 35.8884 56.467 35.8871C56.469 35.8857 56.4704 35.8838 56.4712 35.8816C56.4895 35.7002 56.4971 35.5179 56.4939 35.3357C56.4964 35.1375 56.4952 34.9356 56.4939 34.7336Z" fill="#263238"/>
<path d="M63.0109 28.833C63.1034 28.1533 63.2006 27.4752 63.3024 26.7988C63.3024 26.7942 63.3005 26.7898 63.2972 26.7865C63.2939 26.7832 63.2894 26.7814 63.2847 26.7814C63.2801 26.7814 63.2756 26.7832 63.2723 26.7865C63.2689 26.7898 63.2671 26.7942 63.2671 26.7988C63.1628 27.3913 63.0538 27.9825 62.9402 28.5725C62.8279 29.1583 62.7358 29.7479 62.6134 30.3325C62.4763 30.9095 62.2779 31.4706 62.0215 32.0064C61.7779 32.5524 61.5356 33.0996 61.3034 33.6517C61.1772 33.9621 61.0409 34.275 60.9135 34.5841C60.8491 34.7399 60.7873 34.8944 60.7216 35.0515C60.656 35.2085 60.6043 35.3805 60.5424 35.5438C60.5404 35.5481 60.5402 35.553 60.5419 35.5575C60.5435 35.5619 60.5469 35.5655 60.5513 35.5675C60.5556 35.5695 60.5606 35.5697 60.5651 35.5681C60.5696 35.5664 60.5732 35.5631 60.5752 35.5588C60.6459 35.4229 60.7242 35.2945 60.7923 35.1574C60.8605 35.0203 60.9261 34.8857 60.9904 34.7486C61.1166 34.4744 61.2529 34.2014 61.3817 33.9272C61.6404 33.3788 61.8865 32.8278 62.1389 32.2757C62.2651 32.0077 62.3774 31.7385 62.4809 31.463C62.5785 31.1868 62.6573 30.9045 62.7168 30.6179C62.8557 30.0271 62.9339 29.4263 63.0109 28.833Z" fill="#263238"/>
<path d="M53.8641 36.5722C53.5196 36.8775 52.5693 37.7837 52.1642 37.9183C51.7591 38.0529 51.0284 37.9096 51.0284 37.9096C50.2371 38.3147 49.2515 37.6865 49.2515 37.6865C48.9184 37.6603 48.3429 37.0321 48.3479 36.9723C48.3697 36.7289 48.4289 36.4901 48.5234 36.2643C48.6495 36.0038 49.6213 35.2198 49.6289 35.1288C50.2182 34.9954 50.8076 34.9368 51.9181 35.302C51.5227 35.0425 51.0563 34.909 50.5817 34.9194C50.5817 34.9194 52.7901 34.7573 54.0976 35.6672C54.0925 35.666 54.2061 36.268 53.8641 36.5722Z" fill="#FDFDFD"/>
<path d="M50.1109 35.7906C49.9494 35.8938 49.7985 36.0124 49.6604 36.1446C49.5216 36.2659 49.4058 36.4107 49.3184 36.5722C49.2388 36.7273 49.1924 36.897 49.1821 37.0707C49.1828 37.2756 49.2209 37.4787 49.2944 37.6703C49.2944 37.679 49.3134 37.6777 49.3121 37.6703C49.2856 37.4768 49.2831 37.281 49.3045 37.0869C49.3339 36.9266 49.3943 36.7734 49.4825 36.6357C49.5698 36.4901 49.6694 36.3521 49.7803 36.2232C49.8964 36.0885 50.0327 35.9739 50.1438 35.8343C50.1627 35.8093 50.1387 35.7744 50.1109 35.7906Z" fill="#263238"/>
<path d="M51.9358 36.0025C51.6283 36.2216 51.3683 36.4992 51.171 36.819C51.0804 36.9832 51.0263 37.1647 51.0124 37.3513C50.9985 37.5379 51.025 37.7252 51.0902 37.9009C51.091 37.9028 51.0922 37.9044 51.0939 37.9056C51.0956 37.9067 51.0976 37.9074 51.0997 37.9074C51.1018 37.9074 51.1038 37.9067 51.1055 37.9056C51.1072 37.9044 51.1085 37.9028 51.1092 37.9009C51.1054 37.7178 51.1206 37.5349 51.1546 37.3549C51.1975 37.1914 51.2584 37.0329 51.3363 36.8825C51.4123 36.7246 51.5023 36.5736 51.6051 36.4313C51.7137 36.2892 51.8285 36.1521 51.9459 36.0175C51.9509 36.0088 51.9434 35.9963 51.9358 36.0025Z" fill="#263238"/>
<path d="M61.8864 37.0669C61.67 37.2343 61.4292 37.3683 61.1721 37.4645C61.1721 37.4645 60.8478 38.1152 60.3872 38.1875C59.9266 38.2598 59.2514 38.0628 59.2514 38.0628C59.2514 38.0628 58.6065 38.3445 58.233 38.2722C57.8594 38.1999 56.9054 37.5244 56.7615 37.2152C56.6176 36.9061 56.47 35.8442 56.47 35.8442C57.0265 35.5051 58.3112 35.044 59.7903 35.2571C59.7903 35.2571 58.9498 35.2122 58.3011 35.459C58.3011 35.459 59.553 35.3568 60.5992 35.5587L60.8226 35.6061H60.8289C60.9665 35.6481 61.098 35.7076 61.2201 35.7831C61.5583 35.9912 62.1275 36.8451 61.8864 37.0669Z" fill="#FDFDFD"/>
<path d="M59.7197 37.032C59.6491 36.6768 59.2503 36.5235 58.9499 36.4088C58.9386 36.4088 58.9297 36.4188 58.9411 36.425C59.2086 36.5659 59.5203 36.7566 59.5405 37.0919C59.5377 37.2573 59.5013 37.4205 59.4332 37.5717C59.3765 37.7288 59.307 37.8821 59.2553 38.0404C59.2553 38.0516 59.2667 38.0579 59.2742 38.0504C59.4117 37.9203 59.5234 37.766 59.6036 37.5954C59.704 37.4254 59.7448 37.2273 59.7197 37.032Z" fill="#263238"/>
<path d="M61.2718 36.4562C61.0635 36.1808 60.6736 36.0823 60.353 36.0212C60.351 36.0212 60.3491 36.022 60.3477 36.0234C60.3463 36.0248 60.3455 36.0267 60.3455 36.0287C60.3455 36.0307 60.3463 36.0326 60.3477 36.034C60.3491 36.0354 60.351 36.0362 60.353 36.0362C60.6496 36.1446 60.9537 36.2506 61.1102 36.5422C61.2579 36.8127 61.2289 37.1655 61.1632 37.4559C61.1621 37.459 61.1622 37.4625 61.1636 37.4655C61.165 37.4686 61.1676 37.4709 61.1708 37.4721C61.174 37.4732 61.1775 37.4731 61.1806 37.4717C61.1837 37.4703 61.186 37.4678 61.1872 37.4646C61.3702 37.1729 61.4964 36.7591 61.2718 36.4562Z" fill="#263238"/>
<path opacity="0.1" d="M49.4534 16.3275C49.4534 16.3275 52.0177 16.9857 53.4286 16.9508C54.8395 16.9159 57.2323 16.0782 57.2323 16.0782C57.2323 16.0782 54.9746 22.2656 53.652 22.5435C52.3294 22.8215 49.4534 16.3275 49.4534 16.3275Z" fill="black"/>
<path d="M56.3929 15.4488C56.2756 15.5336 56.1519 15.6084 56.0345 15.6981C55.9172 15.7879 55.8036 15.8701 55.6862 15.9549C55.4528 16.1232 55.2142 16.2852 54.9682 16.4373C54.4772 16.7439 53.9775 17.0368 53.4815 17.336C53.474 17.336 53.4752 17.3571 53.4815 17.3534C54.3649 17.1041 55.1612 16.6305 55.897 16.0895C55.9992 16.0147 56.0989 15.9387 56.1961 15.8577C56.2932 15.7767 56.3929 15.672 56.4901 15.5785C56.5053 15.565 56.5148 15.5464 56.5168 15.5264C56.5189 15.5063 56.5133 15.4863 56.5011 15.4701C56.489 15.4539 56.4712 15.4427 56.4512 15.4388C56.4312 15.4349 56.4104 15.4385 56.3929 15.4488Z" fill="#737373"/>
<path d="M57.1716 14.6996C56.8334 15.0075 56.5406 15.359 56.2302 15.688C56.0737 15.8526 55.9109 16.0121 55.7456 16.1679C55.5803 16.3237 55.4162 16.4895 55.2408 16.6366C55.0401 16.8061 54.8281 16.9557 54.6174 17.1115C54.6098 17.1177 54.6174 17.1326 54.6174 17.1289C54.8283 17.041 55.0306 16.9342 55.2219 16.8098C55.4208 16.686 55.6125 16.5512 55.7961 16.406C56.1569 16.1063 56.4909 15.7764 56.7943 15.42C56.9729 15.2218 57.135 15.0097 57.2789 14.7856C57.3319 14.7158 57.2297 14.6435 57.1716 14.6996Z" fill="#737373"/>
<path d="M53.3189 17.2412C53.209 17.2075 53.1019 17.1658 52.9983 17.1165C52.8986 17.0754 52.8002 17.028 52.703 16.9806C52.5023 16.8834 52.3004 16.7924 52.101 16.6915C51.6974 16.4998 51.3099 16.2764 50.9425 16.0234C50.916 16.0034 50.8794 16.0371 50.9059 16.062C51.2223 16.3907 51.5889 16.6683 51.9925 16.8847C52.1937 16.9888 52.4051 17.0724 52.6235 17.134C52.7346 17.1626 52.8456 17.1838 52.9567 17.2063C53.0677 17.2287 53.1939 17.2337 53.3088 17.2598C53.3113 17.2612 53.3142 17.2615 53.3169 17.2606C53.3197 17.2598 53.3219 17.258 53.3233 17.2555C53.3246 17.253 53.3249 17.2501 53.3241 17.2474C53.3232 17.2447 53.3214 17.2425 53.3189 17.2412Z" fill="#737373"/>
<path d="M52.4695 17.2386C51.9899 17.0268 51.5293 16.7924 51.0699 16.5406C50.8453 16.416 50.6207 16.2914 50.3985 16.1667C50.1632 16.0417 49.9455 15.8867 49.7511 15.7055C49.7347 15.6893 49.7095 15.7118 49.7209 15.7305C49.8731 15.9452 50.0659 16.1289 50.2888 16.2714C50.4992 16.4301 50.721 16.5734 50.9526 16.7002C51.4289 16.9544 51.9385 17.1423 52.4669 17.2586C52.472 17.2611 52.4796 17.2424 52.4695 17.2386Z" fill="#737373"/>
<path d="M49.5594 5.93223C48.2823 5.93223 47.6387 6.90071 47.6387 8.03248C47.6387 8.94861 48.3959 9.88468 49.6238 9.88468C50.8517 9.88468 51.6089 8.78533 51.6089 7.92404C51.6086 7.65982 51.5551 7.39829 51.4516 7.15465C51.3481 6.91101 51.1966 6.69011 51.0059 6.50479C50.8152 6.31947 50.5892 6.17342 50.3408 6.07513C50.0925 5.97684 49.8269 5.92827 49.5594 5.93223Z" fill="#263238"/>
<path d="M49.6831 6.16776C48.4817 6.16776 47.8772 7.07766 47.8772 8.14087C47.8772 9.00216 48.5902 9.88589 49.7424 9.88589C50.8946 9.88589 51.6089 8.85259 51.6089 8.04365C51.6098 7.79485 51.5604 7.54838 51.4636 7.31868C51.3668 7.08898 51.2245 6.88067 51.0452 6.70596C50.8658 6.53126 50.653 6.39366 50.4191 6.30125C50.1852 6.20883 49.935 6.16345 49.6831 6.16776Z" fill="#FDFDFD"/>
<path d="M49.6957 6.57284C48.7555 6.57284 48.2822 7.28581 48.2822 8.11843C48.2861 8.303 48.3271 8.48497 48.4029 8.65374C48.4787 8.82251 48.5877 8.97471 48.7235 9.10149C48.8594 9.22827 49.0195 9.3271 49.1944 9.39221C49.3693 9.45733 49.5556 9.48743 49.7423 9.48078C50.6447 9.48078 51.2037 8.67184 51.2037 8.03865C51.2039 7.8441 51.1649 7.65146 51.0889 7.47199C51.0128 7.29251 50.9014 7.12979 50.761 6.99333C50.6206 6.85687 50.4541 6.7494 50.2712 6.67721C50.0882 6.60501 49.8926 6.56953 49.6957 6.57284Z" fill="#263238"/>
<path d="M50.1311 6.58786C49.7046 6.58786 49.4888 6.91194 49.4888 7.28961C49.4901 7.37384 49.5084 7.45697 49.5426 7.53413C49.5768 7.61129 49.6263 7.68093 49.6881 7.73897C49.7499 7.79701 49.8228 7.84228 49.9026 7.87213C49.9824 7.90199 50.0673 7.91582 50.1526 7.91283C50.327 7.9081 50.4929 7.83746 50.6162 7.71549C50.7395 7.59351 50.8107 7.42948 50.8151 7.2572C50.8158 7.16859 50.7985 7.08073 50.7643 6.99881C50.7301 6.91689 50.6797 6.84255 50.6159 6.78018C50.5522 6.71781 50.4765 6.66866 50.3932 6.63564C50.3099 6.60261 50.2208 6.58636 50.1311 6.58786Z" fill="#FDFDFD"/>
<path d="M57.9037 5.93221C59.1821 5.93221 59.8244 6.9007 59.8244 8.03246C59.8244 8.94859 59.0672 9.88467 57.8406 9.88467C56.6139 9.88467 55.8555 8.78531 55.8555 7.92402C55.8558 7.6599 55.9092 7.39848 56.0126 7.15492C56.1161 6.91136 56.2674 6.69052 56.458 6.50522C56.6485 6.31992 56.8745 6.17385 57.1226 6.07548C57.3708 5.97711 57.6363 5.92842 57.9037 5.93221Z" fill="#263238"/>
<path d="M57.7813 6.16776C58.9827 6.16776 59.5859 7.07766 59.5859 8.14087C59.5859 9.00216 58.8741 9.88589 57.7207 9.88589C56.5672 9.88589 55.8555 8.85134 55.8555 8.03742C55.8554 7.78914 55.9055 7.54334 56.0026 7.31437C56.0998 7.08539 56.2422 6.87782 56.4215 6.70378C56.6007 6.52974 56.8133 6.3927 57.0468 6.30067C57.2802 6.20864 57.5299 6.16346 57.7813 6.16776Z" fill="#FDFDFD"/>
<path d="M57.7686 6.57284C58.7088 6.57284 59.1808 7.28581 59.1808 8.11843C59.1769 8.303 59.1358 8.48497 59.0601 8.65374C58.9843 8.82251 58.8753 8.97471 58.7394 9.10149C58.6036 9.22827 58.4435 9.3271 58.2686 9.39221C58.0937 9.45733 57.9074 9.48743 57.7206 9.48078C56.8183 9.48078 56.2605 8.67184 56.2605 8.03865C56.2603 7.8441 56.2994 7.65146 56.3754 7.47199C56.4514 7.29251 56.5629 7.12979 56.7033 6.99333C56.8436 6.85687 57.0102 6.7494 57.1931 6.67721C57.376 6.60501 57.5716 6.56953 57.7686 6.57284Z" fill="#263238"/>
<path d="M58.2746 6.58789C57.8481 6.58789 57.6335 6.91196 57.6335 7.28963C57.6348 7.37375 57.6531 7.45678 57.6872 7.53385C57.7214 7.61093 57.7707 7.68051 57.8324 7.73853C57.8941 7.79656 57.9669 7.84185 58.0465 7.87178C58.1261 7.90171 58.211 7.91567 58.2961 7.91285C58.4706 7.90813 58.6367 7.83754 58.7602 7.7156C58.8836 7.59365 58.9551 7.42962 58.9599 7.25722C58.9606 7.1685 58.9433 7.08054 58.909 6.99854C58.8747 6.91653 58.8241 6.84214 58.7602 6.77975C58.6964 6.71736 58.6205 6.66824 58.5371 6.63529C58.4537 6.60234 58.3644 6.58622 58.2746 6.58789Z" fill="#FDFDFD"/>
<path d="M54.6527 8.5709C54.635 8.69554 53.8349 9.13678 53.7428 9.13678C53.6506 9.13678 52.8518 8.69056 52.8329 8.5709C52.8139 8.45124 53.5547 8.40637 53.7428 8.40637C53.9308 8.40637 54.6716 8.45124 54.6527 8.5709Z" fill="#263238"/>
<path d="M51.6531 9.57058C51.8083 9.75357 51.9793 9.92289 52.1642 10.0766C52.2541 10.1505 52.3514 10.2152 52.4544 10.2698C52.5475 10.3216 52.6531 10.3475 52.7598 10.3446C52.8653 10.3298 52.9668 10.2946 53.0584 10.2409C53.15 10.1872 53.23 10.1161 53.2937 10.0318C53.4355 9.85559 53.5472 9.65771 53.6243 9.44593L53.7505 9.11438L53.8691 9.44593C53.9439 9.65429 54.0476 9.85143 54.177 10.0318C54.3032 10.2063 54.4824 10.3533 54.6818 10.3384C54.906 10.3004 55.1152 10.2021 55.2863 10.0542C55.4775 9.90879 55.6553 9.74696 55.8176 9.57058C55.6916 9.77758 55.5403 9.96847 55.3671 10.139C55.2793 10.2269 55.182 10.3051 55.0768 10.372C54.9673 10.4458 54.8429 10.4951 54.7121 10.5166C54.5704 10.536 54.4261 10.5084 54.302 10.4381C54.1872 10.3699 54.0855 10.2821 54.0016 10.1788C53.9195 10.0818 53.8481 9.97656 53.7884 9.86474C53.7279 9.75416 53.6752 9.63963 53.6306 9.52197H53.8691C53.8236 9.6415 53.7679 9.757 53.7025 9.86723C53.639 9.97884 53.5627 10.083 53.4754 10.1776C53.3858 10.2773 53.28 10.3615 53.1624 10.4269C53.0405 10.491 52.9043 10.524 52.7661 10.5229C52.6306 10.5173 52.4994 10.4741 52.3876 10.3982C52.2815 10.3296 52.1841 10.2489 52.0973 10.1576C51.9249 9.98113 51.7756 9.78389 51.6531 9.57058Z" fill="#263238"/>
<path d="M47.568 9.38605C46.6719 9.1617 45.7684 8.97224 44.8597 8.80521C43.9511 8.63819 43.0412 8.48862 42.125 8.37644C41.8962 8.34403 41.6673 8.31536 41.4385 8.29043C41.2088 8.26426 40.9804 8.23434 40.7507 8.21191C40.2913 8.16953 39.832 8.12466 39.3713 8.08726C38.4501 8.00874 37.5276 7.98132 36.6025 7.95016L37.2966 7.94019C37.5276 7.94019 37.7598 7.94019 37.9907 7.94019L38.6836 7.95764C38.9158 7.95764 39.1467 7.98007 39.3777 7.99129C40.3014 8.03865 41.2227 8.13338 42.1414 8.24806C43.0601 8.36273 43.9726 8.52103 44.8787 8.70674C45.3313 8.80064 45.7827 8.90202 46.2328 9.01088C46.6795 9.13053 47.1275 9.24645 47.568 9.38605Z" fill="#263238"/>
<path d="M47.1098 9.85109C46.6959 9.79874 46.2832 9.74888 45.868 9.70775C45.4528 9.66662 45.0402 9.62299 44.625 9.5831C43.7958 9.51081 42.9654 9.44974 42.1338 9.41359C41.7186 9.38741 41.3021 9.37495 40.8869 9.35999C40.4718 9.34504 40.054 9.34005 39.6388 9.3388H39.0142L38.3832 9.34878C37.9667 9.34878 37.5515 9.37495 37.1338 9.37994C37.9642 9.30515 38.7971 9.25529 39.6313 9.24657C40.4654 9.23784 41.3009 9.25405 42.1338 9.29269C42.9667 9.33133 43.7996 9.39863 44.6287 9.49087C45.4579 9.58311 46.2933 9.69528 47.1098 9.85109Z" fill="#263238"/>
<path d="M47.2638 10.397C46.9168 10.397 46.5697 10.397 46.2227 10.397C45.8757 10.397 45.5286 10.4057 45.1816 10.4169C44.4875 10.4369 43.7934 10.4593 43.1018 10.5042C42.4102 10.5491 41.7136 10.5902 41.0258 10.65C40.3381 10.7099 39.6452 10.7747 38.9524 10.8457C39.2957 10.7867 39.6389 10.7323 39.9822 10.6824C40.3267 10.6376 40.6712 10.5914 41.017 10.5578C41.7073 10.478 42.4052 10.4331 43.0955 10.3833C43.7858 10.3334 44.4837 10.3247 45.1803 10.3247C45.8769 10.3247 46.571 10.3384 47.2638 10.397Z" fill="#263238"/>
<path d="M60.2004 9.38615C60.6409 9.24655 61.0838 9.13686 61.5356 9.01222C61.9874 8.88758 62.4367 8.80157 62.8897 8.70809C63.7958 8.52237 64.7095 8.3728 65.627 8.2494C66.5445 8.126 67.4657 8.04 68.3907 7.99263C68.6217 7.98141 68.8526 7.96521 69.0836 7.95898L69.7777 7.94153C70.0086 7.94153 70.2408 7.94153 70.4718 7.94153L71.1646 7.9515C70.2408 7.98266 69.317 8.01008 68.397 8.08861C67.9364 8.12102 67.4771 8.16589 67.0177 8.21325C66.788 8.23569 66.5596 8.2656 66.3299 8.29178C66.1002 8.31795 65.8718 8.34537 65.6434 8.37778C64.7272 8.48996 63.816 8.64078 62.9087 8.80656C62.0013 8.97233 61.0965 9.1593 60.2004 9.38615Z" fill="#263238"/>
<path d="M60.656 9.85099C61.475 9.69518 62.2966 9.58425 63.1308 9.49201C63.9649 9.39977 64.7928 9.33995 65.6257 9.29383C66.4586 9.24771 67.2928 9.23525 68.127 9.24771C68.9612 9.26017 69.7953 9.30629 70.6257 9.38108C70.208 9.38108 69.7928 9.34742 69.3764 9.34992L68.7517 9.33995H68.127C67.7105 9.33995 67.2953 9.35366 66.8789 9.36113C66.4624 9.36861 66.0472 9.38856 65.632 9.41473C64.8004 9.45088 63.97 9.51195 63.1409 9.58425C62.7261 9.61915 62.3117 9.6607 61.8978 9.70889C61.4826 9.74878 61.0699 9.79864 60.656 9.85099Z" fill="#263238"/>
<path d="M60.5046 10.397C61.1975 10.3384 61.8928 10.3234 62.5882 10.3222C63.2835 10.3209 63.9764 10.3459 64.673 10.3808C65.3696 10.4157 66.0612 10.4755 66.7515 10.5553C67.0973 10.5927 67.4418 10.6388 67.7863 10.6799C68.1308 10.721 68.4728 10.7846 68.8148 10.8432C68.1233 10.7759 67.4342 10.7024 66.7414 10.6475C66.0486 10.5927 65.3532 10.5378 64.6654 10.5017C63.9776 10.4655 63.2772 10.4344 62.5869 10.4144C62.2399 10.4032 61.8928 10.3982 61.5458 10.3945C61.1987 10.3907 60.8517 10.3945 60.5046 10.397Z" fill="#263238"/>
<path d="M75.714 30.765C75.5822 30.4412 75.4083 30.1358 75.1966 29.8563C75.189 29.8464 75.1739 29.8563 75.1802 29.8651C75.3454 30.1252 75.4688 30.409 75.5462 30.7064C75.6173 30.9996 75.667 31.2974 75.6951 31.5976C75.7399 32.064 75.7153 32.5343 75.6219 32.9936C75.5891 33.1532 75.5424 33.309 75.5071 33.4685C75.4279 33.8258 75.319 34.176 75.1815 34.5155C75.1625 34.5616 75.2383 34.5916 75.261 34.5492C75.4302 34.2557 75.5746 33.9488 75.6926 33.6318C75.8016 33.313 75.8765 32.9838 75.916 32.6496C76.0154 32.0147 75.9458 31.3652 75.714 30.765Z" fill="#737373"/>
<path d="M75.5765 31.4842C75.5765 31.4819 75.5756 31.4797 75.5739 31.478C75.5723 31.4764 75.57 31.4755 75.5677 31.4755C75.5654 31.4755 75.5631 31.4764 75.5614 31.478C75.5598 31.4797 75.5589 31.4819 75.5589 31.4842C75.5577 31.7777 75.5242 32.0703 75.4592 32.3567C75.3999 32.6409 75.333 32.9251 75.2572 33.2055C75.1822 33.4876 75.0873 33.7641 74.9733 34.0332C74.9178 34.164 74.8572 34.2924 74.7928 34.4195C74.7285 34.5467 74.6666 34.6888 74.596 34.8184C74.5253 34.948 74.4319 35.1038 74.3436 35.2459C74.2552 35.388 74.1606 35.5189 74.0672 35.6535C74.0495 35.6797 74.0886 35.7084 74.1114 35.6872C74.326 35.4792 74.5204 35.2518 74.6919 35.0079C74.8678 34.7633 75.0183 34.5019 75.1411 34.2276C75.4006 33.6806 75.5563 33.0913 75.6005 32.4888C75.6207 32.156 75.5955 31.8207 75.5765 31.4842Z" fill="#737373"/>
<path d="M72.9163 29.0686C72.6563 29.5846 72.1339 29.9199 71.5836 30.0657C70.8895 30.2589 70.1601 30.1592 69.4597 30.0495C68.7164 29.9323 67.9706 29.8301 67.2247 29.7354C66.513 29.6457 65.7999 29.5572 65.0793 29.5061C63.6912 29.4063 62.2373 29.4537 60.9211 29.9635C60.3124 30.1863 59.7719 30.5597 59.3512 31.0479C58.9712 31.4999 58.7199 32.0437 58.623 32.6234C58.5359 33.1742 58.6082 33.7382 58.8315 34.2502C59.0548 34.7623 59.42 35.2016 59.885 35.5176C60.0001 35.5944 60.1207 35.6627 60.2459 35.722C60.2483 35.7224 60.2506 35.722 60.2528 35.721C60.2549 35.72 60.2566 35.7183 60.2577 35.7162C60.2588 35.7142 60.2593 35.7118 60.259 35.7095C60.2586 35.7072 60.2576 35.7051 60.256 35.7033C59.331 35.034 58.6571 34.0007 58.7871 32.8889C58.8592 32.3198 59.0874 31.7811 59.4471 31.3308C59.8318 30.8553 60.3361 30.4878 60.9097 30.2651C62.1881 29.7404 63.6053 29.6831 64.9696 29.7666C66.4107 29.86 67.8418 30.0919 69.2742 30.2651C69.9784 30.3511 70.7116 30.4259 71.4095 30.2651C71.9468 30.1542 72.4268 29.8582 72.7636 29.43C72.8403 29.3225 72.9042 29.2067 72.9542 29.0848C72.9579 29.0648 72.9277 29.0461 72.9163 29.0686Z" fill="#263238"/>
<path d="M71.2139 26.7888C71.2139 26.7888 71.3085 28.5737 71.3149 28.7981C71.3149 28.7981 72.1705 29.4936 71.9774 29.8426C71.8298 30.1081 71.2038 30.5044 67.4494 29.9211C63.695 29.3378 59.0559 29.5945 58.7821 32.6732C58.5082 35.752 61.8992 37.1667 67.0405 36.9872C72.1818 36.8077 75.6397 34.9929 75.7306 31.797C75.7974 29.43 73.3757 27.2326 71.2139 26.7888Z" fill="#737373"/>
<path d="M47.9933 61.9983C47.0654 62.0211 46.1471 61.8088 45.3259 61.3818L2.84503 37.1541C2.08916 36.7235 1.67383 36.1095 1.67383 35.4267C1.67383 34.6292 2.24911 33.8445 3.25522 33.2712L28.8232 18.6923C30.6419 17.6553 33.3068 17.5509 34.8933 18.4579L77.3767 42.683C78.1326 43.1136 78.5479 43.7251 78.5479 44.4104C78.5479 45.2079 77.9726 45.9927 76.9665 46.5659L51.3986 61.1448C50.356 61.712 49.1836 62.0059 47.9933 61.9983ZM3.2191 36.5248L45.7025 60.7499C47.0594 61.5142 49.4535 61.4174 51.0349 60.5155L76.6028 45.9366C77.3767 45.4958 77.8127 44.9404 77.8127 44.4079C77.8127 43.8754 77.3767 43.5212 77.0104 43.3123L34.5244 19.0923C33.1675 18.328 30.776 18.4248 29.1921 19.3267L3.62412 33.9056C2.8502 34.3438 2.41422 34.8993 2.41422 35.4343C2.41422 35.9694 2.8502 36.321 3.21394 36.5299L3.2191 36.5248Z" fill="#414142"/>
<path d="M3.03074 35.2075L45.5116 59.4326C46.9743 60.2657 49.5257 60.1613 51.2128 59.1982L76.7808 44.6193C78.4705 43.6562 78.6536 42.2014 77.1909 41.3683L34.7101 17.1432C33.2474 16.31 30.696 16.4145 29.0063 17.3776L3.43835 31.9565C1.75119 32.9195 1.56802 34.3744 3.03074 35.2075Z" fill="#91B3FA"/>
<path d="M47.9933 60.3652C47.0654 60.388 46.1471 60.1757 45.3259 59.7486L2.84503 35.5235C2.08916 35.0929 1.67383 34.4789 1.67383 33.7961C1.67383 32.9986 2.24911 32.2139 3.25522 31.6406L28.8232 17.0617C30.6419 16.0247 33.3068 15.9228 34.8933 16.8299L77.3767 41.0524C78.1326 41.483 78.5479 42.097 78.5479 42.7798C78.5479 43.5773 77.9726 44.3621 76.9665 44.9353L51.3986 59.5142C50.3558 60.0805 49.1834 60.3735 47.9933 60.3652ZM3.2191 34.8917L45.6973 59.1167C47.0543 59.8811 49.4483 59.7843 51.0297 58.8823L76.5976 44.3035C77.3716 43.8652 77.8075 43.3098 77.8075 42.7747C77.8075 42.2397 77.3716 41.8881 77.0052 41.6792L34.5244 17.4617C33.1675 16.6974 30.776 16.7917 29.1921 17.6936L3.62412 32.2725C2.8502 32.7132 2.41422 33.2661 2.41422 33.8012C2.41422 34.3362 2.8502 34.6878 3.21394 34.8968L3.2191 34.8917Z" fill="#414142"/>
<path d="M3.03074 33.5872L45.5116 57.8097C46.9743 58.6428 49.5257 58.5384 51.2128 57.5753L76.7808 42.9964C78.4705 42.0359 78.6536 40.5785 77.1909 39.7454L34.7101 15.5254C33.2474 14.6922 30.696 14.7967 29.0063 15.7572L3.43835 30.3386C1.75119 31.2941 1.56802 32.7566 3.03074 33.5872Z" fill="#91B3FA"/>
<path d="M47.9933 58.7447C47.0654 58.7675 46.1471 58.5552 45.3259 58.1281L2.84503 33.9056C2.08916 33.475 1.67383 32.861 1.67383 32.1756C1.67383 31.3807 2.24911 30.5934 3.25522 30.0227L28.8232 15.4438C30.629 14.4043 33.3068 14.3024 34.8933 15.2094L77.3767 39.4319C78.1326 39.8625 78.5479 40.4765 78.5479 41.1619C78.5479 41.9568 77.9726 42.7441 76.9665 43.3149L51.3986 57.8937C50.3558 58.46 49.1834 58.753 47.9933 58.7447ZM3.2191 33.2737L45.7025 57.4963C47.0594 58.2606 49.4535 58.1638 51.0349 57.2619L76.6028 42.683C77.3767 42.2448 77.8127 41.6893 77.8127 41.1543C77.8127 40.6192 77.3767 40.2651 77.0104 40.0561L34.5244 15.8413C33.1675 15.0769 30.776 15.1737 29.1921 16.0757L3.62412 30.6545C2.8502 31.0928 2.41422 31.6482 2.41422 32.1832C2.41422 32.7183 2.8502 33.0725 3.21394 33.2814L3.2191 33.2737Z" fill="#414142"/>
<path d="M48.2178 61.6875C49.2663 61.665 50.2941 61.395 51.2154 60.9002L76.7834 46.3265C78.1016 45.5621 78.2642 44.1328 77.9082 43.6334C78.0807 43.3966 78.1736 43.1123 78.1736 42.8206C78.1736 42.5289 78.0807 42.2446 77.9082 42.0078C78.4241 41.2078 78.1945 40.3364 77.1858 39.7606L68.3192 34.7031H48.2178V61.6875Z" fill="#414142"/>
<path d="M3.03074 31.9564L45.5116 56.179C46.9743 57.0147 49.5257 56.9076 51.2128 55.9471L76.7808 41.3682C78.4705 40.4051 78.6536 38.9503 77.1909 38.1146L34.7101 13.8921C33.2474 13.0589 30.696 13.1634 29.0063 14.1265L3.43835 28.7054C1.75119 29.6684 1.56802 31.1233 3.03074 31.9564Z" fill="#91B3FA"/>
<path d="M33.4021 16.6489L7.78516 31.2584C6.40757 32.0456 6.03092 33.1616 6.73262 33.9999L41.3813 53.756C42.8672 54.4719 45.2509 54.3445 46.871 53.4248L72.439 38.8459C73.912 38.0076 74.2448 36.7923 73.3264 35.9413L38.9125 16.3228C37.424 15.5992 35.0248 15.7266 33.4021 16.6489Z" fill="#FDFDFD"/>
<path d="M47.9933 57.1141C47.0651 57.1369 46.1466 56.9237 45.3259 56.495L2.84503 32.2725C2.08916 31.8419 1.67383 31.2279 1.67383 30.545C1.67383 29.7475 2.24911 28.9628 3.25522 28.3895L28.8232 13.8107C30.629 12.7737 33.3068 12.6718 34.8933 13.5763L77.3767 37.7988C78.1326 38.2294 78.5479 38.8434 78.5479 39.5288C78.5479 40.3237 77.9726 41.111 76.9665 41.6843L51.3986 56.2632C50.3558 56.8295 49.1834 57.1224 47.9933 57.1141ZM3.2191 31.6406L45.7025 55.8631C47.0594 56.6275 49.4535 56.5332 51.0349 55.6313L76.6028 41.0524C77.3767 40.6116 77.8127 40.0562 77.8127 39.5237C77.8127 38.9912 77.3767 38.637 77.0104 38.4256L34.5244 14.2081C33.1675 13.4438 30.776 13.538 29.1921 14.4425L3.62412 29.0214C2.8502 29.4596 2.41422 30.0151 2.41422 30.5501C2.41422 31.0852 2.8502 31.4368 3.21394 31.6457L3.2191 31.6406Z" fill="#414142"/>
<path d="M69.2159 36.6157L43.2327 51.364L43.6016 51.998L69.5848 37.2497L69.2159 36.6157Z" fill="#414142"/>
<path d="M44.3576 19.1042L12.5322 37.1686L12.9011 37.8025L44.7265 19.7382L44.3576 19.1042Z" fill="#414142"/>
<path d="M37.521 18.5976L11.6643 33.3593L12.0335 33.9901L37.8903 19.2285L37.521 18.5976Z" fill="#414142"/>
<path d="M48.7106 58.6198L48.6538 58.0593C49.5015 57.9855 50.3245 57.7391 51.071 57.3357L76.639 42.7594C77.0499 42.5417 77.4033 42.2319 77.6709 41.8549L78.1507 42.1555C77.8373 42.6113 77.4169 42.9854 76.9254 43.246L51.3548 57.8249C50.5398 58.2705 49.6388 58.5414 48.7106 58.6198Z" fill="#91B3FA"/>
<path d="M48.7106 60.2735L48.6538 59.7155C49.5019 59.6421 50.3252 59.3947 51.071 58.9893L76.639 44.4105C77.0506 44.1928 77.4042 43.8819 77.6709 43.5034L78.1507 43.8066C77.8358 44.2611 77.4158 44.6349 76.9254 44.8971L51.3548 59.476C50.5405 59.9237 49.6392 60.1955 48.7106 60.2735Z" fill="#91B3FA"/>
<path d="M30.9722 18.6847C30.5407 18.6912 30.1147 18.5896 29.7339 18.3891C29.5505 18.3137 29.3939 18.1863 29.2837 18.0231C29.1735 17.8598 29.1147 17.668 29.1147 17.4719C29.1147 17.2757 29.1735 17.0839 29.2837 16.9207C29.3939 16.7575 29.5505 16.6301 29.7339 16.5546C30.1169 16.36 30.5414 16.2584 30.9722 16.2584C31.4029 16.2584 31.8274 16.36 32.2104 16.5546C32.3948 16.6292 32.5525 16.7562 32.6635 16.9195C32.7745 17.0829 32.8338 17.2752 32.8338 17.4719C32.8338 17.6686 32.7745 17.8609 32.6635 18.0242C32.5525 18.1875 32.3948 18.3146 32.2104 18.3891C31.8298 18.5899 31.4036 18.6916 30.9722 18.6847ZM30.9722 16.9852C30.6707 16.9798 30.3728 17.049 30.1054 17.1865C29.9506 17.2757 29.8474 17.3852 29.8474 17.4719C29.8474 17.5585 29.9428 17.6681 30.1054 17.7547C30.375 17.8873 30.6722 17.9563 30.9735 17.9563C31.2747 17.9563 31.5719 17.8873 31.8415 17.7547C31.9963 17.6681 32.0995 17.5585 32.0995 17.4719C32.0995 17.3852 32.0041 17.2757 31.8415 17.1891C31.5741 17.049 31.2748 16.9788 30.9722 16.9852Z" fill="#414142"/>
<path d="M26.638 21.1561C26.2069 21.1599 25.7822 21.0537 25.4049 20.8478C25.2213 20.7729 25.0644 20.6459 24.954 20.4828C24.8436 20.3198 24.7847 20.128 24.7847 19.9319C24.7847 19.7357 24.8436 19.544 24.954 19.3809C25.0644 19.2179 25.2213 19.0909 25.4049 19.0159C25.7874 18.8213 26.2115 18.7197 26.6419 18.7197C27.0722 18.7197 27.4963 18.8213 27.8788 19.0159C28.0624 19.0909 28.2193 19.2179 28.3297 19.3809C28.4401 19.544 28.499 19.7357 28.499 19.9319C28.499 20.128 28.4401 20.3198 28.3297 20.4828C28.2193 20.6459 28.0624 20.7729 27.8788 20.8478C27.4992 21.0549 27.0716 21.1611 26.638 21.1561ZM26.638 19.4567C26.3356 19.4495 26.0363 19.5188 25.7686 19.658C25.6138 19.7472 25.5106 19.8542 25.5106 19.9408C25.5106 20.0274 25.6061 20.137 25.7686 20.2262C26.0385 20.3582 26.3355 20.4269 26.6367 20.4269C26.9378 20.4269 27.2349 20.3582 27.5048 20.2262C27.6596 20.1395 27.7628 20.03 27.7628 19.9433C27.7628 19.8567 27.6673 19.7472 27.5048 19.658C27.2387 19.5196 26.9413 19.4503 26.6406 19.4567H26.638Z" fill="#414142"/>
<path d="M22.3091 23.6275C21.8773 23.6348 21.4509 23.5321 21.0709 23.3294C20.8873 23.2545 20.7304 23.1274 20.62 22.9644C20.5096 22.8013 20.4507 22.6096 20.4507 22.4134C20.4507 22.2173 20.5096 22.0255 20.62 21.8625C20.7304 21.6994 20.8873 21.5724 21.0709 21.4975C21.4535 21.3016 21.8782 21.1993 22.3091 21.1993C22.7401 21.1993 23.1648 21.3016 23.5474 21.4975C23.731 21.5724 23.8879 21.6994 23.9983 21.8625C24.1087 22.0255 24.1676 22.2173 24.1676 22.4134C24.1676 22.6096 24.1087 22.8013 23.9983 22.9644C23.8879 23.1274 23.731 23.2545 23.5474 23.3294C23.1677 23.5329 22.7411 23.6356 22.3091 23.6275ZM22.3091 21.9281C22.0075 21.9209 21.7091 21.9902 21.4424 22.1293C21.2876 22.216 21.1844 22.3255 21.1844 22.4122C21.1844 22.4988 21.2798 22.6083 21.4424 22.6975C21.7122 22.8296 22.0093 22.8983 22.3104 22.8983C22.6116 22.8983 22.9087 22.8296 23.1785 22.6975C23.3333 22.6083 23.4365 22.4988 23.4365 22.4122C23.4365 22.3255 23.3385 22.216 23.1785 22.1293C22.9109 21.9901 22.6116 21.9208 22.3091 21.9281Z" fill="#414142"/>
<path d="M17.9728 26.0964C17.5421 26.1033 17.1168 26.0016 16.7371 25.8008C16.5537 25.7254 16.3971 25.598 16.2869 25.4348C16.1767 25.2716 16.1179 25.0798 16.1179 24.8836C16.1179 24.6874 16.1767 24.4956 16.2869 24.3324C16.3971 24.1692 16.5537 24.0418 16.7371 23.9664C17.1196 23.7717 17.5437 23.6702 17.9741 23.6702C18.4044 23.6702 18.8285 23.7717 19.211 23.9664C19.3954 24.0409 19.5531 24.1679 19.6641 24.3313C19.7751 24.4946 19.8344 24.6869 19.8344 24.8836C19.8344 25.0803 19.7751 25.2726 19.6641 25.4359C19.5531 25.5993 19.3954 25.7263 19.211 25.8008C18.8304 26.0016 18.4042 26.1033 17.9728 26.0964ZM17.106 24.5982C16.9512 24.6874 16.848 24.797 16.848 24.8836C16.848 24.9702 16.946 25.0798 17.106 25.169C17.3758 25.301 17.6729 25.3697 17.9741 25.3697C18.2752 25.3697 18.5723 25.301 18.8421 25.169C18.9969 25.0798 19.1001 24.9702 19.1001 24.8836C19.1001 24.797 19.0047 24.6874 18.8421 24.5982C18.5727 24.4662 18.2761 24.3975 17.9753 24.3975C17.6746 24.3975 17.3779 24.4662 17.1085 24.5982H17.106Z" fill="#414142"/>
<path d="M13.6388 28.5678C13.2082 28.5748 12.7828 28.473 12.4031 28.2723C12.2188 28.1977 12.0611 28.0707 11.9501 27.9074C11.8391 27.744 11.7798 27.5518 11.7798 27.355C11.7798 27.1583 11.8391 26.966 11.9501 26.8027C12.0611 26.6394 12.2188 26.5123 12.4031 26.4378C12.7857 26.2432 13.2098 26.1416 13.6401 26.1416C14.0704 26.1416 14.4945 26.2432 14.8771 26.4378C15.0614 26.5123 15.2191 26.6394 15.3301 26.8027C15.4411 26.966 15.5004 27.1583 15.5004 27.355C15.5004 27.5518 15.4411 27.744 15.3301 27.9074C15.2191 28.0707 15.0614 28.1977 14.8771 28.2723C14.4965 28.4732 14.0703 28.575 13.6388 28.5678ZM13.6388 26.8709C13.3376 26.8647 13.0396 26.9331 12.772 27.0697C12.6172 27.1563 12.514 27.2659 12.514 27.3525C12.514 27.4391 12.6095 27.5487 12.772 27.6378C13.0417 27.7705 13.3388 27.8395 13.6401 27.8395C13.9413 27.8395 14.2385 27.7705 14.5082 27.6378C14.663 27.5512 14.7662 27.4417 14.7662 27.355C14.7662 27.2684 14.6707 27.1588 14.5082 27.0697C14.2398 26.9326 13.9409 26.8643 13.6388 26.8709Z" fill="#414142"/>
<path d="M9.3072 31.0393C8.87533 31.0469 8.44878 30.9442 8.06891 30.7412C7.88536 30.6662 7.72846 30.5392 7.61806 30.3761C7.50766 30.2131 7.44873 30.0213 7.44873 29.8252C7.44873 29.629 7.50766 29.4373 7.61806 29.2743C7.72846 29.1112 7.88536 28.9842 8.06891 28.9092C8.45146 28.7146 8.87557 28.613 9.30591 28.613C9.73624 28.613 10.1603 28.7146 10.5429 28.9092C10.7264 28.9842 10.8834 29.1112 10.9938 29.2743C11.1042 29.4373 11.1631 29.629 11.1631 29.8252C11.1631 30.0213 11.1042 30.2131 10.9938 30.3761C10.8834 30.5392 10.7264 30.6662 10.5429 30.7412C10.1638 30.9439 9.73821 31.0466 9.3072 31.0393ZM9.3072 29.3398C9.00491 29.334 8.70598 29.4032 8.43782 29.5411C8.28303 29.6303 8.17984 29.7398 8.17984 29.8265C8.17984 29.9131 8.2753 30.0227 8.43782 30.1093C8.7075 30.2419 9.00465 30.3109 9.30591 30.3109C9.60716 30.3109 9.90431 30.2419 10.174 30.1093C10.3288 30.0227 10.432 29.9131 10.432 29.8265C10.432 29.7398 10.3365 29.6303 10.174 29.5411C9.9066 29.4036 9.60861 29.3344 9.3072 29.3398Z" fill="#414142"/>
<path d="M14.0902 27.9818L13.1306 27.8671C13.1306 27.8442 13.3885 25.467 12.1554 23.9154C11.8346 23.5318 11.4382 23.2166 10.9903 22.9888C10.5424 22.7611 10.0524 22.6256 9.54986 22.5905C8.95242 22.5103 8.34416 22.5777 7.77958 22.7867C7.21501 22.9957 6.71173 23.3397 6.31485 23.788C5.86008 24.3205 5.5399 24.952 5.38068 25.6306C5.22146 26.3093 5.22775 27.0155 5.39904 27.6913L4.46 27.9155C4.24721 27.0909 4.2388 26.2278 4.4355 25.3993C4.63219 24.5708 5.02819 23.8013 5.58994 23.1561C6.08985 22.5921 6.72373 22.1595 7.43469 21.8971C8.14566 21.6347 8.91146 21.5508 9.66337 21.6529C11.0564 21.8083 12.1528 22.3765 12.9216 23.337C14.4101 25.2046 14.1031 27.8798 14.0902 27.9818Z" fill="#414142"/>
<path d="M18.4216 25.5588L17.4619 25.4442C17.4619 25.4213 17.7328 23.0441 16.4894 21.4925C16.1685 21.1089 15.7722 20.7937 15.3243 20.5659C14.8764 20.3382 14.3863 20.2027 13.8838 20.1676C13.2858 20.0856 12.6766 20.1514 12.1107 20.359C11.5447 20.5667 11.0398 20.9097 10.6411 21.3574C10.1868 21.8896 9.86707 22.5209 9.70829 23.1991C9.54951 23.8773 9.55622 24.583 9.72784 25.2582L8.78881 25.485C8.57704 24.6598 8.56989 23.7963 8.76793 22.9678C8.96598 22.1392 9.36339 21.3701 9.92648 20.7256C10.4265 20.1609 11.0607 19.7277 11.7722 19.4648C12.4836 19.202 13.25 19.1178 14.0025 19.2198C15.3956 19.3777 16.492 19.9434 17.2607 20.9039C18.7441 22.7715 18.4397 25.4467 18.4216 25.5588Z" fill="#414142"/>
<path d="M22.7554 23.0389L21.7958 22.9243C21.7958 22.9014 22.0666 20.5216 20.8206 18.97C20.5003 18.5861 20.1039 18.2708 19.6559 18.0435C19.2079 17.8161 18.7176 17.6814 18.2151 17.6477C17.6177 17.5649 17.0088 17.6301 16.4432 17.8373C15.8776 18.0446 15.3731 18.3874 14.9749 18.835C14.5193 19.367 14.1981 19.9983 14.038 20.677C13.8779 21.3556 13.8833 22.0621 14.0539 22.7383L13.1123 22.9625C12.9002 22.1379 12.8921 21.2749 13.0888 20.4465C13.2854 19.6181 13.6811 18.8487 14.2423 18.2031C14.7423 17.6384 15.3765 17.2052 16.0879 16.9424C16.7994 16.6796 17.5657 16.5954 18.3183 16.6973C19.7113 16.8553 20.8077 17.4209 21.5765 18.384C23.0831 20.2516 22.7683 22.9243 22.7554 23.0389Z" fill="#414142"/>
<path d="M27.0998 20.6439L26.1401 20.5318C26.1401 20.5064 26.3981 18.1292 25.165 16.5776C24.8449 16.1952 24.4496 15.8809 24.0031 15.6537C23.5567 15.4264 23.0682 15.2908 22.5672 15.2552C21.9698 15.1727 21.361 15.238 20.7954 15.4452C20.2299 15.6524 19.7253 15.9951 19.327 16.4425C18.8726 16.9738 18.5521 17.6037 18.3916 18.2808C18.231 18.9579 18.2351 19.6629 18.4034 20.3382L17.4644 20.5624C17.2516 19.7378 17.2432 18.8747 17.4399 18.0462C17.6366 17.2177 18.0326 16.4482 18.5943 15.803C19.0941 15.2387 19.7279 14.8057 20.4388 14.5429C21.1498 14.2801 21.9157 14.1957 22.6678 14.2972C24.0608 14.4552 25.1572 15.0208 25.926 15.9839C27.4197 17.8591 27.1127 20.5318 27.0998 20.6439Z" fill="#414142"/>
<path d="M31.4235 18.0885L30.4613 17.9738C30.4613 17.9509 30.7193 15.5737 29.4887 14.0221C29.1679 13.6385 28.7715 13.3233 28.3236 13.0955C27.8757 12.8678 27.3857 12.7323 26.8832 12.6972C26.2856 12.615 25.6766 12.6806 25.1111 12.8883C24.5455 13.096 24.0411 13.4392 23.643 13.887C23.1877 14.4192 22.8672 15.0508 22.7079 15.7295C22.5487 16.4082 22.5553 17.1146 22.7272 17.7904L21.7882 18.0171C21.5745 17.1926 21.5656 16.3293 21.7624 15.5006C21.9591 14.672 22.3556 13.9025 22.9181 13.2577C23.4174 12.6929 24.0512 12.2595 24.7622 11.9967C25.4733 11.7338 26.2394 11.6497 26.9915 11.7519C28.3846 11.9073 29.481 12.4755 30.2498 13.4361C31.7434 15.3011 31.4364 17.9738 31.4235 18.0885Z" fill="#414142"/>
<path d="M1.67121 33.0776C-0.0494881 31.2941 -0.482889 28.7997 0.564491 26.7079C0.987643 25.8328 1.68005 25.1123 2.54277 24.6492C3.40548 24.1861 4.39433 24.0042 5.36799 24.1295C6.76106 24.2849 7.85746 24.8531 8.62623 25.8136C10.1199 27.6812 9.81292 30.3565 9.80002 30.4686L8.84035 30.3539C8.84035 30.331 9.09833 27.9538 7.8652 26.4022C7.54436 26.0186 7.14798 25.7034 6.70009 25.4757C6.25221 25.2479 5.76215 25.1124 5.25965 25.0773C4.47871 24.9667 3.6825 25.1081 2.98946 25.4804C2.29642 25.8527 1.7436 26.4361 1.41323 27.1436C0.549015 28.866 0.915344 30.9374 2.35227 32.4202L1.67121 33.0776Z" fill="#414142"/>
<path d="M46.8764 40.0689L38.4277 44.8869L36.6528 43.8677L36.6193 40.3899C36.6241 39.6888 36.5724 38.9885 36.4645 38.2955C36.4022 37.9702 36.2683 37.6623 36.0724 37.3936C35.867 37.1303 35.6088 36.9117 35.3139 36.7515C34.867 36.4851 34.3525 36.3498 33.8305 36.3617C33.3283 36.3795 32.8382 36.5196 32.4039 36.7694C31.9822 36.998 31.6269 37.3296 31.372 37.7325C31.1361 38.1364 30.9794 38.5807 30.9103 39.0421L27.8765 38.8968C27.9289 38.3923 28.0658 37.8998 28.2815 37.4395C28.491 37.0641 28.7601 36.7243 29.0786 36.4331C29.5009 36.0541 29.9657 35.7242 30.464 35.4496C31.2136 35.0222 32.0281 34.7168 32.876 34.5451C33.6995 34.3744 34.5457 34.3383 35.381 34.4381C36.1487 34.523 36.8911 34.7604 37.5635 35.1362C38.0564 35.3997 38.4893 35.7605 38.8353 36.1961C39.1354 36.6035 39.3374 37.0732 39.426 37.5694C39.5342 38.3945 39.5411 39.2294 39.4467 40.0561L39.3564 41.7759L39.4725 41.8422L44.7378 38.8382L46.8764 40.0689Z" fill="#91B3FA"/>
<path d="M38.4276 45.3072L36.2839 44.0843L36.24 40.3975C36.2449 39.7214 36.1975 39.046 36.0981 38.377C36.0432 38.1023 35.9307 37.842 35.7679 37.6127C35.5916 37.3902 35.3713 37.2056 35.1204 37.07C34.7314 36.8389 34.2844 36.7206 33.8305 36.7286C33.3891 36.7452 32.9586 36.8685 32.5767 37.0878C32.2078 37.2856 31.8955 37.5722 31.6687 37.921C31.4565 38.2859 31.3156 38.6869 31.2533 39.1032L31.2017 39.4242L27.4353 39.2433L27.4895 38.8484C27.5465 38.3018 27.6966 37.7686 27.9332 37.2713C28.1612 36.8606 28.4548 36.489 28.8026 36.1706C29.2463 35.7724 29.7344 35.4253 30.2576 35.1362C31.0426 34.6893 31.8954 34.3701 32.7831 34.1909C33.6454 34.011 34.5319 33.9731 35.4067 34.0788C36.2233 34.1689 37.0131 34.4211 37.7285 34.8202C38.2656 35.1091 38.7371 35.5037 39.1138 35.9795C39.4482 36.4329 39.6732 36.9558 39.7717 37.5082C39.8873 38.3651 39.896 39.2328 39.7975 40.0918L39.7356 41.2663L44.7274 38.428L47.6141 40.0739L38.4276 45.3072ZM37.0139 43.6613L38.4225 44.4639L46.1308 40.0688L44.7222 39.2662L39.457 42.2676L38.9642 41.995L39.0674 40.051C39.158 39.254 39.1528 38.4492 39.0519 37.6535C38.9758 37.2117 38.7994 36.7927 38.536 36.4279C38.2184 36.0331 37.8236 35.7056 37.3751 35.4648C36.7447 35.1159 36.05 34.895 35.3319 34.8151C34.5369 34.7209 33.7317 34.7562 32.9482 34.9196C32.1386 35.0831 31.3608 35.3738 30.6445 35.7808C30.1729 36.0421 29.7324 36.3549 29.3314 36.7133C29.0413 36.9765 28.7964 37.2845 28.6065 37.6254C28.4606 37.9228 28.359 38.2395 28.3047 38.5656L30.6058 38.6777C30.6956 38.2845 30.8461 37.9072 31.0521 37.5592C31.3428 37.1028 31.7469 36.7274 32.2259 36.4687C32.7122 36.1894 33.2606 36.0328 33.8228 36.0126C34.4141 35.9992 34.9971 36.1511 35.5048 36.4509C35.8432 36.6362 36.1399 36.8876 36.3767 37.1897C36.6024 37.5013 36.7588 37.8564 36.8359 38.2318C36.9482 38.9483 37.0017 39.6725 36.9959 40.3975L37.0139 43.6613Z" fill="#414142"/>
<path d="M47.1755 29.1258C47.9305 29.5556 48.3441 30.0516 48.4164 30.6138C48.486 31.1769 48.21 31.7501 47.5805 32.3336L47.6295 32.3616C48.5981 31.9017 49.6515 31.6416 50.7252 31.5973C51.6556 31.5687 52.5756 31.7963 53.3824 32.2546C54.545 32.917 55.0291 33.6729 54.8348 34.5222C54.6405 35.3715 53.7625 36.2488 52.2009 37.1541C50.9101 37.8938 49.5145 38.4383 48.0604 38.7695L45.8856 37.5312C46.6062 37.3954 47.3165 37.2106 48.0113 36.9783C48.6679 36.767 49.3014 36.4913 49.9023 36.1554C50.7467 35.673 51.2266 35.2365 51.3418 34.8458C51.4579 34.4509 51.1973 34.0814 50.5679 33.7145C49.9924 33.3887 49.3153 33.2844 48.6666 33.4215C47.754 33.6338 46.8826 33.9918 46.0869 34.4814L45.171 35.0037L43.213 33.8878L44.1469 33.3553C45.0833 32.8202 45.6457 32.3616 45.8315 31.9743C46.0172 31.5871 45.816 31.2253 45.2201 30.8864C44.3068 30.3632 43.2749 30.4295 42.1243 31.0851C41.7441 31.2959 41.4015 31.567 41.1105 31.8877C40.8127 32.2339 40.5818 32.6311 40.4294 33.0597L37.4885 32.7285C37.7947 31.6482 38.7113 30.6724 40.2385 29.801C41.3804 29.1222 42.6556 28.6914 43.9792 28.5373C45.0809 28.3919 46.2008 28.5982 47.1755 29.1258Z" fill="#91B3FA"/>
<path d="M48.0011 39.1491L44.8409 37.3477L45.8186 37.1643C46.5181 37.0316 47.2077 36.852 47.8824 36.6267C48.5166 36.4226 49.1285 36.1563 49.7089 35.8318C50.6969 35.2687 50.9265 34.9018 50.9756 34.7336C51.053 34.4789 50.6892 34.2037 50.3693 34.0228C49.8714 33.7374 49.2833 33.6465 48.7209 33.768C47.8528 33.975 47.0244 34.3191 46.2675 34.7871L45.166 35.4165L42.4675 33.8877L43.956 33.0393C45.0911 32.3922 45.4059 31.9947 45.5039 31.8163C45.54 31.7425 45.638 31.5412 45.0395 31.2023C44.2424 30.7462 43.3524 30.8099 42.3205 31.3985C41.976 31.5922 41.6651 31.8391 41.3995 32.1297C41.1307 32.4409 40.9225 32.7985 40.7855 33.1845L40.6875 33.4521L37.0139 33.0342L37.1326 32.6215C37.4654 31.452 38.4508 30.3946 40.0555 29.4774C41.2371 28.7771 42.5563 28.3332 43.9251 28.1754C45.1063 28.0213 46.3066 28.2435 47.351 28.8099C48.2075 29.2965 48.6847 29.8902 48.7724 30.5679C48.814 30.9235 48.7513 31.2834 48.5919 31.6049C49.2791 31.3836 49.995 31.2609 50.7176 31.2405C51.7114 31.2117 52.6938 31.456 53.5553 31.9463C54.8684 32.6979 55.4153 33.5947 55.1806 34.6139C54.9587 35.577 54.0377 36.5095 52.3661 37.4624C51.0425 38.2193 49.6123 38.7775 48.1223 39.1185L48.0011 39.1491ZM46.8944 37.6764L48.1172 38.3745C49.4846 38.0465 50.7972 37.5265 52.0152 36.8305C53.4805 35.9948 54.3086 35.1948 54.4815 34.4508C54.5382 34.196 54.7136 33.4317 53.2071 32.5807C52.4576 32.157 51.604 31.9462 50.7408 31.9718C49.7152 32.0135 48.7087 32.2596 47.7818 32.6954L47.609 32.7718L46.9666 32.4049L47.3329 32.0584C47.867 31.5616 48.1069 31.0877 48.0553 30.6494C48.0037 30.2112 47.6425 29.7984 46.995 29.4315C46.0854 28.9427 45.0415 28.7535 44.0154 28.8914C42.7506 29.0404 41.5321 29.4519 40.4398 30.0991C39.2093 30.8023 38.3941 31.5743 38.0123 32.3922L40.2077 32.6469C40.3658 32.2758 40.5827 31.9318 40.85 31.6278C41.168 31.2782 41.5408 30.9814 41.9541 30.7488C43.2182 30.0303 44.3817 29.964 45.4162 30.5501C46.4507 31.1361 46.3346 31.7832 46.1746 32.1144C45.9502 32.5782 45.3672 33.0673 44.3404 33.6432L43.9612 33.8597L45.1814 34.5553L45.9141 34.1374C46.7435 33.6279 47.6514 33.2553 48.6022 33.0342C49.3365 32.8796 50.1027 32.9985 50.7537 33.368C51.7495 33.9362 51.8191 34.5247 51.7005 34.9196C51.556 35.4088 51.0297 35.9082 50.0933 36.4484C49.4701 36.7965 48.8133 37.0824 48.1327 37.3019C47.7199 37.4497 47.3071 37.5745 46.8944 37.6764Z" fill="#414142"/>
</svg>
