<svg width="298" height="249" viewBox="0 0 298 249" fill="none" xmlns="http://www.w3.org/2000/svg">
<g filter="url(#filter0_d)">
<path d="M182.764 97.6631C182.764 97.6631 172.293 101.625 170.316 108.469C168.339 115.314 178.853 132.635 178.853 132.635C178.853 132.635 174.161 135.847 173.73 137.131C173.299 138.415 175.645 140.464 175.645 140.464C175.645 140.464 175.559 141.992 177.282 143.166C179.006 144.34 181.342 143.166 181.342 143.166C182.507 143.818 183.819 144.129 185.139 144.066C187.38 143.976 192.215 138.21 192.732 137.311C193.25 136.412 182.764 97.6631 182.764 97.6631Z" fill="white"/>
<path d="M173.308 104.003C172.11 105.05 171.084 106.296 170.273 107.69C169.876 108.4 169.531 109.14 169.239 109.903C168.927 110.647 168.703 111.427 168.573 112.226C168.511 112.691 168.439 113.151 168.391 113.62C168.331 114.034 168.331 114.455 168.391 114.869C168.391 114.904 168.444 114.904 168.458 114.869C168.546 114.661 168.61 114.443 168.65 114.22C168.712 113.97 168.793 113.72 168.87 113.48C169.014 113.016 169.186 112.566 169.349 112.112C169.67 111.16 170.044 110.23 170.469 109.324C170.895 108.435 171.398 107.59 171.905 106.741C172.411 105.876 172.986 105.057 173.624 104.293C173.661 104.249 173.68 104.192 173.676 104.134C173.672 104.076 173.647 104.022 173.605 103.983C173.563 103.945 173.508 103.925 173.453 103.929C173.397 103.933 173.345 103.959 173.308 104.003Z" fill="white"/>
<path d="M171.628 108.09C171.366 108.395 171.122 108.715 170.895 109.049C170.697 109.369 170.519 109.703 170.364 110.048C170.031 110.78 169.791 111.555 169.65 112.351C169.326 113.942 169.352 115.589 169.727 117.167C169.727 117.187 169.734 117.206 169.748 117.22C169.761 117.234 169.78 117.242 169.799 117.242C169.818 117.242 169.836 117.234 169.85 117.22C169.863 117.206 169.871 117.187 169.871 117.167C170.005 116.418 170.057 115.669 170.153 114.889C170.249 114.11 170.34 113.391 170.488 112.626C170.638 111.887 170.827 111.156 171.053 110.438C171.277 109.705 171.58 109 171.958 108.34C171.975 108.294 171.977 108.244 171.964 108.197C171.951 108.151 171.923 108.11 171.886 108.081C171.848 108.053 171.802 108.038 171.755 108.039C171.709 108.041 171.664 108.059 171.628 108.09Z" fill="white"/>
<g opacity="0.1">
<path opacity="0.1" d="M182.764 97.6631C182.764 97.6631 172.293 101.625 170.316 108.469C168.338 115.314 178.852 132.635 178.852 132.635C178.852 132.635 174.16 135.847 173.729 137.131C173.299 138.415 175.645 140.464 175.645 140.464C175.645 140.464 175.558 141.992 177.282 143.166C179.006 144.34 181.342 143.166 181.342 143.166C182.507 143.818 183.819 144.129 185.139 144.066C187.38 143.976 192.215 138.21 192.732 137.311C193.249 136.412 182.764 97.6631 182.764 97.6631Z" fill="black"/>
<path opacity="0.1" d="M173.308 104.003C172.11 105.05 171.084 106.296 170.273 107.69C169.876 108.4 169.531 109.14 169.238 109.903C168.927 110.646 168.703 111.427 168.573 112.226C168.511 112.691 168.439 113.151 168.391 113.62C168.331 114.034 168.331 114.455 168.391 114.869C168.391 114.904 168.444 114.904 168.458 114.869C168.546 114.661 168.61 114.443 168.65 114.22C168.712 113.97 168.793 113.72 168.87 113.48C169.013 113.016 169.186 112.566 169.349 112.111C169.67 111.16 170.044 110.23 170.469 109.324C170.895 108.434 171.398 107.59 171.905 106.741C172.411 105.875 172.986 105.056 173.624 104.293C173.661 104.249 173.68 104.192 173.676 104.134C173.672 104.076 173.647 104.021 173.605 103.983C173.563 103.945 173.508 103.925 173.453 103.929C173.397 103.933 173.345 103.959 173.308 104.003Z" fill="black"/>
<path opacity="0.1" d="M171.628 108.09C171.366 108.395 171.122 108.715 170.895 109.049C170.697 109.369 170.519 109.703 170.364 110.048C170.031 110.78 169.791 111.554 169.65 112.351C169.326 113.942 169.352 115.589 169.727 117.167C169.727 117.187 169.734 117.206 169.748 117.22C169.761 117.234 169.78 117.242 169.799 117.242C169.818 117.242 169.836 117.234 169.849 117.22C169.863 117.206 169.87 117.187 169.87 117.167C170.005 116.418 170.057 115.669 170.153 114.889C170.249 114.11 170.34 113.39 170.488 112.626C170.638 111.886 170.827 111.156 171.053 110.438C171.277 109.704 171.58 109 171.958 108.339C171.975 108.294 171.977 108.244 171.964 108.197C171.951 108.151 171.923 108.11 171.886 108.081C171.848 108.052 171.802 108.038 171.755 108.039C171.708 108.041 171.664 108.059 171.628 108.09Z" fill="black"/>
</g>
<path d="M192.718 137.261C192.201 138.166 187.365 143.931 185.125 144.016C183.803 144.08 182.489 143.769 181.323 143.117C181.323 143.117 178.991 144.291 177.273 143.117C175.554 141.943 175.63 140.414 175.63 140.414C175.63 140.414 173.299 138.345 173.715 137.086C174.132 135.827 178.838 132.59 178.838 132.59C181.366 132.14 184.129 133.165 184.129 133.165C182.904 132.542 181.569 132.192 180.207 132.135C182.233 131.852 184.293 132.211 186.12 133.165C188.112 134.141 190.227 134.814 192.402 135.163C192.67 136.402 192.785 137.131 192.718 137.261Z" fill="#FDFDFD"/>
<path d="M192.718 137.261C192.201 138.165 187.365 143.931 185.125 144.016C184.284 144.049 183.444 143.936 182.64 143.681L187.61 133.869C189.162 134.467 190.765 134.908 192.397 135.188C192.67 136.402 192.785 137.131 192.718 137.261Z" fill="#DBDBDB"/>
<path d="M178.13 134.399C177.671 134.739 177.237 135.115 176.832 135.523C176.384 135.937 175.999 136.42 175.693 136.957C175.137 138.031 175.453 139.29 175.592 140.454C175.592 140.504 175.669 140.499 175.664 140.454C175.486 139.336 175.653 138.188 176.143 137.176C176.713 136.199 177.401 135.302 178.192 134.509C178.249 134.439 178.177 134.364 178.13 134.399Z" fill="#263238"/>
<path d="M184.378 136.487C183.359 137.249 182.478 138.195 181.778 139.28C181.471 139.815 181.27 140.41 181.189 141.028C181.134 141.702 181.205 142.381 181.4 143.027C181.4 143.062 181.462 143.062 181.467 143.027C181.553 142.402 181.606 141.773 181.735 141.153C181.865 140.585 182.066 140.038 182.333 139.524C182.592 138.998 182.895 138.497 183.238 138.026C183.612 137.526 184.028 137.026 184.421 136.527C184.445 136.517 184.411 136.462 184.378 136.487Z" fill="#263238"/>
<path d="M169.181 33.7146C167.481 33.9544 164.039 8.49988 169.899 0.131612C170.742 -1.07242 188.572 7.84541 188.835 8.49988C189.098 9.15435 172.681 33.215 169.181 33.7146Z" fill="white"/>
<path opacity="0.2" d="M188.835 8.4799C188.921 8.68474 187.375 11.1777 185.11 14.515C181.28 7.95533 170.234 0.851044 169.961 1.0259C169.689 1.20076 167.869 8.17515 167.673 15.764C167.448 24.7568 169.349 30.7819 170.268 33.145C169.95 33.413 169.579 33.6026 169.181 33.6996C167.486 33.9394 164.044 8.4849 169.904 0.111638C170.742 -1.09239 188.562 7.82543 188.835 8.4799Z" fill="black"/>
<path d="M174.682 31.1767C174.531 30.3842 174.341 29.6005 174.113 28.8286C173.894 28.0593 173.634 27.3036 173.332 26.5654C172.751 25.0891 171.979 23.7024 171.039 22.4437C170.571 21.8193 170.043 21.2468 169.464 20.7351C169.181 20.4703 168.87 20.2355 168.564 20.0057C168.257 19.7758 167.927 19.576 167.606 19.3962C167.27 19.2097 166.925 19.0429 166.572 18.8966C166.213 18.7717 165.858 18.6118 165.485 18.5219C164.743 18.3007 163.983 18.147 163.216 18.0622C164.787 18.0209 166.346 18.363 167.769 19.0614C169.2 19.7807 170.452 20.8357 171.427 22.1439C172.397 23.4375 173.161 24.8869 173.687 26.4355C174.225 27.9607 174.56 29.5561 174.682 31.1767Z" fill="#263238"/>
<path d="M175.712 30.5621C175.679 29.4018 175.572 28.2451 175.391 27.0999C175.222 25.9558 174.988 24.8232 174.692 23.7076C174.116 21.4771 173.248 19.3403 172.111 17.3577C171.545 16.3702 170.905 15.4314 170.196 14.55C169.473 13.679 168.687 12.8673 167.845 12.1219C167.002 11.3738 166.097 10.705 165.14 10.1235C164.184 9.52781 163.189 9.00197 162.162 8.5498C164.302 9.27029 166.305 10.3761 168.08 11.8172C169.844 13.2909 171.342 15.0808 172.504 17.1029C173.65 19.1253 174.502 21.3141 175.032 23.5977C175.578 25.873 175.807 28.2186 175.712 30.5621Z" fill="#263238"/>
<path d="M232.031 37.9811C233.63 38.6106 242.502 14.6349 238.609 5.09261C238.054 3.72371 218.759 8.20011 218.352 8.77964C217.945 9.35918 228.727 36.6772 232.031 37.9811Z" fill="white"/>
<path opacity="0.2" d="M218.357 8.77967C218.228 8.95453 219.19 11.7473 220.674 15.5342C225.84 10.0387 238.126 5.73712 238.355 5.96694C238.585 6.19675 238.834 13.4259 237.398 20.8649C235.669 29.6679 232.505 35.0935 231.102 37.1818C231.353 37.515 231.672 37.7863 232.036 37.9762C233.639 38.6107 242.511 14.635 238.619 5.09264C238.049 3.73873 218.759 8.20513 218.357 8.77967Z" fill="black"/>
<path d="M232.246 31.1766C232.368 29.5518 232.706 27.9527 233.252 26.4254C233.778 24.8768 234.541 23.4275 235.512 22.1339C236.489 20.828 237.74 19.7734 239.169 19.0514C240.594 18.3529 242.154 18.0108 243.727 18.0522C242.96 18.1364 242.2 18.2902 241.458 18.5118C241.085 18.6017 240.73 18.7616 240.366 18.8865C240.015 19.0329 239.671 19.1997 239.337 19.3861C238.997 19.566 238.686 19.7908 238.379 19.9956C238.073 20.2004 237.762 20.4602 237.484 20.725C236.903 21.2367 236.373 21.8092 235.904 22.4337C234.964 23.6924 234.192 25.079 233.611 26.5553C233.023 28.0442 232.572 29.5883 232.265 31.1666L232.246 31.1766Z" fill="#263238"/>
<path d="M231.212 30.5621C231.112 28.2223 231.338 25.8798 231.882 23.6077C232.413 21.3251 233.263 19.1366 234.406 17.1129C235.574 15.0911 237.079 13.3029 238.849 11.8322C240.622 10.3912 242.623 9.28536 244.762 8.56481C243.737 9.017 242.743 9.54284 241.788 10.1385C240.83 10.72 239.924 11.3887 239.079 12.1369C238.237 12.8811 237.453 13.6929 236.733 14.565C236.022 15.4451 235.382 16.3841 234.817 17.3727C233.677 19.3532 232.809 21.4906 232.237 23.7226C231.936 24.837 231.703 25.97 231.538 27.1149C231.356 28.2551 231.247 29.4067 231.212 30.5621Z" fill="#263238"/>
<path d="M163.201 46.1296C163.201 49.427 167.142 58.9144 175.286 65.579C175.286 65.579 178.359 107.585 179.034 111.012C179.71 114.44 188.294 140.449 188.265 140.808C188.237 141.168 184.55 144.306 184.071 145.355C183.713 146.26 183.489 147.217 183.406 148.193C183.406 148.432 185.57 150.95 186.834 151.05C186.834 151.05 190.573 153.573 193.575 151.944C193.575 151.944 196.362 152.524 197.884 151.984C199.407 151.445 203.031 147.813 204.333 146.594C205.636 145.375 205.2 142.957 205.2 142.957L214.234 143.671C214.234 143.671 214.795 147.898 215.34 149.167C215.886 150.436 219.496 153.109 220.918 153.398C222.34 153.688 224.787 152.564 224.787 152.564C224.787 152.564 227.324 153.363 229.096 153.064C230.867 152.764 232.079 150.171 232.079 150.171C233.054 149.785 233.967 149.248 234.789 148.577C235.717 147.688 233.544 144.266 232.275 143.441C231.562 142.963 230.759 142.653 229.919 142.532C229.919 142.532 255.122 141.873 260.011 141.293C264.899 140.714 269.835 139.539 270.544 137.911C271.253 136.282 270.812 103.973 269.17 99.5067C267.528 95.0403 258.752 82.4304 255.601 79.7726C252.451 77.1147 235.655 60.3782 235.655 60.3782C235.655 60.3782 242.784 50.686 243.622 44.391C243.876 42.4826 226.223 13.7557 219.951 9.52909C213.679 5.3025 189.649 7.39581 186.738 9.19437C178.249 14.4202 163.201 44.2312 163.201 46.1296Z" fill="white"/>
<path d="M179.207 107.29C179.288 106.396 179.389 105.497 179.523 104.603C179.531 104.533 179.515 104.463 179.477 104.405C179.439 104.348 179.382 104.307 179.317 104.29C179.252 104.273 179.183 104.282 179.124 104.315C179.065 104.348 179.019 104.402 178.996 104.468C178.715 105.339 178.497 106.23 178.345 107.136C178.204 108.05 178.126 108.973 178.11 109.898C178.058 111.647 178.058 113.59 178.857 115.179C178.857 115.204 178.919 115.179 178.924 115.179C179.183 113.455 178.948 111.682 179.006 109.938C179.049 109.044 179.14 108.155 179.207 107.29Z" fill="white"/>
<path d="M179.542 102.683C178.472 104.103 177.735 105.764 177.387 107.534C177.175 108.402 177.05 109.291 177.014 110.186C176.99 110.631 176.99 111.076 177.014 111.52C177.07 111.961 177.168 112.394 177.306 112.814C177.306 112.859 177.397 112.864 177.402 112.814C177.464 112.395 177.584 111.98 177.627 111.56C177.67 111.141 177.703 110.736 177.761 110.326C177.885 109.482 178.015 108.638 178.24 107.803C178.704 106.161 179.28 104.555 179.963 102.997C180.054 102.742 179.748 102.433 179.542 102.683Z" fill="white"/>
<path d="M166.074 40.1694C165.466 40.9346 164.905 41.7388 164.393 42.5775C163.898 43.4219 163.471 44.3075 163.115 45.2254C162.729 46.1354 162.419 47.078 162.186 48.0431C161.996 49.0333 161.86 50.0342 161.779 51.0407C161.779 51.1556 161.918 51.2055 161.952 51.0856C162.215 50.1514 162.569 49.2421 162.909 48.3379C163.249 47.4336 163.546 46.5193 163.91 45.625C164.274 44.7308 164.676 43.8515 165.078 42.9722C165.48 42.0929 165.878 41.2186 166.342 40.3743C166.447 40.2094 166.198 40.0095 166.074 40.1694Z" fill="white"/>
<path d="M165.054 44.0363C164.617 44.8341 164.247 45.6698 163.948 46.5343C163.669 47.3896 163.462 48.269 163.33 49.1622C163.094 50.9485 163.17 52.7649 163.556 54.5228C163.559 54.5328 163.565 54.5415 163.573 54.5477C163.581 54.5539 163.591 54.5572 163.601 54.5572C163.611 54.5572 163.621 54.5539 163.629 54.5477C163.637 54.5415 163.643 54.5328 163.646 54.5228C163.648 52.7605 163.799 51.0018 164.097 49.2671C164.23 48.4108 164.404 47.5621 164.618 46.7241C164.817 45.8678 165.057 45.0224 165.337 44.1912C165.404 43.9813 165.136 43.8764 165.054 44.0363Z" fill="white"/>
<path d="M241.391 39.9246C240.75 39.0325 240.05 38.1893 239.294 37.4016C239.246 37.3467 239.15 37.4016 239.193 37.4866C240.297 39.0731 241.259 40.7622 242.066 42.5325C242.473 43.3918 242.87 44.2611 243.21 45.1504C243.55 46.0397 243.861 46.9939 244.168 47.9232C244.527 48.9673 244.795 50.0415 245.087 51.1056C245.09 51.1132 245.095 51.1198 245.101 51.1245C245.108 51.1292 245.115 51.1317 245.123 51.1317C245.131 51.1317 245.138 51.1292 245.145 51.1245C245.151 51.1198 245.156 51.1132 245.159 51.1056C245.197 47.0838 243.675 43.102 241.391 39.9246Z" fill="white"/>
<path d="M243.522 49.7417C243.518 49.3376 243.492 48.9339 243.445 48.5327C243.368 47.7102 243.23 46.8951 243.033 46.0947C242.59 44.5167 242.02 42.9808 241.329 41.5034C241.29 41.4184 241.152 41.5034 241.18 41.5733C241.659 43.0971 241.975 44.6958 242.325 46.2595C242.497 47.0339 242.684 47.8033 242.875 48.5727C242.971 48.9624 243.057 49.362 243.162 49.7467C243.268 50.1314 243.325 50.5411 243.455 50.9158C243.455 50.9458 243.517 50.9508 243.522 50.9158C243.541 50.5247 243.541 50.1328 243.522 49.7417Z" fill="white"/>
<path d="M264.593 88.8502C263.889 87.896 263.204 86.9317 262.486 85.9975C261.761 85.0723 260.976 84.2009 260.135 83.3896C259.293 82.5752 258.44 81.7709 257.535 81.0315C256.631 80.2921 255.62 79.6426 254.663 78.9681C254.146 78.5984 253.595 78.2787 253.059 77.934C252.523 77.5893 251.934 77.2046 251.354 76.8648C251.316 76.8399 251.283 76.8998 251.321 76.9298C252.278 77.6292 253.188 78.3337 254.074 79.108C254.96 79.8824 255.778 80.6418 256.621 81.4212C257.464 82.2005 258.335 82.9599 259.168 83.7543C259.599 84.164 260.02 84.5786 260.437 85.0033C260.853 85.428 261.284 85.7877 261.701 86.1823C262.658 87.0816 263.616 87.9509 264.492 88.9201C264.55 88.9651 264.631 88.9001 264.593 88.8502Z" fill="white"/>
<path d="M271.176 102.19C270.756 101.133 270.277 100.104 269.739 99.107C269.222 98.1078 268.662 97.1086 268.069 96.1094C267.47 95.1661 266.811 94.2664 266.096 93.4166C265.296 92.4424 264.444 91.5231 263.621 90.5689C263.592 90.5339 263.544 90.5689 263.573 90.6238C264.956 92.3674 265.967 94.3758 267.13 96.2893C267.695 97.2385 268.246 98.1977 268.763 99.1769C269.28 100.156 269.72 101.175 270.199 102.175C270.74 103.299 271.31 104.413 271.851 105.537C271.927 105.692 272.143 105.572 272.105 105.417C271.869 104.319 271.559 103.241 271.176 102.19Z" fill="white"/>
<path d="M271.669 107.28C271.499 106.408 271.259 105.553 270.951 104.723C270.654 103.918 270.309 103.144 269.941 102.374C269.57 101.559 269.146 100.771 268.672 100.016C268.648 99.9863 268.591 100.016 268.605 100.046C268.907 100.851 269.237 101.645 269.524 102.454C269.811 103.264 270.06 104.098 270.305 104.952C270.549 105.807 270.783 106.611 271.061 107.45C271.339 108.29 271.54 109.114 271.813 109.948C271.82 109.971 271.835 109.991 271.855 110.003C271.874 110.015 271.898 110.02 271.921 110.016C271.943 110.011 271.964 109.999 271.978 109.98C271.993 109.961 272 109.937 271.999 109.913C271.969 109.027 271.858 108.145 271.669 107.28Z" fill="white"/>
<path d="M179.508 16.7982C177.957 18.8516 176.363 20.8899 174.946 23.0432C173.528 25.1965 172.188 27.4446 170.972 29.7328C170.26 31.0393 169.621 32.387 169.057 33.7696C169.05 33.7815 169.049 33.7955 169.052 33.8087C169.056 33.8218 169.064 33.8329 169.076 33.8395C169.087 33.8461 169.101 33.8477 169.113 33.844C169.126 33.8402 169.136 33.8314 169.143 33.8195C170.579 31.6662 171.853 29.3831 173.174 27.1499C174.496 24.9167 175.865 22.7234 177.196 20.5002C177.943 19.2462 178.728 18.0022 179.537 16.8082C179.523 16.7982 179.513 16.7932 179.508 16.7982Z" fill="#263238"/>
<path d="M235.866 30.2174C234.468 27.9542 233.108 25.676 231.6 23.4878C230.092 21.2996 228.559 19.2212 226.912 17.1879C226.912 17.1879 226.855 17.1879 226.869 17.2229C228.253 19.466 229.704 21.6593 231.178 23.8325C232.653 26.0058 234.262 28.1091 235.789 30.2624C235.795 30.273 235.804 30.2808 235.816 30.284C235.827 30.2873 235.839 30.2858 235.849 30.2798C235.859 30.2739 235.867 30.264 235.87 30.2522C235.873 30.2405 235.871 30.228 235.866 30.2174Z" fill="#263238"/>
<path d="M210.399 93.4964C207.316 93.2616 204.654 91.0684 203.381 88.5354C202.871 87.5296 202.546 86.4333 202.423 85.303C202.687 85.2054 202.937 85.0691 203.165 84.8983C203.798 84.359 204.291 83.6635 204.601 82.875C205.002 82.0164 205.239 81.085 205.3 80.1322C205.329 79.4427 205.3 78.3036 204.501 77.9789C203.701 77.6542 203.065 78.4235 202.792 78.9781C202.404 79.8168 202.119 80.703 201.944 81.616C201.729 82.6288 201.643 83.6671 201.69 84.7035C201.486 84.7255 201.279 84.7154 201.078 84.6735C199.411 84.3488 198.684 82.7351 198.506 81.3162C198.311 79.6533 198.356 77.9691 198.641 76.3202C199.218 72.9105 200.448 69.6568 202.255 66.7529C202.476 66.3932 202.686 66.0285 202.926 65.6788C202.95 65.6388 202.883 65.6039 202.859 65.6438C200.661 68.8313 198.794 72.2185 197.999 75.9655C197.575 77.7808 197.466 79.6607 197.678 81.5161C197.908 83.2097 198.808 84.9783 200.747 85.3879C201.076 85.46 201.414 85.4752 201.748 85.4329C201.814 86.0374 201.932 86.6344 202.102 87.2165C202.616 88.8492 203.55 90.3036 204.801 91.4214C206.052 92.5393 207.572 93.2777 209.198 93.5564C209.588 93.6149 209.981 93.6482 210.376 93.6563C210.538 93.6963 210.529 93.5114 210.399 93.4964ZM202.346 83.6743C202.362 82.8332 202.461 81.996 202.643 81.1763C202.739 80.7567 202.854 80.337 202.988 79.9223C203.09 79.5393 203.252 79.1764 203.467 78.8482C203.663 78.5884 204.051 78.1987 204.424 78.4385C204.798 78.6783 204.764 79.163 204.783 79.4927C204.808 80.3671 204.645 81.2361 204.305 82.0356C203.945 82.9199 203.347 84.084 202.389 84.5336C202.351 84.2539 202.342 83.9641 202.346 83.6743Z" fill="#263238"/>
<path d="M207.527 120.755C205.612 118.466 198.775 109.444 197.233 106.911C194.13 101.82 191.564 96.3641 188.888 91.0584C187.37 88.0608 185.656 84.4837 184.229 81.4311C184.205 81.3862 184.129 81.4062 184.148 81.4561C186.456 86.9517 188.265 92.2724 190.501 97.2734C193.038 102.759 196.176 107.919 199.852 112.651C201.891 115.344 205.08 118.401 207.426 120.854C207.455 120.879 207.57 120.809 207.527 120.755Z" fill="#263238"/>
<path d="M205.794 133.634C205.76 130.387 205.602 127.139 205.43 123.902C205.334 122.058 205.214 120.21 205.147 118.366C205.147 118.349 205.141 118.333 205.129 118.321C205.117 118.308 205.102 118.302 205.085 118.302C205.069 118.302 205.053 118.308 205.041 118.321C205.029 118.333 205.023 118.349 205.023 118.366C205.023 121.614 204.932 124.861 204.913 128.114C204.894 131.366 204.975 134.608 205.119 137.846C205.205 139.699 205.363 141.543 205.506 143.386C205.51 143.401 205.519 143.414 205.53 143.423C205.542 143.433 205.556 143.438 205.571 143.438C205.586 143.438 205.6 143.433 205.612 143.423C205.623 143.414 205.632 143.401 205.636 143.386C205.693 141.763 205.784 140.139 205.798 138.51C205.813 136.882 205.808 135.258 205.794 133.634Z" fill="#263238"/>
<path d="M214.33 139.22C214.33 137.626 214.306 136.032 214.249 134.439C214.14 131.251 213.992 128.065 213.804 124.881C213.698 123.068 213.555 121.249 213.444 119.436C213.444 119.409 213.434 119.384 213.416 119.365C213.398 119.346 213.374 119.336 213.349 119.336C213.323 119.336 213.299 119.346 213.281 119.365C213.263 119.384 213.253 119.409 213.253 119.436C213.286 122.623 213.253 125.81 213.344 128.998C213.435 132.185 213.55 135.373 213.746 138.555C213.799 139.455 213.856 140.349 213.928 141.243C213.962 141.673 214 142.097 214.033 142.522C214.067 142.947 214.139 143.386 214.163 143.821C214.166 143.83 214.171 143.837 214.178 143.843C214.186 143.848 214.194 143.851 214.203 143.851C214.212 143.851 214.221 143.848 214.228 143.843C214.236 143.837 214.241 143.83 214.244 143.821C214.314 143.094 214.342 142.363 214.33 141.633C214.34 140.838 214.335 140.029 214.33 139.22Z" fill="#263238"/>
<path d="M239.054 115.569C239.406 112.844 239.774 110.126 240.16 107.415C240.16 107.397 240.153 107.379 240.141 107.366C240.128 107.353 240.111 107.345 240.093 107.345C240.076 107.345 240.059 107.353 240.046 107.366C240.033 107.379 240.026 107.397 240.026 107.415C239.631 109.79 239.217 112.16 238.786 114.525C238.36 116.873 238.011 119.236 237.546 121.579C237.026 123.892 236.274 126.141 235.301 128.289C234.377 130.477 233.457 132.67 232.577 134.883C232.098 136.127 231.581 137.381 231.097 138.62C230.853 139.245 230.618 139.864 230.369 140.494C230.12 141.123 229.924 141.813 229.689 142.467C229.682 142.484 229.681 142.504 229.687 142.522C229.694 142.54 229.706 142.554 229.723 142.562C229.74 142.57 229.758 142.571 229.775 142.564C229.792 142.558 229.806 142.544 229.814 142.527C230.082 141.982 230.379 141.468 230.637 140.918C230.896 140.369 231.145 139.829 231.389 139.28C231.868 138.181 232.385 137.086 232.873 135.987C233.855 133.789 234.789 131.581 235.746 129.368C236.225 128.294 236.651 127.214 237.044 126.11C237.414 125.003 237.713 123.872 237.939 122.723C238.466 120.355 238.762 117.947 239.054 115.569Z" fill="#263238"/>
<path d="M204.352 146.589C203.045 147.813 199.44 151.445 197.903 151.984C196.366 152.524 193.594 151.949 193.594 151.949C190.592 153.573 186.853 151.055 186.853 151.055C185.589 150.95 183.406 148.432 183.425 148.192C183.508 147.217 183.732 146.26 184.09 145.355C184.569 144.311 188.256 141.168 188.284 140.803C190.52 140.269 192.756 140.034 196.97 141.498C195.469 140.458 193.7 139.923 191.899 139.964C191.899 139.964 200.278 139.315 205.238 142.962C205.219 142.957 205.65 145.37 204.352 146.589Z" fill="#FDFDFD"/>
<path d="M190.113 143.456C189.501 143.87 188.928 144.345 188.404 144.875C187.877 145.361 187.438 145.942 187.107 146.589C186.804 147.211 186.628 147.891 186.59 148.587C186.592 149.408 186.737 150.222 187.016 150.99C187.016 151.025 187.088 151.02 187.083 150.99C186.982 150.215 186.973 149.43 187.054 148.652C187.165 148.01 187.395 147.395 187.729 146.844C188.06 146.26 188.438 145.707 188.859 145.19C189.299 144.65 189.817 144.191 190.238 143.631C190.31 143.531 190.219 143.391 190.113 143.456Z" fill="#263238"/>
<path d="M197.037 144.306C195.87 145.184 194.884 146.296 194.135 147.578C193.791 148.236 193.586 148.964 193.533 149.712C193.481 150.46 193.581 151.21 193.829 151.914C193.832 151.922 193.836 151.929 193.843 151.933C193.849 151.938 193.857 151.941 193.865 151.941C193.873 151.941 193.88 151.938 193.887 151.933C193.893 151.929 193.898 151.922 193.901 151.914C193.886 151.181 193.944 150.448 194.073 149.726C194.236 149.071 194.467 148.436 194.762 147.833C195.051 147.2 195.392 146.595 195.782 146.024C196.194 145.455 196.63 144.905 197.075 144.366C197.094 144.331 197.065 144.281 197.037 144.306Z" fill="#263238"/>
<path d="M234.789 148.572C233.967 149.243 233.054 149.78 232.079 150.166C232.079 150.166 230.848 152.774 229.101 153.064C227.353 153.353 224.792 152.564 224.792 152.564C224.792 152.564 222.345 153.693 220.928 153.403C219.511 153.113 215.891 150.406 215.345 149.167C214.799 147.928 214.239 143.671 214.239 143.671C216.351 142.312 221.225 140.464 226.836 141.318C226.836 141.318 223.647 141.138 221.186 142.127C221.186 142.127 225.936 141.718 229.905 142.527L230.752 142.717H230.776C231.299 142.885 231.798 143.123 232.261 143.426C233.544 144.261 235.703 147.683 234.789 148.572Z" fill="#FDFDFD"/>
<path d="M226.568 148.432C226.3 147.008 224.787 146.394 223.647 145.934C223.604 145.934 223.571 145.974 223.614 145.999C224.629 146.564 225.811 147.328 225.888 148.672C225.877 149.335 225.739 149.989 225.481 150.596C225.266 151.225 225.002 151.84 224.806 152.474C224.806 152.519 224.849 152.544 224.878 152.514C225.399 151.993 225.823 151.374 226.127 150.691C226.508 150.009 226.663 149.215 226.568 148.432Z" fill="#263238"/>
<path d="M232.457 146.124C231.667 145.02 230.187 144.625 228.971 144.381C228.964 144.381 228.956 144.384 228.951 144.389C228.946 144.395 228.943 144.403 228.943 144.411C228.943 144.418 228.946 144.426 228.951 144.432C228.956 144.437 228.964 144.441 228.971 144.441C230.096 144.875 231.25 145.3 231.844 146.469C232.404 147.553 232.294 148.967 232.045 150.131C232.041 150.144 232.041 150.157 232.047 150.17C232.052 150.182 232.062 150.191 232.074 150.196C232.086 150.201 232.099 150.2 232.111 150.194C232.123 150.189 232.132 150.178 232.136 150.166C232.83 148.997 233.309 147.338 232.457 146.124Z" fill="#263238"/>
<path opacity="0.1" d="M187.619 65.4441C187.619 65.4441 197.348 68.082 202.701 67.9421C208.053 67.8022 217.131 64.4449 217.131 64.4449C217.131 64.4449 208.566 89.2449 203.548 90.359C198.53 91.4731 187.619 65.4441 187.619 65.4441Z" fill="black"/>
<path d="M213.947 61.9219C213.502 62.2617 213.033 62.5614 212.588 62.9211C212.142 63.2808 211.711 63.6106 211.266 63.9503C210.38 64.6248 209.475 65.2743 208.542 65.8838C206.679 67.1128 204.783 68.2868 202.902 69.4859C202.873 69.4859 202.878 69.5708 202.902 69.5558C206.253 68.5566 209.274 66.6581 212.066 64.4899C212.453 64.1901 212.832 63.8854 213.2 63.5606C213.569 63.2359 213.947 62.8162 214.316 62.4415C214.373 62.3875 214.41 62.313 214.417 62.2327C214.425 62.1524 214.404 62.0719 214.358 62.007C214.312 61.9421 214.244 61.8974 214.168 61.8817C214.092 61.866 214.014 61.8803 213.947 61.9219Z" fill="white"/>
<path d="M216.901 58.9193C215.618 60.1533 214.507 61.5622 213.33 62.8811C212.736 63.5406 212.118 64.1801 211.491 64.8046C210.864 65.4291 210.241 66.0935 209.576 66.683C208.815 67.3625 208.01 67.962 207.211 68.5865C207.182 68.6115 207.211 68.6715 207.211 68.6565C208.011 68.304 208.779 67.8759 209.504 67.3775C210.259 66.8812 210.986 66.3408 211.683 65.7588C213.051 64.5576 214.319 63.2355 215.47 61.807C216.147 61.0125 216.762 60.162 217.308 59.264C217.509 58.9843 217.121 58.6945 216.901 58.9193Z" fill="white"/>
<path d="M202.284 69.1061C201.867 68.9712 201.461 68.8042 201.068 68.6065C200.69 68.4416 200.316 68.2518 199.948 68.0619C199.186 67.6723 198.42 67.3075 197.664 66.9029C196.132 66.1345 194.663 65.239 193.269 64.225C193.168 64.1451 193.029 64.28 193.13 64.3799C194.33 65.6974 195.721 66.8101 197.252 67.6773C198.015 68.0947 198.817 68.4295 199.646 68.6764C200.067 68.7914 200.489 68.8763 200.91 68.9662C201.331 69.0561 201.81 69.0761 202.246 69.181C202.255 69.1863 202.266 69.1875 202.277 69.1842C202.287 69.1809 202.296 69.1735 202.301 69.1635C202.306 69.1536 202.307 69.142 202.304 69.1312C202.301 69.1204 202.294 69.1114 202.284 69.1061Z" fill="white"/>
<path d="M199.062 69.0961C197.243 68.2468 195.495 67.3075 193.752 66.2983C192.9 65.7987 192.048 65.2991 191.205 64.7995C190.312 64.2986 189.486 63.6771 188.749 62.951C188.687 62.8861 188.591 62.976 188.634 63.0509C189.212 63.9118 189.943 64.6481 190.789 65.2192C191.587 65.8551 192.429 66.4295 193.307 66.9378C195.114 67.9566 197.047 68.7098 199.052 69.176C199.071 69.186 199.1 69.1111 199.062 69.0961Z" fill="white"/>
<path d="M188.021 23.7776C183.176 23.7776 180.734 27.6595 180.734 32.1958C180.734 35.8679 183.607 39.6198 188.265 39.6198C192.924 39.6198 195.797 35.2134 195.797 31.7612C195.795 30.7021 195.593 29.6538 195.2 28.6773C194.807 27.7007 194.232 26.8153 193.509 26.0725C192.786 25.3297 191.928 24.7443 190.986 24.3504C190.044 23.9564 189.036 23.7617 188.021 23.7776Z" fill="#263238"/>
<path d="M188.49 24.7218C183.932 24.7218 181.639 28.3688 181.639 32.6304C181.639 36.0826 184.344 39.6248 188.715 39.6248C193.087 39.6248 195.797 35.4831 195.797 32.2407C195.8 31.2435 195.613 30.2556 195.245 29.3349C194.878 28.4142 194.338 27.5793 193.658 26.879C192.977 26.1787 192.17 25.6272 191.283 25.2568C190.395 24.8864 189.446 24.7045 188.49 24.7218Z" fill="#FDFDFD"/>
<path d="M188.538 26.3455C184.971 26.3455 183.176 29.2032 183.176 32.5405C183.191 33.2803 183.346 34.0097 183.634 34.6862C183.921 35.3626 184.335 35.9727 184.85 36.4808C185.366 36.989 185.973 37.3851 186.636 37.6461C187.3 37.9071 188.007 38.0278 188.715 38.0011C192.139 38.0011 194.26 34.7587 194.26 32.2208C194.26 31.441 194.112 30.6688 193.824 29.9494C193.535 29.2301 193.113 28.5778 192.58 28.0309C192.047 27.4839 191.416 27.0532 190.722 26.7638C190.028 26.4744 189.285 26.3322 188.538 26.3455Z" fill="#263238"/>
<path d="M190.19 26.4055C188.572 26.4055 187.753 27.7044 187.753 29.2182C187.758 29.5558 187.827 29.889 187.957 30.1983C188.087 30.5076 188.275 30.7867 188.509 31.0193C188.744 31.252 189.02 31.4334 189.323 31.5531C189.626 31.6727 189.948 31.7282 190.271 31.7162C190.933 31.6972 191.563 31.4141 192.03 30.9252C192.498 30.4363 192.768 29.7788 192.785 29.0883C192.788 28.7331 192.722 28.381 192.592 28.0526C192.463 27.7243 192.271 27.4263 192.029 27.1763C191.787 26.9263 191.5 26.7293 191.184 26.5969C190.868 26.4646 190.53 26.3995 190.19 26.4055Z" fill="#FDFDFD"/>
<path d="M219.678 23.7776C224.528 23.7776 226.965 27.6595 226.965 32.1958C226.965 35.8679 224.093 39.6199 219.439 39.6199C214.785 39.6199 211.908 35.2134 211.908 31.7612C211.909 30.7026 212.112 29.6547 212.504 28.6785C212.896 27.7023 213.471 26.8171 214.194 26.0744C214.917 25.3316 215.774 24.7461 216.715 24.3519C217.657 23.9576 218.664 23.7624 219.678 23.7776Z" fill="#263238"/>
<path d="M219.214 24.7218C223.772 24.7218 226.06 28.3688 226.06 32.6304C226.06 36.0826 223.36 39.6248 218.984 39.6248C214.608 39.6248 211.908 35.4781 211.908 32.2157C211.908 31.2206 212.097 30.2354 212.466 29.3176C212.835 28.3998 213.375 27.5678 214.055 26.8702C214.735 26.1726 215.542 25.6234 216.427 25.2545C217.313 24.8856 218.26 24.7045 219.214 24.7218Z" fill="#FDFDFD"/>
<path d="M219.166 26.3455C222.733 26.3455 224.523 29.2032 224.523 32.5405C224.509 33.2803 224.353 34.0097 224.066 34.6862C223.778 35.3626 223.365 35.9727 222.849 36.4808C222.334 36.989 221.726 37.3851 221.063 37.6461C220.399 37.9071 219.693 38.0278 218.984 38.0011C215.561 38.0011 213.444 34.7587 213.444 32.2208C213.444 31.441 213.592 30.6688 213.88 29.9494C214.169 29.2301 214.592 28.5778 215.124 28.0309C215.657 27.4839 216.289 27.0532 216.983 26.7638C217.676 26.4744 218.419 26.3322 219.166 26.3455Z" fill="#263238"/>
<path d="M221.086 26.4055C219.467 26.4055 218.654 27.7044 218.654 29.2182C218.658 29.5554 218.728 29.8882 218.857 30.1971C218.987 30.5061 219.174 30.785 219.408 31.0175C219.642 31.2501 219.918 31.4317 220.22 31.5516C220.522 31.6716 220.844 31.7275 221.167 31.7162C221.829 31.6973 222.459 31.4144 222.928 30.9256C223.396 30.4368 223.667 29.7793 223.686 29.0883C223.688 28.7327 223.622 28.3802 223.492 28.0515C223.362 27.7228 223.17 27.4246 222.928 27.1745C222.686 26.9245 222.398 26.7276 222.081 26.5955C221.765 26.4634 221.426 26.3988 221.086 26.4055Z" fill="#FDFDFD"/>
<path d="M207.345 34.3541C207.278 34.8537 204.242 36.6223 203.893 36.6223C203.543 36.6223 200.513 34.8337 200.441 34.3541C200.369 33.8745 203.179 33.6946 203.893 33.6946C204.606 33.6946 207.417 33.8745 207.345 34.3541Z" fill="#263238"/>
<path d="M195.964 38.3608C196.553 39.0943 197.202 39.7729 197.903 40.3892C198.245 40.6851 198.613 40.9445 199.004 41.1635C199.358 41.3712 199.758 41.4748 200.163 41.4633C200.563 41.404 200.948 41.2626 201.296 41.0474C201.643 40.8322 201.947 40.5474 202.188 40.2093C202.726 39.5032 203.15 38.71 203.443 37.8612L203.922 36.5323L204.372 37.8612C204.655 38.6963 205.049 39.4865 205.54 40.2093C206.019 40.9087 206.698 41.4983 207.455 41.4383C208.305 41.2861 209.099 40.8919 209.748 40.2992C210.474 39.7164 211.148 39.0678 211.764 38.3608C211.286 39.1905 210.712 39.9556 210.055 40.639C209.722 40.9916 209.352 41.3048 208.954 41.5732C208.538 41.8688 208.066 42.0666 207.57 42.1527C207.032 42.2305 206.485 42.1198 206.014 41.838C205.578 41.5645 205.192 41.2126 204.874 40.7988C204.563 40.41 204.292 39.9881 204.065 39.5398C203.836 39.0966 203.636 38.6376 203.467 38.166H204.372C204.199 38.6451 203.987 39.108 203.74 39.5498C203.498 39.9972 203.209 40.4145 202.878 40.7938C202.538 41.1934 202.137 41.5311 201.69 41.793C201.228 42.0499 200.711 42.1822 200.187 42.1777C199.673 42.1553 199.175 41.9822 198.751 41.6781C198.348 41.4032 197.979 41.0795 197.65 40.7139C196.995 40.0064 196.429 39.2158 195.964 38.3608Z" fill="#263238"/>
<path d="M180.466 37.6214C177.067 36.7222 173.639 35.9628 170.191 35.2933C166.744 34.6239 163.292 34.0243 159.816 33.5747C158.948 33.4448 158.08 33.3299 157.212 33.23C156.34 33.1251 155.474 33.0052 154.602 32.9152C152.86 32.7454 151.117 32.5655 149.369 32.4156C145.874 32.1009 142.374 31.991 138.865 31.8661L141.498 31.8261C142.374 31.8261 143.255 31.8261 144.131 31.8261L146.76 31.8961C147.641 31.8961 148.517 31.986 149.393 32.0309C152.898 32.2208 156.393 32.6005 159.878 33.0601C163.364 33.5197 166.826 34.1542 170.263 34.8986C171.98 35.275 173.693 35.6813 175.401 36.1177C177.095 36.5973 178.795 37.0619 180.466 37.6214Z" fill="#263238"/>
<path d="M178.728 39.485C177.158 39.2752 175.592 39.0754 174.017 38.9105C172.442 38.7456 170.876 38.5708 169.301 38.4109C166.155 38.1211 163.005 37.8763 159.85 37.7314C158.274 37.6265 156.694 37.5766 155.119 37.5166C153.544 37.4567 151.959 37.4367 150.384 37.4317H148.014L145.62 37.4716C144.04 37.4716 142.465 37.5766 140.88 37.5965C144.031 37.2968 147.191 37.0969 150.355 37.062C153.52 37.027 156.69 37.092 159.85 37.2468C163.01 37.4017 166.17 37.6715 169.315 38.0412C172.461 38.4109 175.63 38.8605 178.728 39.485Z" fill="#263238"/>
<path d="M179.312 41.6731C177.995 41.6731 176.679 41.6731 175.362 41.6731C174.045 41.6731 172.729 41.7081 171.412 41.7531C168.779 41.833 166.145 41.9229 163.522 42.1028C160.898 42.2826 158.255 42.4475 155.646 42.6873C153.036 42.9271 150.408 43.1869 147.779 43.4717C149.082 43.2352 150.384 43.0171 151.686 42.8172C152.993 42.6374 154.3 42.4525 155.612 42.3176C158.231 41.9979 160.879 41.818 163.498 41.6182C166.117 41.4184 168.764 41.3834 171.407 41.3834C174.05 41.3834 176.683 41.4383 179.312 41.6731Z" fill="#263238"/>
<path d="M228.392 37.6214C230.063 37.0619 231.744 36.6223 233.458 36.1227C235.172 35.6231 236.876 35.2783 238.595 34.9036C242.033 34.1592 245.499 33.5597 248.98 33.0651C252.46 32.5705 255.956 32.2258 259.465 32.0359C260.341 31.991 261.217 31.926 262.093 31.901L264.727 31.8311C265.603 31.8311 266.484 31.8311 267.36 31.8311L269.989 31.8711C266.484 31.996 262.979 32.1059 259.489 32.4206C257.741 32.5505 255.999 32.7304 254.256 32.9202C253.384 33.0102 252.518 33.1301 251.646 33.235C250.775 33.3399 249.909 33.4498 249.042 33.5797C245.566 34.0293 242.109 34.6338 238.667 35.2983C235.224 35.9628 231.791 36.7122 228.392 37.6214Z" fill="#263238"/>
<path d="M230.12 39.4849C233.228 38.8604 236.345 38.4158 239.509 38.0461C242.674 37.6764 245.815 37.4366 248.975 37.2517C252.135 37.0669 255.3 37.0169 258.464 37.0669C261.629 37.1168 264.794 37.3017 267.944 37.6014C266.359 37.6014 264.784 37.4665 263.204 37.4765L260.834 37.4366H258.464C256.884 37.4366 255.309 37.4915 253.729 37.5215C252.149 37.5515 250.574 37.6314 248.999 37.7363C245.844 37.8812 242.693 38.126 239.548 38.4158C237.974 38.5557 236.402 38.7222 234.832 38.9154C233.256 39.0753 231.691 39.2751 230.12 39.4849Z" fill="#263238"/>
<path d="M229.546 41.6732C232.174 41.4384 234.813 41.3784 237.451 41.3734C240.089 41.3684 242.717 41.4684 245.36 41.6082C248.003 41.7481 250.627 41.9879 253.246 42.3077C254.557 42.4576 255.865 42.6424 257.172 42.8073C258.479 42.9721 259.776 43.2269 261.074 43.4618C258.45 43.192 255.836 42.8972 253.207 42.6774C250.579 42.4576 247.941 42.2377 245.331 42.0929C242.722 41.948 240.065 41.8231 237.446 41.7431C236.129 41.6982 234.813 41.6782 233.496 41.6632C232.179 41.6482 230.863 41.6632 229.546 41.6732Z" fill="#263238"/>
<path d="M287.249 123.313C286.748 122.015 286.089 120.79 285.286 119.67C285.257 119.63 285.199 119.67 285.223 119.705C285.85 120.748 286.318 121.886 286.612 123.078C286.881 124.253 287.07 125.447 287.177 126.65C287.347 128.519 287.253 130.404 286.899 132.245C286.775 132.885 286.597 133.509 286.463 134.149C286.163 135.581 285.75 136.984 285.228 138.345C285.156 138.53 285.444 138.65 285.53 138.48C286.172 137.304 286.719 136.074 287.167 134.803C287.581 133.526 287.865 132.206 288.015 130.866C288.392 128.322 288.128 125.718 287.249 123.313Z" fill="white"/>
<path d="M286.727 126.195C286.727 126.186 286.723 126.177 286.717 126.17C286.711 126.164 286.702 126.16 286.693 126.16C286.684 126.16 286.676 126.164 286.669 126.17C286.663 126.177 286.66 126.186 286.66 126.195C286.655 127.372 286.528 128.544 286.281 129.692C286.056 130.831 285.803 131.971 285.515 133.095C285.231 134.225 284.871 135.334 284.438 136.412C284.227 136.937 283.998 137.451 283.753 137.961C283.509 138.47 283.275 139.04 283.007 139.559C282.738 140.079 282.384 140.704 282.049 141.273C281.714 141.843 281.355 142.367 281 142.907C280.933 143.012 281.082 143.127 281.168 143.042C281.982 142.208 282.72 141.296 283.37 140.319C284.038 139.339 284.609 138.291 285.075 137.191C286.059 134.999 286.65 132.637 286.818 130.222C286.894 128.888 286.798 127.544 286.727 126.195Z" fill="white"/>
<path d="M276.634 116.513C275.648 118.581 273.666 119.925 271.578 120.51C268.945 121.284 266.177 120.884 263.52 120.445C260.7 119.975 257.871 119.566 255.041 119.186C252.341 118.826 249.636 118.471 246.902 118.267C241.635 117.867 236.12 118.057 231.126 120.1C228.817 120.993 226.766 122.49 225.17 124.447C223.728 126.259 222.775 128.438 222.407 130.762C222.077 132.969 222.351 135.23 223.198 137.282C224.045 139.335 225.431 141.096 227.195 142.362C227.632 142.67 228.089 142.944 228.564 143.182C228.573 143.183 228.582 143.182 228.59 143.177C228.598 143.173 228.605 143.167 228.609 143.158C228.613 143.15 228.615 143.141 228.614 143.131C228.613 143.122 228.609 143.113 228.603 143.107C225.093 140.424 222.537 136.282 223.03 131.826C223.303 129.545 224.169 127.385 225.534 125.581C226.993 123.674 228.907 122.201 231.083 121.309C235.933 119.206 241.31 118.976 246.485 119.311C251.953 119.685 257.382 120.615 262.816 121.309C265.488 121.654 268.27 121.954 270.917 121.309C272.956 120.864 274.777 119.678 276.055 117.962C276.346 117.531 276.588 117.067 276.778 116.578C276.792 116.498 276.677 116.423 276.634 116.513Z" fill="#263238"/>
<path d="M270.175 107.375C270.175 107.375 270.534 114.53 270.558 115.429C270.558 115.429 273.804 118.217 273.072 119.615C272.512 120.68 270.137 122.268 255.893 119.93C241.649 117.592 224.049 118.621 223.01 130.961C221.971 143.301 234.836 148.972 254.342 148.252C273.847 147.533 286.966 140.259 287.311 127.449C287.565 117.962 278.377 109.154 270.175 107.375Z" fill="white"/>
</g>
<path d="M182.08 248.502C178.56 248.593 175.076 247.743 171.96 246.031L10.7935 148.921C7.92588 147.196 6.35015 144.734 6.35015 141.997C6.35015 138.801 8.53271 135.656 12.3497 133.358L109.351 74.9227C116.251 70.7662 126.361 70.3475 132.38 73.9831L293.557 171.082C296.424 172.808 298 175.259 298 178.006C298 181.203 295.817 184.348 292 186.646L194.999 245.081C191.044 247.355 186.596 248.532 182.08 248.502ZM12.2127 146.399L173.389 243.498C178.537 246.562 187.62 246.174 193.619 242.559L290.62 184.123C293.557 182.357 295.211 180.13 295.211 177.996C295.211 175.862 293.557 174.442 292.167 173.605L130.981 76.526C125.833 73.4623 116.76 73.8504 110.751 77.4655L13.7493 135.901C10.8131 137.657 9.15909 139.883 9.15909 142.028C9.15909 144.173 10.8131 145.582 12.1931 146.419L12.2127 146.399Z" fill="#414142"/>
<path d="M11.4982 141.119L172.665 238.218C178.214 241.558 187.893 241.139 194.294 237.279L291.296 178.844C297.706 174.983 298.401 169.152 292.852 165.813L131.685 68.7136C126.136 65.3742 116.456 65.7929 110.046 69.6532L13.0446 128.088C6.64375 131.949 5.94884 137.78 11.4982 141.119Z" fill="#91B3FA"/>
<path d="M182.08 241.956C178.56 242.047 175.076 241.197 171.96 239.485L10.7935 142.386C7.92588 140.66 6.35015 138.199 6.35015 135.462C6.35015 132.265 8.53271 129.12 12.3497 126.822L109.351 68.3868C116.251 64.2304 126.361 63.8219 132.38 67.4575L293.557 164.546C296.424 166.272 298 168.733 298 171.47C298 174.667 295.817 177.812 292 180.11L194.999 238.545C191.043 240.815 186.595 241.989 182.08 241.956ZM12.2127 139.853L173.369 236.952C178.517 240.016 187.6 239.628 193.6 236.013L290.601 177.577C293.537 175.821 295.191 173.595 295.191 171.45C295.191 169.305 293.537 167.896 292.147 167.059L130.981 69.9902C125.833 66.9265 116.76 67.3043 110.751 70.9195L13.7493 129.355C10.8131 131.121 9.15909 133.337 9.15909 135.482C9.15909 137.627 10.8131 139.036 12.1931 139.873L12.2127 139.853Z" fill="#414142"/>
<path d="M11.4982 134.624L172.665 231.713C178.214 235.053 187.893 234.634 194.294 230.774L291.296 172.338C297.706 168.488 298.401 162.647 292.852 159.307L131.685 62.2288C126.136 58.8894 116.456 59.3081 110.046 63.1581L13.0446 121.603C6.64375 125.433 5.94884 131.295 11.4982 134.624Z" fill="#91B3FA"/>
<path d="M182.08 235.461C178.56 235.552 175.076 234.702 171.96 232.99L10.7935 135.901C7.92588 134.175 6.35015 131.714 6.35015 128.967C6.35015 125.78 8.53271 122.625 12.3497 120.337L109.351 61.902C116.202 57.7353 126.361 57.3269 132.38 60.9625L293.557 158.051C296.424 159.777 298 162.238 298 164.986C298 168.172 295.817 171.327 292 173.615L194.999 232.05C191.043 234.32 186.595 235.494 182.08 235.461ZM12.2127 133.368L173.389 230.457C178.537 233.521 187.62 233.133 193.619 229.517L290.62 171.082C293.557 169.326 295.211 167.1 295.211 164.955C295.211 162.81 293.557 161.391 292.167 160.553L130.981 63.4951C125.833 60.4314 116.76 60.8195 110.751 64.4346L13.7493 122.87C10.8131 124.626 9.15909 126.853 9.15909 128.997C9.15909 131.142 10.8131 132.561 12.1931 133.399L12.2127 133.368Z" fill="#414142"/>
<path d="M182.931 247.256C186.909 247.166 190.809 246.084 194.304 244.101L291.306 185.686C296.307 182.622 296.923 176.893 295.573 174.892C296.227 173.943 296.58 172.803 296.58 171.634C296.58 170.465 296.227 169.325 295.573 168.376C297.53 165.169 296.659 161.677 292.832 159.369L259.194 139.097H182.931V247.256Z" fill="#414142"/>
<path d="M11.4982 128.088L172.665 225.177C178.214 228.527 187.893 228.098 194.294 224.248L291.296 165.813C297.706 161.952 298.401 156.121 292.852 152.772L131.685 55.6826C126.136 52.3432 116.456 52.7619 110.046 56.6222L13.0446 115.057C6.64375 118.918 5.94884 124.749 11.4982 128.088Z" fill="#91B3FA"/>
<path d="M126.723 66.7324L29.5361 125.29C24.3098 128.446 22.8808 132.919 25.5429 136.279L156.995 215.465C162.633 218.335 171.676 217.824 177.823 214.138L274.824 155.703C280.412 152.343 281.675 147.471 278.191 144.06L147.629 65.4253C141.982 62.525 132.88 63.0356 126.723 66.7324Z" fill="#FDFDFD"/>
<path d="M182.08 228.925C178.559 229.016 175.074 228.162 171.96 226.444L10.7935 129.355C7.92588 127.629 6.35015 125.168 6.35015 122.431C6.35015 119.234 8.53271 116.089 12.3497 113.791L109.351 55.3559C116.202 51.1995 126.361 50.791 132.38 54.4164L293.557 151.505C296.424 153.231 298 155.692 298 158.439C298 161.626 295.817 164.781 292 167.079L194.999 225.514C191.043 227.784 186.595 228.958 182.08 228.925ZM12.2127 126.822L173.389 223.911C178.537 226.975 187.62 226.597 193.619 222.982L290.62 164.546C293.557 162.78 295.211 160.553 295.211 158.419C295.211 156.285 293.557 154.865 292.167 154.018L130.981 56.949C125.833 53.8853 116.76 54.2632 110.751 57.8886L13.7493 116.324C10.8131 118.08 9.15909 120.307 9.15909 122.451C9.15909 124.596 10.8131 126.005 12.1931 126.842L12.2127 126.822Z" fill="#414142"/>
<path d="M262.595 146.764L164.018 205.878L165.418 208.419L263.995 149.305L262.595 146.764Z" fill="#414142"/>
<path d="M168.287 76.5737L47.5456 148.979L48.9452 151.52L169.686 79.1147L168.287 76.5737Z" fill="#414142"/>
<path d="M142.35 74.5429L44.2527 133.711L45.6535 136.239L143.75 77.0716L142.35 74.5429Z" fill="#414142"/>
<path d="M184.801 234.961L184.586 232.714C187.802 232.418 190.924 231.431 193.756 229.814L290.758 171.389C292.316 170.516 293.657 169.275 294.672 167.763L296.493 168.968C295.304 170.795 293.709 172.295 291.844 173.339L194.833 231.774C191.741 233.561 188.322 234.646 184.801 234.961Z" fill="#91B3FA"/>
<path d="M184.801 241.588L184.586 239.352C187.803 239.058 190.927 238.066 193.756 236.441L290.758 178.006C292.319 177.134 293.661 175.888 294.672 174.371L296.493 175.586C295.298 177.408 293.704 178.906 291.844 179.957L194.833 238.392C191.743 240.186 188.324 241.276 184.801 241.588Z" fill="#91B3FA"/>
<path d="M117.504 74.8922C115.867 74.9186 114.25 74.511 112.806 73.7075C112.11 73.4051 111.516 72.8946 111.098 72.2403C110.68 71.5861 110.457 70.8174 110.457 70.0311C110.457 69.2448 110.68 68.476 111.098 67.8218C111.516 67.1675 112.11 66.657 112.806 66.3546C114.259 65.5744 115.87 65.1673 117.504 65.1673C119.138 65.1673 120.749 65.5744 122.202 66.3546C122.901 66.6534 123.499 67.1625 123.92 67.8172C124.341 68.4719 124.566 69.2426 124.566 70.0311C124.566 70.8196 124.341 71.5902 123.92 72.2449C123.499 72.8996 122.901 73.4088 122.202 73.7075C120.757 74.5122 119.141 74.9199 117.504 74.8922ZM117.504 68.0805C116.36 68.0588 115.23 68.3362 114.215 68.8873C113.628 69.2447 113.237 69.6838 113.237 70.0311C113.237 70.3783 113.599 70.8174 114.215 71.1646C115.238 71.6962 116.366 71.9728 117.509 71.9728C118.652 71.9728 119.779 71.6962 120.802 71.1646C121.389 70.8174 121.781 70.3783 121.781 70.0311C121.781 69.6838 121.419 69.2447 120.802 68.8975C119.787 68.3361 118.652 68.0549 117.504 68.0805Z" fill="#414142"/>
<path d="M101.061 84.7981C99.4259 84.8131 97.8145 84.3874 96.3829 83.5624C95.6866 83.262 95.0913 82.7529 94.6725 82.0993C94.2536 81.4458 94.03 80.6772 94.03 79.891C94.03 79.1048 94.2536 78.3363 94.6725 77.6827C95.0913 77.0292 95.6866 76.52 96.3829 76.2197C97.8343 75.4395 99.4433 75.0325 101.076 75.0325C102.709 75.0325 104.318 75.4395 105.769 76.2197C106.465 76.52 107.061 77.0292 107.479 77.6827C107.898 78.3363 108.122 79.1048 108.122 79.891C108.122 80.6772 107.898 81.4458 107.479 82.0993C107.061 82.7529 106.465 83.262 105.769 83.5624C104.328 84.3921 102.706 84.8179 101.061 84.7981ZM101.061 77.9864C99.9139 77.9577 98.7785 78.2354 97.7629 78.7932C97.1757 79.1506 96.7842 79.5796 96.7842 79.9268C96.7842 80.274 97.1463 80.7131 97.7629 81.0706C98.7867 81.5998 99.9138 81.8752 101.056 81.8752C102.199 81.8752 103.326 81.5998 104.35 81.0706C104.937 80.7233 105.328 80.2842 105.328 79.937C105.328 79.5898 104.966 79.1506 104.35 78.7932C103.34 78.2383 102.212 77.9607 101.071 77.9864H101.061Z" fill="#414142"/>
<path d="M84.6382 94.7041C82.9999 94.7333 81.382 94.3218 79.9403 93.5092C79.244 93.2089 78.6487 92.6997 78.2299 92.0462C77.811 91.3927 77.5874 90.6241 77.5874 89.8379C77.5874 89.0517 77.811 88.2832 78.2299 87.6296C78.6487 86.9761 79.244 86.4669 79.9403 86.1666C81.392 85.3814 83.0031 84.9716 84.6382 84.9716C86.2733 84.9716 87.8844 85.3814 89.336 86.1666C90.0324 86.4669 90.6277 86.9761 91.0465 87.6296C91.4653 88.2832 91.6889 89.0517 91.6889 89.8379C91.6889 90.6241 91.4653 91.3927 91.0465 92.0462C90.6277 92.6997 90.0324 93.2089 89.336 93.5092C87.8955 94.3248 86.2768 94.7365 84.6382 94.7041ZM84.6382 87.8924C83.4939 87.8636 82.3617 88.1414 81.3497 88.6992C80.7625 89.0464 80.371 89.4856 80.371 89.8328C80.371 90.18 80.7331 90.6192 81.3497 90.9766C82.3735 91.5058 83.5006 91.7812 84.6431 91.7812C85.7856 91.7812 86.9127 91.5058 87.9365 90.9766C88.5237 90.6192 88.9152 90.18 88.9152 89.8328C88.9152 89.4856 88.5433 89.0464 87.9365 88.6992C86.9211 88.141 85.7856 87.8632 84.6382 87.8924Z" fill="#414142"/>
<path d="M68.186 104.6C66.5522 104.628 64.9385 104.22 63.4979 103.415C62.8023 103.113 62.2081 102.602 61.79 101.948C61.372 101.294 61.149 100.525 61.149 99.7388C61.149 98.9525 61.372 98.1838 61.79 97.5295C62.2081 96.8753 62.8023 96.3648 63.4979 96.0623C64.9493 95.2822 66.5583 94.8751 68.1909 94.8751C69.8235 94.8751 71.4325 95.2822 72.8839 96.0623C73.5832 96.3611 74.1815 96.8702 74.6027 97.5249C75.0238 98.1796 75.2487 98.9503 75.2487 99.7388C75.2487 100.527 75.0238 101.298 74.6027 101.953C74.1815 102.607 73.5832 103.116 72.8839 103.415C71.4397 104.22 69.823 104.628 68.186 104.6ZM64.8975 98.595C64.3102 98.9524 63.9188 99.3916 63.9188 99.7388C63.9188 100.086 64.2907 100.525 64.8975 100.883C65.9213 101.412 67.0484 101.687 68.1909 101.687C69.3334 101.687 70.4605 101.412 71.4843 100.883C72.0715 100.525 72.463 100.086 72.463 99.7388C72.463 99.3916 72.1009 98.9524 71.4843 98.595C70.4622 98.0659 69.3368 97.7906 68.1958 97.7906C67.0549 97.7906 65.9293 98.0659 64.9073 98.595H64.8975Z" fill="#414142"/>
<path d="M51.7433 114.506C50.1095 114.534 48.4958 114.126 47.0552 113.321C46.3559 113.022 45.7575 112.513 45.3364 111.859C44.9153 111.204 44.6904 110.433 44.6904 109.645C44.6904 108.856 44.9153 108.086 45.3364 107.431C45.7575 106.776 46.3559 106.267 47.0552 105.968C48.5066 105.188 50.1155 104.781 51.7482 104.781C53.3808 104.781 54.9898 105.188 56.4412 105.968C57.1405 106.267 57.7388 106.776 58.1599 107.431C58.581 108.086 58.8059 108.856 58.8059 109.645C58.8059 110.433 58.581 111.204 58.1599 111.859C57.7388 112.513 57.1405 113.022 56.4412 113.321C54.9973 114.127 53.3803 114.534 51.7433 114.506ZM51.7433 107.704C50.6006 107.68 49.4701 107.953 48.4548 108.501C47.8675 108.848 47.4761 109.287 47.4761 109.635C47.4761 109.982 47.8382 110.421 48.4548 110.778C49.4779 111.31 50.6052 111.586 51.7482 111.586C52.8911 111.586 54.0185 111.31 55.0416 110.778C55.6288 110.431 56.0203 109.992 56.0203 109.645C56.0203 109.298 55.6582 108.858 55.0416 108.501C54.0233 107.952 52.8893 107.678 51.7433 107.704Z" fill="#414142"/>
<path d="M35.3106 124.412C33.6721 124.442 32.0539 124.031 30.6127 123.217C29.9163 122.917 29.3211 122.407 28.9022 121.754C28.4834 121.1 28.2598 120.332 28.2598 119.546C28.2598 118.759 28.4834 117.991 28.9022 117.337C29.3211 116.684 29.9163 116.175 30.6127 115.874C32.064 115.094 33.6731 114.687 35.3057 114.687C36.9383 114.687 38.5473 115.094 39.9987 115.874C40.695 116.175 41.2903 116.684 41.7091 117.337C42.128 117.991 42.3516 118.759 42.3516 119.546C42.3516 120.332 42.128 121.1 41.7091 121.754C41.2903 122.407 40.695 122.917 39.9987 123.217C38.5605 124.03 36.9458 124.441 35.3106 124.412ZM35.3106 117.6C34.1638 117.577 33.0297 117.854 32.0123 118.407C31.4251 118.764 31.0336 119.204 31.0336 119.551C31.0336 119.898 31.3957 120.337 32.0123 120.684C33.0354 121.216 34.1628 121.492 35.3057 121.492C36.4486 121.492 37.5759 121.216 38.5991 120.684C39.1863 120.337 39.5778 119.898 39.5778 119.551C39.5778 119.204 39.2157 118.764 38.5991 118.407C37.5846 117.856 36.4541 117.578 35.3106 117.6Z" fill="#414142"/>
<path d="M53.4562 112.157L49.8154 111.697C49.8154 111.605 50.7941 102.077 46.1158 95.858C44.8985 94.3206 43.3947 93.0571 41.6955 92.1443C39.9963 91.2315 38.1371 90.6882 36.2307 90.5476C33.9641 90.2261 31.6564 90.4963 29.5145 91.334C27.3726 92.1717 25.4632 93.5506 23.9575 95.3474C22.2322 97.4817 21.0175 100.013 20.4134 102.733C19.8093 105.453 19.8332 108.284 20.483 110.993L16.9205 111.891C16.1132 108.586 16.0813 105.127 16.8275 101.806C17.5737 98.4851 19.0761 95.401 21.2073 92.8147C23.1039 90.554 25.5087 88.82 28.206 87.7684C30.9033 86.7168 33.8087 86.3804 36.6613 86.7894C41.9464 87.4124 46.106 89.6897 49.0226 93.5398C54.6698 101.025 53.5051 111.748 53.4562 112.157Z" fill="#414142"/>
<path d="M69.8889 102.445L66.248 101.985C66.248 101.894 67.2757 92.3654 62.5582 86.1461C61.341 84.6087 59.8372 83.3452 58.138 82.4324C56.4388 81.5196 54.5796 80.9763 52.6731 80.8357C50.4044 80.5071 48.0931 80.7708 45.946 81.6031C43.799 82.4354 41.8833 83.8104 40.3705 85.6049C38.647 87.7381 37.4341 90.2682 36.8317 92.9866C36.2293 95.705 36.2548 98.5338 36.9059 101.24L33.3433 102.149C32.5399 98.8413 32.5128 95.3803 33.2641 92.0594C34.0155 88.7385 35.5232 85.6556 37.6595 83.0722C39.5566 80.8088 41.9627 79.0725 44.6618 78.019C47.3608 76.9656 50.2684 76.628 53.1233 77.0367C58.4084 77.6699 62.568 79.937 65.4846 83.7871C71.1123 91.2727 69.9574 101.996 69.8889 102.445Z" fill="#414142"/>
<path d="M86.3314 92.3451L82.6906 91.8855C82.6906 91.7936 83.7182 82.2553 78.991 76.0359C77.7755 74.4972 76.272 73.2335 74.5722 72.3222C72.8725 71.4108 71.0125 70.871 69.1059 70.7357C66.8394 70.404 64.5294 70.6652 62.3837 71.4959C60.238 72.3266 58.3237 73.7007 56.8131 75.4947C55.0844 77.6271 53.8662 80.1577 53.2587 82.8779C52.6512 85.598 52.6719 88.4299 53.3191 91.14L49.7468 92.0387C48.9419 88.7333 48.9113 85.2744 49.6574 81.9541C50.4036 78.6338 51.9045 75.5496 54.0336 72.962C55.9307 70.6986 58.3368 68.9623 61.0358 67.9088C63.7349 66.8554 66.6424 66.5179 69.4974 66.9265C74.7825 67.5597 78.942 69.8268 81.8586 73.6871C87.5744 81.1728 86.3803 91.8855 86.3314 92.3451Z" fill="#414142"/>
<path d="M102.813 82.7454L99.1722 82.2961C99.1722 82.1939 100.151 72.6658 95.4727 66.4465C94.2583 64.9141 92.7588 63.6543 91.0649 62.7434C89.3709 61.8324 87.5177 61.2891 85.6169 61.1463C83.3505 60.8154 81.0408 61.0771 78.8952 61.9077C76.7496 62.7383 74.8353 64.112 73.3241 65.9052C71.6004 68.0346 70.3843 70.5596 69.7753 73.2736C69.1663 75.9875 69.1817 78.8134 69.8203 81.5199L66.2578 82.4186C65.4505 79.1134 65.4186 75.6539 66.1648 72.3331C66.911 69.0123 68.4134 65.9282 70.5446 63.3419C72.4407 61.0801 74.8452 59.3447 77.5424 58.2913C80.2396 57.2379 83.1452 56.8995 85.9986 57.3064C91.2837 57.9396 95.4433 60.2067 98.3599 64.067C104.027 71.5833 102.862 82.2961 102.813 82.7454Z" fill="#414142"/>
<path d="M119.217 72.5024L115.566 72.0428C115.566 71.9509 116.545 62.4228 111.876 56.2034C110.659 54.666 109.155 53.4026 107.456 52.4897C105.757 51.5769 103.898 51.0337 101.991 50.893C99.7238 50.5634 97.4136 50.8267 95.2679 51.6591C93.1223 52.4915 91.2085 53.8671 89.6983 55.6622C87.9709 57.7952 86.7548 60.3266 86.1507 63.0471C85.5465 65.7676 85.5716 68.5991 86.2238 71.3075L82.6613 72.2164C81.8507 68.9115 81.8171 65.4511 82.5634 62.1297C83.3098 58.8083 84.814 55.7242 86.9481 53.1397C88.8426 50.8757 91.2468 49.1388 93.9445 48.0852C96.6422 47.0317 99.5486 46.6946 102.402 47.1042C107.687 47.7272 111.847 50.0045 114.763 53.8546C120.43 61.33 119.266 72.0428 119.217 72.5024Z" fill="#414142"/>
<path d="M6.34034 132.582C-0.187751 125.433 -1.83202 115.435 2.1416 107.051C3.74698 103.543 6.3739 100.655 9.6469 98.7989C12.9199 96.9427 16.6715 96.2137 20.3654 96.7159C25.6505 97.3388 29.8101 99.6162 32.7267 103.466C38.3935 110.952 37.2289 121.675 37.1799 122.124L33.5391 121.665C33.5391 121.573 34.5178 112.045 29.8395 105.825C28.6223 104.288 27.1185 103.024 25.4192 102.112C23.72 101.199 21.8608 100.656 19.9544 100.515C16.9916 100.072 13.9709 100.638 11.3416 102.131C8.71232 103.623 6.61497 105.961 5.36161 108.797C2.08289 115.701 3.47269 124.003 8.92418 129.947L6.34034 132.582Z" fill="#414142"/>
<path d="M177.842 160.604L145.789 179.916L139.055 175.831L138.928 161.891C138.947 159.081 138.75 156.274 138.341 153.497C138.104 152.192 137.597 150.958 136.853 149.881C136.074 148.826 135.094 147.95 133.976 147.308C132.28 146.24 130.328 145.698 128.348 145.745C126.443 145.817 124.583 146.378 122.936 147.379C121.336 148.296 119.988 149.625 119.021 151.24C118.126 152.859 117.531 154.64 117.269 156.489L105.759 155.907C105.958 153.884 106.477 151.91 107.296 150.065C108.091 148.561 109.112 147.199 110.32 146.031C111.922 144.513 113.685 143.19 115.576 142.089C118.42 140.376 121.51 139.152 124.727 138.464C127.851 137.78 131.061 137.635 134.23 138.035C137.143 138.375 139.959 139.327 142.51 140.833C144.38 141.89 146.023 143.336 147.335 145.082C148.474 146.715 149.24 148.597 149.577 150.586C149.987 153.893 150.013 157.24 149.655 160.553L149.312 167.447L149.753 167.712L169.729 155.672L177.842 160.604Z" fill="#91B3FA"/>
<path d="M145.789 181.601L137.656 176.699L137.489 161.922C137.508 159.212 137.328 156.505 136.951 153.823C136.743 152.722 136.316 151.679 135.698 150.76C135.03 149.868 134.194 149.128 133.242 148.584C131.766 147.658 130.07 147.184 128.348 147.216C126.674 147.283 125.04 147.777 123.592 148.656C122.192 149.449 121.007 150.597 120.146 151.995C119.341 153.458 118.807 155.065 118.571 156.734L118.375 158.021L104.086 157.296L104.291 155.713C104.508 153.522 105.077 151.385 105.974 149.391C106.84 147.745 107.953 146.256 109.273 144.979C110.956 143.383 112.808 141.992 114.793 140.833C117.771 139.042 121.006 137.763 124.375 137.044C127.646 136.323 131.009 136.172 134.328 136.595C137.426 136.956 140.422 137.967 143.137 139.567C145.174 140.725 146.963 142.306 148.392 144.214C149.661 146.031 150.514 148.127 150.888 150.341C151.327 153.776 151.36 157.253 150.986 160.696L150.751 165.404L169.689 154.028L180.641 160.625L145.789 181.601ZM140.426 175.004L145.769 178.221L175.014 160.604L169.67 157.388L149.694 169.418L147.825 168.325L148.216 160.533C148.56 157.338 148.54 154.113 148.157 150.923C147.869 149.153 147.199 147.473 146.2 146.011C144.995 144.429 143.497 143.116 141.796 142.151C139.404 140.752 136.769 139.866 134.044 139.547C131.028 139.169 127.973 139.31 125.001 139.965C121.929 140.62 118.978 141.786 116.261 143.417C114.471 144.464 112.8 145.718 111.279 147.155C110.178 148.21 109.249 149.444 108.529 150.811C107.976 152.003 107.59 153.272 107.384 154.579L116.114 155.028C116.455 153.452 117.026 151.94 117.807 150.545C118.91 148.716 120.443 147.211 122.26 146.174C124.105 145.055 126.186 144.427 128.319 144.346C130.562 144.292 132.774 144.901 134.7 146.103C135.984 146.846 137.109 147.853 138.008 149.064C138.864 150.313 139.458 151.737 139.75 153.241C140.176 156.113 140.379 159.016 140.357 161.922L140.426 175.004Z" fill="#414142"/>
<path d="M178.977 116.742C181.842 118.465 183.411 120.453 183.685 122.706C183.949 124.963 182.902 127.261 180.514 129.6L180.7 129.712C184.375 127.869 188.371 126.826 192.445 126.648C195.974 126.534 199.464 127.446 202.526 129.283C206.936 131.938 208.773 134.968 208.036 138.372C207.298 141.776 203.967 145.293 198.043 148.921C193.146 151.886 187.851 154.069 182.334 155.396L174.084 150.433C176.818 149.888 179.512 149.148 182.148 148.217C184.639 147.37 187.043 146.265 189.323 144.918C192.526 142.985 194.347 141.235 194.784 139.669C195.224 138.086 194.236 136.605 191.848 135.135C189.664 133.829 187.095 133.411 184.634 133.96C181.172 134.811 177.866 136.246 174.847 138.209L171.373 140.302L163.944 135.829L167.487 133.695C171.04 131.55 173.174 129.712 173.878 128.16C174.583 126.607 173.82 125.157 171.559 123.799C168.094 121.702 164.179 121.968 159.814 124.596C158.371 125.44 157.072 126.527 155.968 127.813C154.838 129.2 153.962 130.792 153.384 132.51L142.226 131.183C143.388 126.853 146.865 122.941 152.66 119.449C156.992 116.728 161.829 115.001 166.851 114.383C171.031 113.801 175.28 114.627 178.977 116.742Z" fill="#91B3FA"/>
<path d="M182.109 156.918L170.12 149.698L173.829 148.962C176.483 148.43 179.099 147.71 181.659 146.808C184.065 145.989 186.386 144.922 188.589 143.621C192.337 141.364 193.208 139.894 193.394 139.22C193.688 138.198 192.308 137.096 191.094 136.37C189.205 135.227 186.974 134.862 184.84 135.349C181.547 136.179 178.404 137.558 175.532 139.434L171.353 141.957L161.116 135.829L166.763 132.429C171.069 129.835 172.263 128.241 172.635 127.527C172.772 127.23 173.144 126.424 170.874 125.065C167.849 123.237 164.473 123.493 160.558 125.852C159.251 126.628 158.071 127.618 157.064 128.783C156.044 130.03 155.254 131.463 154.734 133.011L154.363 134.083L140.426 132.408L140.876 130.754C142.138 126.066 145.877 121.828 151.965 118.152C156.448 115.345 161.452 113.566 166.646 112.933C171.127 112.315 175.681 113.206 179.643 115.476C182.892 117.427 184.703 119.806 185.036 122.523C185.193 123.948 184.956 125.39 184.351 126.679C186.958 125.792 189.674 125.3 192.415 125.219C196.186 125.103 199.913 126.082 203.181 128.047C208.163 131.06 210.238 134.655 209.347 138.74C208.506 142.6 205.012 146.338 198.669 150.157C193.648 153.191 188.222 155.428 182.569 156.795L182.109 156.918ZM177.911 151.015L182.55 153.813C187.737 152.498 192.718 150.414 197.338 147.624C202.897 144.275 206.039 141.068 206.695 138.086C206.91 137.065 207.576 134.001 201.86 130.59C199.017 128.892 195.778 128.047 192.503 128.15C188.612 128.317 184.794 129.303 181.277 131.05L180.622 131.356L178.185 129.886L179.574 128.497C181.6 126.505 182.511 124.606 182.315 122.849C182.119 121.093 180.749 119.438 178.292 117.968C174.841 116.009 170.881 115.25 166.988 115.803C162.19 116.4 157.567 118.05 153.423 120.643C148.754 123.462 145.662 126.556 144.213 129.835L152.542 130.856C153.142 129.368 153.965 127.989 154.979 126.771C156.185 125.37 157.6 124.18 159.168 123.248C163.964 120.368 168.378 120.102 172.303 122.451C176.227 124.8 175.787 127.394 175.18 128.721C174.329 130.58 172.117 132.541 168.221 134.849L166.783 135.717L171.412 138.505L174.192 136.83C177.338 134.788 180.783 133.294 184.39 132.408C187.176 131.788 190.083 132.265 192.552 133.746C196.33 136.023 196.595 138.382 196.144 139.965C195.596 141.926 193.6 143.928 190.047 146.093C187.683 147.488 185.191 148.634 182.609 149.514C181.043 150.106 179.477 150.607 177.911 151.015Z" fill="#414142"/>
<defs>
<filter id="filter0_d" x="134.865" y="0" width="157.317" height="161.451" filterUnits="userSpaceOnUse" color-interpolation-filters="sRGB">
<feFlood flood-opacity="0" result="BackgroundImageFix"/>
<feColorMatrix in="SourceAlpha" type="matrix" values="0 0 0 0 0 0 0 0 0 0 0 0 0 0 0 0 0 0 127 0" result="hardAlpha"/>
<feOffset dy="4"/>
<feGaussianBlur stdDeviation="2"/>
<feColorMatrix type="matrix" values="0 0 0 0 0 0 0 0 0 0 0 0 0 0 0 0 0 0 0.25 0"/>
<feBlend mode="normal" in2="BackgroundImageFix" result="effect1_dropShadow"/>
<feBlend mode="normal" in="SourceGraphic" in2="effect1_dropShadow" result="shape"/>
</filter>
</defs>
</svg>
