<svg width="365" height="322" viewBox="0 0 365 322" fill="none" xmlns="http://www.w3.org/2000/svg">
<rect width="365" height="322" rx="10" fill="#91B3FA" fill-opacity="0.18"/>
<rect x="16" y="53" width="334" height="35" rx="8" fill="white"/>
<path d="M156.721 21.7081V33.4681C156.721 35.1001 156.249 36.3721 155.305 37.2841C154.361 38.1801 153.097 38.6281 151.513 38.6281C149.913 38.6281 148.617 38.1641 147.625 37.2361C146.649 36.3081 146.161 35.0121 146.161 33.3481H149.521C149.537 34.0681 149.705 34.6281 150.025 35.0281C150.361 35.4281 150.841 35.6281 151.465 35.6281C152.073 35.6281 152.537 35.4361 152.857 35.0521C153.177 34.6681 153.337 34.1401 153.337 33.4681V21.7081H156.721ZM173.192 25.1641V38.4601H169.808V36.7801C169.376 37.3561 168.808 37.8121 168.104 38.1481C167.416 38.4681 166.664 38.6281 165.848 38.6281C164.808 38.6281 163.888 38.4121 163.088 37.9801C162.288 37.5321 161.656 36.8841 161.192 36.0361C160.744 35.1721 160.52 34.1481 160.52 32.9641V25.1641H163.88V32.4841C163.88 33.5401 164.144 34.3561 164.672 34.9321C165.2 35.4921 165.92 35.7721 166.832 35.7721C167.76 35.7721 168.488 35.4921 169.016 34.9321C169.544 34.3561 169.808 33.5401 169.808 32.4841V25.1641H173.192ZM179.868 20.7001V38.4601H176.508V20.7001H179.868ZM190.675 24.9721C191.683 24.9721 192.579 25.1961 193.363 25.6441C194.147 26.0761 194.755 26.7241 195.187 27.5881C195.635 28.4361 195.859 29.4601 195.859 30.6601V38.4601H192.499V31.1161C192.499 30.0601 192.235 29.2521 191.707 28.6921C191.179 28.1161 190.459 27.8281 189.547 27.8281C188.619 27.8281 187.883 28.1161 187.339 28.6921C186.811 29.2521 186.547 30.0601 186.547 31.1161V38.4601H183.187V20.7001H186.547V26.8201C186.979 26.2441 187.555 25.7961 188.275 25.4761C188.995 25.1401 189.795 24.9721 190.675 24.9721ZM204.958 38.6761C203.678 38.6761 202.526 38.3961 201.502 37.8361C200.478 37.2601 199.67 36.4521 199.078 35.4121C198.502 34.3721 198.214 33.1721 198.214 31.8121C198.214 30.4521 198.51 29.2521 199.102 28.2121C199.71 27.1721 200.534 26.3721 201.574 25.8121C202.614 25.2361 203.774 24.9481 205.054 24.9481C206.334 24.9481 207.494 25.2361 208.534 25.8121C209.574 26.3721 210.39 27.1721 210.982 28.2121C211.59 29.2521 211.894 30.4521 211.894 31.8121C211.894 33.1721 211.582 34.3721 210.958 35.4121C210.35 36.4521 209.518 37.2601 208.462 37.8361C207.422 38.3961 206.254 38.6761 204.958 38.6761ZM204.958 35.7481C205.566 35.7481 206.134 35.6041 206.662 35.3161C207.206 35.0121 207.638 34.5641 207.958 33.9721C208.278 33.3801 208.438 32.6601 208.438 31.8121C208.438 30.5481 208.102 29.5801 207.43 28.9081C206.774 28.2201 205.966 27.8761 205.006 27.8761C204.046 27.8761 203.238 28.2201 202.582 28.9081C201.942 29.5801 201.622 30.5481 201.622 31.8121C201.622 33.0761 201.934 34.0521 202.558 34.7401C203.198 35.4121 203.998 35.7481 204.958 35.7481Z" fill="#393F4E"/>
<path d="M34 37.9456L27.1954 30.8626L34 23.7796L31.8949 21.6038L23 30.8626L31.8949 40.1214L34 37.9456Z" fill="#393F4E"/>
<path d="M332 37.9456L338.805 30.8626L332 23.7796L334.105 21.6038L343 30.8626L334.105 40.1214L332 37.9456Z" fill="#393F4E"/>
<path d="M233.683 99.291H231.928L229.397 100.917V102.607L231.779 101.086H231.838V109.473H233.683V99.291Z" fill="black"/>
<path d="M332.999 109.612C335.177 109.612 336.763 108.364 336.758 106.644C336.763 105.371 335.967 104.457 334.541 104.253V104.173C335.644 103.934 336.385 103.114 336.38 101.971C336.385 100.42 335.063 99.1518 333.029 99.1518C331.051 99.1518 329.519 100.33 329.479 102.035H331.254C331.284 101.18 332.08 100.648 333.019 100.648C333.969 100.648 334.6 101.225 334.595 102.08C334.6 102.97 333.864 103.562 332.81 103.562H331.911V104.984H332.81C334.098 104.984 334.864 105.63 334.859 106.55C334.864 107.449 334.083 108.066 332.994 108.066C331.97 108.066 331.18 107.534 331.135 106.704H329.266C329.315 108.424 330.852 109.612 332.999 109.612Z" fill="black"/>
<path d="M130.094 150.762C132.292 150.777 133.768 149.266 133.763 147.252C133.768 145.328 132.396 143.936 130.612 143.936C129.518 143.936 128.553 144.468 128.066 145.343H127.996C128.001 143.2 128.787 141.898 130.199 141.898C131.074 141.898 131.665 142.405 131.854 143.186H133.669C133.45 141.54 132.123 140.302 130.199 140.302C127.753 140.302 126.207 142.34 126.207 145.82C126.202 149.554 128.141 150.752 130.094 150.762ZM130.085 149.271C128.996 149.271 128.2 148.371 128.195 147.307C128.205 146.238 129.031 145.343 130.109 145.343C131.188 145.343 131.979 146.198 131.974 147.292C131.979 148.406 131.163 149.271 130.085 149.271Z" fill="black"/>
<path d="M80.0149 150.762C82.1676 150.762 83.669 149.301 83.669 147.277C83.669 145.318 82.3068 143.906 80.4574 143.906C79.6321 143.906 78.9013 144.235 78.5234 144.682H78.4638L78.7571 141.982H83.1371V140.441H77.2308L76.6989 145.691L78.3643 145.965C78.7074 145.587 79.3537 145.333 79.9652 145.338C81.0838 145.343 81.8892 146.168 81.8842 147.322C81.8892 148.46 81.1037 149.271 80.0149 149.271C79.0952 149.271 78.3544 148.689 78.2898 147.854H76.5C76.5497 149.544 78.0263 150.762 80.0149 150.762Z" fill="black"/>
<path d="M26.0588 148.734H30.916V150.623H32.676V148.734H33.9785V147.217H32.676V140.441H30.3791L26.0588 147.267V148.734ZM30.9359 147.217H27.948V147.138L30.8564 142.529H30.9359V147.217Z" fill="black"/>
<path d="M282.901 140.302C280.693 140.287 279.227 141.803 279.227 143.792C279.232 145.711 280.599 147.098 282.384 147.098C283.482 147.098 284.437 146.566 284.929 145.691H284.999C284.994 147.869 284.203 149.166 282.796 149.166C281.916 149.166 281.325 148.659 281.141 147.849H279.326C279.535 149.534 280.867 150.762 282.796 150.762C285.237 150.762 286.793 148.724 286.788 145.219C286.783 141.51 284.854 140.312 282.901 140.302ZM282.906 141.793C283.994 141.793 284.795 142.698 284.795 143.737C284.8 144.791 283.96 145.696 282.886 145.696C281.802 145.696 281.021 144.841 281.016 143.752C281.016 142.659 281.827 141.793 282.906 141.793Z" fill="black"/>
<path d="M330.014 140.441H328.259L325.728 142.067V143.757L328.11 142.236H328.169V150.623H330.014V140.441ZM336.363 150.817C338.819 150.822 340.285 148.883 340.285 145.542C340.285 142.221 338.809 140.302 336.363 140.302C333.917 140.302 332.445 142.216 332.44 145.542C332.44 148.878 333.907 150.817 336.363 150.817ZM336.363 149.261C335.095 149.261 334.299 147.988 334.304 145.542C334.309 143.116 335.1 141.838 336.363 141.838C337.63 141.838 338.421 143.116 338.426 145.542C338.426 147.988 337.635 149.261 336.363 149.261Z" fill="black"/>
<path d="M232.006 150.762C234.208 150.762 235.784 149.549 235.789 147.894C235.784 146.621 234.844 145.557 233.661 145.358V145.288C234.69 145.06 235.406 144.135 235.411 143.031C235.406 141.465 233.964 140.302 232.006 140.302C230.032 140.302 228.59 141.46 228.595 143.031C228.59 144.135 229.296 145.06 230.345 145.288V145.358C229.142 145.557 228.212 146.621 228.217 147.894C228.212 149.549 229.783 150.762 232.006 150.762ZM232.006 149.34C230.852 149.34 230.106 148.704 230.116 147.764C230.106 146.79 230.907 146.099 232.006 146.099C233.089 146.099 233.885 146.795 233.895 147.764C233.885 148.704 233.144 149.34 232.006 149.34ZM232.006 144.702C231.061 144.702 230.385 144.09 230.395 143.205C230.385 142.33 231.041 141.744 232.006 141.744C232.955 141.744 233.606 142.33 233.616 143.205C233.606 144.095 232.935 144.702 232.006 144.702Z" fill="black"/>
<path d="M176.169 150.623H178.083L182.409 142.017V140.441H175.473V141.982H180.5V142.052L176.169 150.623Z" fill="black"/>
<path d="M121.888 245.268H128.868V243.727H124.434V243.658L126.189 241.873C128.167 239.974 128.714 239.049 128.714 237.9C128.714 236.195 127.327 234.947 125.279 234.947C123.26 234.947 121.829 236.2 121.829 238.134H123.584C123.584 237.095 124.24 236.444 125.254 236.444C126.223 236.444 126.944 237.035 126.944 237.995C126.944 238.845 126.427 239.452 125.423 240.471L121.888 243.936V245.268ZM134.347 245.462C136.803 245.467 138.27 243.528 138.27 240.187C138.27 236.866 136.793 234.947 134.347 234.947C131.901 234.947 130.429 236.861 130.424 240.187C130.424 243.523 131.891 245.462 134.347 245.462ZM134.347 243.906C133.079 243.906 132.284 242.633 132.289 240.187C132.294 237.761 133.084 236.484 134.347 236.484C135.615 236.484 136.405 237.761 136.41 240.187C136.41 242.633 135.62 243.906 134.347 243.906Z" fill="black"/>
<path d="M77.1438 235.087H75.3888L72.8583 236.712V238.403L75.2397 236.881H75.2994V245.268H77.1438V235.087ZM83.2638 234.947C81.0565 234.932 79.5898 236.449 79.5898 238.437C79.5948 240.356 80.962 241.744 82.7468 241.744C83.8455 241.744 84.8001 241.212 85.2923 240.337H85.3619C85.3569 242.514 84.5664 243.812 83.1594 243.812C82.2795 243.812 81.6879 243.305 81.5039 242.494H79.6893C79.8981 244.18 81.2305 245.408 83.1594 245.408C85.6005 245.408 87.1566 243.369 87.1516 239.864C87.1467 236.155 85.2177 234.957 83.2638 234.947ZM83.2688 236.439C84.3576 236.439 85.158 237.344 85.158 238.383C85.163 239.437 84.3228 240.342 83.2489 240.342C82.1651 240.342 81.3846 239.486 81.3796 238.398C81.3796 237.304 82.19 236.439 83.2688 236.439Z" fill="black"/>
<path d="M27.1643 235.087H25.4094L22.8788 236.712V238.403L25.2602 236.881H25.3199V245.268H27.1643V235.087ZM33.3689 245.408C35.5713 245.408 37.1473 244.195 37.1523 242.539C37.1473 241.266 36.2077 240.202 35.0244 240.003V239.934C36.0535 239.705 36.7694 238.78 36.7744 237.677C36.7694 236.111 35.3277 234.947 33.3689 234.947C31.3952 234.947 29.9534 236.106 29.9584 237.677C29.9534 238.78 30.6594 239.705 31.7084 239.934V240.003C30.5052 240.202 29.5756 241.266 29.5805 242.539C29.5756 244.195 31.1466 245.408 33.3689 245.408ZM33.3689 243.986C32.2155 243.986 31.4697 243.349 31.4797 242.41C31.4697 241.435 32.2702 240.744 33.3689 240.744C34.4527 240.744 35.2481 241.44 35.2581 242.41C35.2481 243.349 34.5074 243.986 33.3689 243.986ZM33.3689 239.347C32.4243 239.347 31.7481 238.736 31.7581 237.851C31.7481 236.976 32.4044 236.389 33.3689 236.389C34.3184 236.389 34.9697 236.976 34.9797 237.851C34.9697 238.741 34.2986 239.347 33.3689 239.347Z" fill="black"/>
<path d="M274.998 245.268H281.978V243.727H277.543V243.658L279.298 241.873C281.277 239.974 281.824 239.049 281.824 237.9C281.824 236.195 280.437 234.947 278.388 234.947C276.37 234.947 274.938 236.2 274.938 238.134H276.693C276.693 237.095 277.349 236.444 278.363 236.444C279.333 236.444 280.054 237.035 280.054 237.995C280.054 238.845 279.537 239.452 278.532 240.471L274.998 243.936V245.268ZM287.347 245.408C289.525 245.408 291.111 244.16 291.106 242.44C291.111 241.167 290.315 240.252 288.888 240.048V239.969C289.992 239.73 290.733 238.91 290.728 237.766C290.733 236.215 289.41 234.947 287.377 234.947C285.398 234.947 283.867 236.126 283.827 237.831H285.602C285.632 236.976 286.427 236.444 287.367 236.444C288.316 236.444 288.948 237.021 288.943 237.876C288.948 238.766 288.212 239.357 287.158 239.357H286.258V240.779H287.158C288.446 240.779 289.211 241.425 289.206 242.345C289.211 243.245 288.431 243.861 287.342 243.861C286.318 243.861 285.527 243.329 285.483 242.499H283.613C283.663 244.219 285.199 245.408 287.347 245.408Z" fill="black"/>
<path d="M325.004 245.268H331.985V243.727H327.55V243.658L329.305 241.873C331.284 239.974 331.83 239.049 331.83 237.9C331.83 236.195 330.443 234.947 328.395 234.947C326.377 234.947 324.945 236.2 324.945 238.134H326.7C326.7 237.095 327.356 236.444 328.37 236.444C329.34 236.444 330.061 237.035 330.061 237.995C330.061 238.845 329.544 239.452 328.539 240.471L325.004 243.936V245.268ZM333.297 243.379H338.154V245.268H339.914V243.379H341.217V241.863H339.914V235.087H337.617L333.297 241.913V243.379ZM338.174 241.863H335.186V241.783L338.095 237.175H338.174V241.863Z" fill="black"/>
<path d="M172.194 245.268H179.174V243.727H174.739V243.658L176.494 241.873C178.473 239.974 179.02 239.049 179.02 237.9C179.02 236.195 177.633 234.947 175.585 234.947C173.566 234.947 172.134 236.2 172.134 238.134H173.889C173.889 237.095 174.545 236.444 175.56 236.444C176.529 236.444 177.25 237.035 177.25 237.995C177.25 238.845 176.733 239.452 175.729 240.471L172.194 243.936V245.268ZM185.031 235.087H183.276L180.745 236.712V238.403L183.126 236.881H183.186V245.268H185.031V235.087Z" fill="black"/>
<path d="M123.449 293.62H130.429V292.079H125.994V292.009L127.749 290.224C129.728 288.325 130.275 287.4 130.275 286.252C130.275 284.547 128.888 283.299 126.839 283.299C124.821 283.299 123.389 284.552 123.389 286.486H125.144C125.144 285.447 125.8 284.795 126.815 284.795C127.784 284.795 128.505 285.387 128.505 286.346C128.505 287.197 127.988 287.803 126.984 288.822L123.449 292.287V293.62ZM132.517 293.62H134.431L138.756 285.014V283.438H131.821V284.979H136.847V285.049L132.517 293.62Z" fill="black"/>
<path d="M73.0181 293.62H79.9982V292.079H75.5636V292.009L77.3185 290.224C79.2972 288.325 79.8441 287.4 79.8441 286.252C79.8441 284.547 78.457 283.299 76.4087 283.299C74.3903 283.299 72.9585 284.552 72.9585 286.486H74.7134C74.7134 285.447 75.3697 284.795 76.3839 284.795C77.3533 284.795 78.0742 285.387 78.0742 286.346C78.0742 287.197 77.5572 287.803 76.5529 288.822L73.0181 292.287V293.62ZM85.4421 293.759C87.6396 293.774 89.1161 292.263 89.1112 290.249C89.1161 288.325 87.744 286.933 85.9592 286.933C84.8654 286.933 83.9009 287.465 83.4137 288.34H83.3441C83.3491 286.197 84.1346 284.895 85.5465 284.895C86.4215 284.895 87.0131 285.402 87.2021 286.182H89.0167C88.7979 284.537 87.4705 283.299 85.5465 283.299C83.1005 283.299 81.5543 285.337 81.5543 288.817C81.5494 292.551 83.4883 293.749 85.4421 293.759ZM85.4322 292.268C84.3434 292.268 83.5479 291.368 83.543 290.304C83.5529 289.235 84.3782 288.34 85.457 288.34C86.5359 288.34 87.3263 289.195 87.3214 290.289C87.3263 291.402 86.511 292.268 85.4322 292.268Z" fill="black"/>
<path d="M23.1275 293.62H30.1076V292.079H25.6729V292.009L27.4279 290.224C29.4066 288.325 29.9535 287.4 29.9535 286.252C29.9535 284.547 28.5664 283.299 26.5181 283.299C24.4996 283.299 23.0678 284.552 23.0678 286.486H24.8228C24.8228 285.447 25.479 284.795 26.4933 284.795C27.4627 284.795 28.1836 285.387 28.1836 286.346C28.1836 287.197 27.6665 287.803 26.6623 288.822L23.1275 292.287V293.62ZM35.3626 293.759C37.5153 293.759 39.0167 292.297 39.0167 290.274C39.0167 288.315 37.6545 286.903 35.805 286.903C34.9798 286.903 34.2489 287.231 33.8711 287.679H33.8114L34.1048 284.979H38.4847V283.438H32.5785L32.0465 288.688L33.712 288.961C34.055 288.584 34.7013 288.33 35.3129 288.335C36.4315 288.34 37.2369 289.165 37.2319 290.319C37.2369 291.457 36.4513 292.268 35.3626 292.268C34.4428 292.268 33.7021 291.686 33.6374 290.851H31.8477C31.8974 292.541 33.3739 293.759 35.3626 293.759Z" fill="black"/>
<path d="M279.33 293.759C281.508 293.759 283.094 292.511 283.089 290.791C283.094 289.518 282.298 288.603 280.872 288.4V288.32C281.975 288.081 282.716 287.261 282.711 286.118C282.716 284.567 281.394 283.299 279.36 283.299C277.382 283.299 275.85 284.477 275.811 286.182H277.585C277.615 285.327 278.411 284.795 279.35 284.795C280.3 284.795 280.931 285.372 280.926 286.227C280.931 287.117 280.195 287.709 279.142 287.709H278.242V289.13H279.142C280.429 289.13 281.195 289.777 281.19 290.697C281.195 291.596 280.414 292.213 279.325 292.213C278.301 292.213 277.511 291.681 277.466 290.851H275.597C275.646 292.571 277.183 293.759 279.33 293.759ZM288.559 293.814C291.015 293.819 292.482 291.88 292.482 288.539C292.482 285.218 291.005 283.299 288.559 283.299C286.113 283.299 284.641 285.213 284.636 288.539C284.636 291.875 286.103 293.814 288.559 293.814ZM288.559 292.258C287.291 292.258 286.496 290.985 286.501 288.539C286.506 286.113 287.296 284.835 288.559 284.835C289.827 284.835 290.617 286.113 290.622 288.539C290.622 290.985 289.832 292.258 288.559 292.258Z" fill="black"/>
<path d="M330.636 293.759C332.814 293.759 334.4 292.511 334.395 290.791C334.4 289.518 333.604 288.603 332.177 288.4V288.32C333.281 288.081 334.022 287.261 334.017 286.118C334.022 284.567 332.699 283.299 330.666 283.299C328.687 283.299 327.156 284.477 327.116 286.182H328.891C328.921 285.327 329.716 284.795 330.656 284.795C331.606 284.795 332.237 285.372 332.232 286.227C332.237 287.117 331.501 287.709 330.447 287.709H329.547V289.13H330.447C331.735 289.13 332.5 289.777 332.495 290.697C332.5 291.596 331.72 292.213 330.631 292.213C329.607 292.213 328.816 291.681 328.772 290.851H326.902C326.952 292.571 328.488 293.759 330.636 293.759ZM340.242 283.438H338.487L335.957 285.064V286.754L338.338 285.233H338.398V293.62H340.242V283.438Z" fill="black"/>
<path d="M225.018 293.62H231.998V292.079H227.564V292.009L229.319 290.224C231.297 288.325 231.844 287.4 231.844 286.252C231.844 284.547 230.457 283.299 228.409 283.299C226.39 283.299 224.958 284.552 224.958 286.486H226.713C226.713 285.447 227.37 284.795 228.384 284.795C229.353 284.795 230.074 285.387 230.074 286.346C230.074 287.197 229.557 287.803 228.553 288.822L225.018 292.287V293.62ZM237.248 283.299C235.041 283.284 233.574 284.8 233.574 286.789C233.579 288.708 234.946 290.095 236.731 290.095C237.83 290.095 238.784 289.563 239.277 288.688H239.346C239.341 290.866 238.551 292.163 237.144 292.163C236.264 292.163 235.672 291.656 235.488 290.846H233.674C233.882 292.531 235.215 293.759 237.144 293.759C239.585 293.759 241.141 291.721 241.136 288.216C241.131 284.507 239.202 283.309 237.248 283.299ZM237.253 284.79C238.342 284.79 239.142 285.695 239.142 286.734C239.147 287.788 238.307 288.693 237.233 288.693C236.15 288.693 235.369 287.838 235.364 286.749C235.364 285.655 236.174 284.79 237.253 284.79Z" fill="black"/>
<path d="M172.039 293.62H179.019V292.079H174.584V292.009L176.339 290.224C178.318 288.325 178.865 287.4 178.865 286.252C178.865 284.547 177.478 283.299 175.429 283.299C173.411 283.299 171.979 284.552 171.979 286.486H173.734C173.734 285.447 174.39 284.795 175.404 284.795C176.374 284.795 177.095 285.387 177.095 286.346C177.095 287.197 176.578 287.803 175.573 288.822L172.039 292.287V293.62ZM184.353 293.759C186.556 293.759 188.132 292.546 188.137 290.89C188.132 289.618 187.192 288.554 186.009 288.355V288.285C187.038 288.057 187.754 287.132 187.759 286.028C187.754 284.462 186.312 283.299 184.353 283.299C182.38 283.299 180.938 284.457 180.943 286.028C180.938 287.132 181.644 288.057 182.693 288.285V288.355C181.49 288.554 180.56 289.618 180.565 290.89C180.56 292.546 182.131 293.759 184.353 293.759ZM184.353 292.337C183.2 292.337 182.454 291.701 182.464 290.761C182.454 289.787 183.255 289.096 184.353 289.096C185.437 289.096 186.233 289.792 186.242 290.761C186.233 291.701 185.492 292.337 184.353 292.337ZM184.353 287.699C183.409 287.699 182.733 287.087 182.742 286.202C182.733 285.327 183.389 284.741 184.353 284.741C185.303 284.741 185.954 285.327 185.964 286.202C185.954 287.092 185.283 287.699 184.353 287.699Z" fill="black"/>
<path d="M127.123 187.764H125.368L122.838 189.39V191.08L125.219 189.559H125.279V197.946H127.123V187.764ZM133.363 198.085C135.54 198.085 137.126 196.837 137.121 195.117C137.126 193.844 136.331 192.929 134.904 192.726V192.646C136.008 192.407 136.748 191.587 136.743 190.444C136.748 188.892 135.426 187.625 133.392 187.625C131.414 187.625 129.883 188.803 129.843 190.508H131.618C131.647 189.653 132.443 189.121 133.383 189.121C134.332 189.121 134.964 189.698 134.959 190.553C134.964 191.443 134.228 192.034 133.174 192.034H132.274V193.456H133.174C134.461 193.456 135.227 194.103 135.222 195.022C135.227 195.922 134.446 196.539 133.358 196.539C132.334 196.539 131.543 196.007 131.498 195.177H129.629C129.679 196.897 131.215 198.085 133.363 198.085Z" fill="black"/>
<path d="M77.3352 187.764H75.5803L73.0497 189.39V191.08L75.4311 189.559H75.4908V197.946H77.3352V187.764ZM79.9205 197.946H86.9006V196.405H82.4659V196.335L84.2209 194.55C86.1996 192.651 86.7464 191.726 86.7464 190.578C86.7464 188.873 85.3594 187.625 83.3111 187.625C81.2926 187.625 79.8608 188.878 79.8608 190.811H81.6158C81.6158 189.772 82.272 189.121 83.2862 189.121C84.2557 189.121 84.9766 189.713 84.9766 190.672C84.9766 191.522 84.4595 192.129 83.4553 193.148L79.9205 196.613V197.946Z" fill="black"/>
<path d="M28.3196 187.764H26.5646L24.0341 189.39V191.08L26.4155 189.559H26.4751V197.946H28.3196V187.764ZM35.0462 187.764H33.2912L30.7607 189.39V191.08L33.142 189.559H33.2017V197.946H35.0462V187.764Z" fill="black"/>
<path d="M280.144 187.764H278.389L275.858 189.39V191.08L278.24 189.559H278.299V197.946H280.144V187.764ZM286.458 198.085C288.655 198.1 290.132 196.588 290.127 194.575C290.132 192.651 288.76 191.259 286.975 191.259C285.881 191.259 284.917 191.791 284.429 192.666H284.36C284.365 190.523 285.15 189.221 286.562 189.221C287.437 189.221 288.029 189.728 288.218 190.508H290.032C289.814 188.863 288.486 187.625 286.562 187.625C284.116 187.625 282.57 189.663 282.57 193.143C282.565 196.877 284.504 198.075 286.458 198.085ZM286.448 196.593C285.359 196.593 284.564 195.694 284.559 194.63C284.569 193.561 285.394 192.666 286.473 192.666C287.551 192.666 288.342 193.521 288.337 194.615C288.342 195.728 287.527 196.593 286.448 196.593Z" fill="black"/>
<path d="M330.574 187.764H328.82L326.289 189.39V191.08L328.67 189.559H328.73V197.946H330.574V187.764ZM333.533 197.946H335.447L339.772 189.34V187.764H332.837V189.305H337.863V189.375L333.533 197.946Z" fill="black"/>
<path d="M229.253 187.764H227.498L224.968 189.39V191.08L227.349 189.559H227.409V197.946H229.253V187.764ZM235.378 198.085C237.531 198.085 239.032 196.623 239.032 194.6C239.032 192.641 237.67 191.229 235.821 191.229C234.995 191.229 234.265 191.557 233.887 192.005H233.827L234.12 189.305H238.5V187.764H232.594L232.062 193.014L233.728 193.287C234.071 192.909 234.717 192.656 235.328 192.661C236.447 192.666 237.252 193.491 237.248 194.645C237.252 195.783 236.467 196.593 235.378 196.593C234.458 196.593 233.718 196.012 233.653 195.177H231.863C231.913 196.867 233.39 198.085 235.378 198.085Z" fill="black"/>
<path d="M176.021 187.764H174.266L171.735 189.39V191.08L174.117 189.559H174.176V197.946H176.021V187.764ZM178.422 196.056H183.279V197.946H185.039V196.056H186.342V194.54H185.039V187.764H182.742L178.422 194.59V196.056ZM183.299 194.54H180.311V194.461L183.22 189.852H183.299V194.54Z" fill="black"/>
<path d="M279.557 109.473H286.537V107.932H282.103V107.862L283.858 106.077C285.836 104.178 286.383 103.253 286.383 102.105C286.383 100.4 284.996 99.1518 282.948 99.1518C280.929 99.1518 279.498 100.405 279.498 102.339H281.252C281.252 101.3 281.909 100.648 282.923 100.648C283.892 100.648 284.613 101.24 284.613 102.199C284.613 103.05 284.096 103.656 283.092 104.675L279.557 108.14V109.473Z" fill="black"/>
<path d="M82.8215 68.7464H84.8847C84.8548 66.9318 83.3634 65.679 81.0963 65.679C78.8641 65.679 77.2284 66.9119 77.2384 68.7614C77.2334 70.2628 78.2923 71.1229 80.0125 71.5355L81.1212 71.8139C82.2298 72.0824 82.8463 72.4006 82.8513 73.0866C82.8463 73.8324 82.1404 74.3395 81.0466 74.3395C79.928 74.3395 79.1226 73.8224 79.053 72.8033H76.9699C77.0246 75.0057 78.6006 76.1442 81.0715 76.1442C83.5573 76.1442 85.0189 74.956 85.0239 73.0916C85.0189 71.3963 83.7412 70.4964 81.9713 70.0987L81.0566 69.88C80.1716 69.6761 79.4308 69.348 79.4458 68.6172C79.4458 67.9609 80.0274 67.4787 81.0814 67.4787C82.1105 67.4787 82.7419 67.946 82.8215 68.7464Z" fill="#9B9B9B"/>
<path d="M30.4015 76C33.5038 76 35.3831 74.081 35.3831 70.8991C35.3831 67.7273 33.5038 65.8182 30.4314 65.8182H26.7922V76H30.4015ZM28.9449 74.1555V67.6626H30.317C32.2261 67.6626 33.2354 68.6371 33.2354 70.8991C33.2354 73.1712 32.2261 74.1555 30.3121 74.1555H28.9449Z" fill="#9B9B9B"/>
<path d="M337.821 68.7464H339.885C339.855 66.9318 338.363 65.679 336.096 65.679C333.864 65.679 332.228 66.9119 332.238 68.7614C332.233 70.2628 333.292 71.1229 335.013 71.5355L336.121 71.8139C337.23 72.0824 337.846 72.4006 337.851 73.0866C337.846 73.8324 337.14 74.3395 336.047 74.3395C334.928 74.3395 334.123 73.8224 334.053 72.8033H331.97C332.025 75.0057 333.601 76.1442 336.071 76.1442C338.557 76.1442 340.019 74.956 340.024 73.0916C340.019 71.3963 338.741 70.4964 336.971 70.0987L336.057 69.88C335.172 69.6761 334.431 69.348 334.446 68.6172C334.446 67.9609 335.027 67.4787 336.081 67.4787C337.111 67.4787 337.742 67.946 337.821 68.7464Z" fill="#9B9B9B"/>
<path d="M284.821 68.2704H286.885C286.855 66.4558 285.363 65.2029 283.096 65.2029C280.864 65.2029 279.228 66.4359 279.238 68.2853C279.233 69.7867 280.292 70.6468 282.013 71.0595L283.121 71.3379C284.23 71.6063 284.846 71.9245 284.851 72.6106C284.846 73.3563 284.14 73.8634 283.047 73.8634C281.928 73.8634 281.123 73.3464 281.053 72.3272H278.97C279.025 74.5296 280.601 75.6681 283.071 75.6681C285.557 75.6681 287.019 74.4799 287.024 72.6156C287.019 70.9203 285.741 70.0204 283.971 69.6227L283.057 69.4039C282.172 69.2001 281.431 68.872 281.446 68.1411C281.446 67.4849 282.027 67.0026 283.081 67.0026C284.111 67.0026 284.742 67.47 284.821 68.2704Z" fill="#9B9B9B"/>
<path d="M125.821 67.117H128.939V75.524H131.066V67.117H134.184V65.3421H125.821V67.117Z" fill="#9B9B9B"/>
<path d="M183.766 70.433C183.766 67.1021 181.698 65.2029 178.998 65.2029C176.284 65.2029 174.23 67.1021 174.23 70.433C174.23 73.7491 176.284 75.6632 178.998 75.6632C179.634 75.6632 180.236 75.5588 180.783 75.35L181.603 76.3592H183.612L182.155 74.5296C183.149 73.6397 183.766 72.2477 183.766 70.433ZM178.252 71.9842L179.555 73.7044C179.381 73.7392 179.192 73.759 178.998 73.759C177.432 73.759 176.413 72.5907 176.413 70.433C176.413 68.2754 177.432 67.1071 178.998 67.1071C180.559 67.1071 181.583 68.2754 181.583 70.433C181.583 71.5417 181.31 72.3919 180.838 72.9536L180.082 71.9842H178.252Z" fill="#9B9B9B"/>
<path d="M233.766 70.433C233.766 67.1021 231.698 65.2029 228.998 65.2029C226.284 65.2029 224.23 67.1021 224.23 70.433C224.23 73.7491 226.284 75.6632 228.998 75.6632C229.634 75.6632 230.236 75.5588 230.783 75.35L231.603 76.3592H233.612L232.155 74.5296C233.149 73.6397 233.766 72.2477 233.766 70.433ZM228.252 71.9842L229.555 73.7044C229.381 73.7392 229.192 73.759 228.998 73.759C227.432 73.759 226.413 72.5907 226.413 70.433C226.413 68.2754 227.432 67.1071 228.998 67.1071C230.559 67.1071 231.583 68.2754 231.583 70.433C231.583 71.5417 231.31 72.3919 230.838 72.9536L230.082 71.9842H228.252Z" fill="#9B9B9B"/>
<rect x="219" y="225.297" width="27" height="30.8626" rx="5" fill="#4D6EFF"/>
<path d="M224.21 245.268H231.19V243.727H226.755V243.658L228.51 241.873C230.489 239.974 231.036 239.049 231.036 237.9C231.036 236.195 229.648 234.947 227.6 234.947C225.582 234.947 224.15 236.2 224.15 238.134H225.905C225.905 237.095 226.561 236.444 227.575 236.444C228.545 236.444 229.266 237.035 229.266 237.995C229.266 238.845 228.749 239.452 227.744 240.471L224.21 243.936V245.268ZM232.905 245.268H239.885V243.727H235.45V243.658L237.205 241.873C239.184 239.974 239.731 239.049 239.731 237.9C239.731 236.195 238.344 234.947 236.295 234.947C234.277 234.947 232.845 236.2 232.845 238.134H234.6C234.6 237.095 235.256 236.444 236.271 236.444C237.24 236.444 237.961 237.035 237.961 237.995C237.961 238.845 237.444 239.452 236.44 240.471L232.905 243.936V245.268Z" fill="#FFF3F3"/>
</svg>
